%FSLAX25Y25*%
%MOIN*%
G70*
G01*
G75*
G04 Layer_Color=16711935*
%ADD10R,0.01575X0.05315*%
%ADD11R,0.07087X0.07480*%
%ADD12R,0.05906X0.07480*%
%ADD13R,0.03937X0.03937*%
%ADD14C,0.03937*%
%ADD15R,0.04724X0.02362*%
%ADD16R,0.03937X0.00787*%
%ADD17R,0.00787X0.03937*%
%ADD18R,0.03937X0.07087*%
%ADD19R,0.02362X0.04331*%
%ADD20R,0.01600X0.03000*%
%ADD21R,0.06496X0.01181*%
%ADD22R,0.01181X0.06496*%
G04:AMPARAMS|DCode=23|XSize=39.37mil|YSize=98.43mil|CornerRadius=0mil|HoleSize=0mil|Usage=FLASHONLY|Rotation=135.000|XOffset=0mil|YOffset=0mil|HoleType=Round|Shape=Rectangle|*
%AMROTATEDRECTD23*
4,1,4,0.04872,0.02088,-0.02088,-0.04872,-0.04872,-0.02088,0.02088,0.04872,0.04872,0.02088,0.0*
%
%ADD23ROTATEDRECTD23*%

G04:AMPARAMS|DCode=24|XSize=39.37mil|YSize=98.43mil|CornerRadius=0mil|HoleSize=0mil|Usage=FLASHONLY|Rotation=225.000|XOffset=0mil|YOffset=0mil|HoleType=Round|Shape=Rectangle|*
%AMROTATEDRECTD24*
4,1,4,-0.02088,0.04872,0.04872,-0.02088,0.02088,-0.04872,-0.04872,0.02088,-0.02088,0.04872,0.0*
%
%ADD24ROTATEDRECTD24*%

%ADD25R,0.08661X0.02362*%
%ADD26R,0.01772X0.01969*%
%ADD27R,0.07874X0.04724*%
%ADD28R,0.08000X0.04000*%
%ADD29R,0.09000X0.12000*%
%ADD30R,0.04331X0.05906*%
%ADD31R,0.01575X0.05315*%
%ADD32R,0.06000X0.05000*%
%ADD33R,0.11024X0.05906*%
%ADD34R,0.10630X0.05906*%
%ADD35R,0.09055X0.07087*%
%ADD36R,0.03150X0.03543*%
%ADD37R,0.07874X0.02362*%
%ADD38R,0.03937X0.03543*%
%ADD39R,0.04000X0.03200*%
%ADD40C,0.00906*%
%ADD41R,0.01969X0.00984*%
%ADD42R,0.00984X0.01969*%
%ADD43R,0.03543X0.03937*%
%ADD44R,0.05315X0.01575*%
%ADD45R,0.03937X0.03937*%
%ADD46R,0.05906X0.10630*%
%ADD47R,0.05000X0.06000*%
%ADD48C,0.01000*%
%ADD49C,0.03000*%
%ADD50C,0.02000*%
%ADD51C,0.00500*%
%ADD52C,0.00800*%
%ADD53C,0.00900*%
%ADD54C,0.00600*%
%ADD55C,0.04000*%
%ADD56C,0.00610*%
%ADD57C,0.01600*%
%ADD58R,0.09000X0.05500*%
%ADD59R,0.11400X0.05400*%
%ADD60R,0.24300X0.08400*%
%ADD61R,0.23700X0.05006*%
%ADD62C,0.00394*%
%ADD63C,0.00197*%
%ADD64O,0.06299X0.07874*%
%ADD65R,0.09449X0.07480*%
%ADD66C,0.05709*%
%ADD67O,0.07087X0.05906*%
%ADD68R,0.07087X0.05906*%
%ADD69C,0.05906*%
%ADD70R,0.05906X0.05906*%
%ADD71R,0.05906X0.05906*%
%ADD72C,0.12598*%
%ADD73C,0.01500*%
%ADD74C,0.01600*%
%ADD75C,0.02000*%
%ADD76R,0.01181X0.01772*%
%ADD77R,0.03000X0.03000*%
%ADD78R,0.01181X0.03150*%
%ADD79C,0.01260*%
%ADD80R,0.03200X0.04000*%
%ADD81C,0.00984*%
%ADD82C,0.00787*%
%ADD83C,0.00050*%
%ADD84C,0.01200*%
%ADD85C,0.00300*%
%ADD86C,0.00120*%
%ADD87R,0.00730X0.02560*%
%ADD88R,0.06700X0.01800*%
%ADD89R,0.00650X0.02300*%
%ADD90R,0.03000X0.13551*%
%ADD91R,0.02300X0.00650*%
%ADD92R,0.01800X0.06700*%
%ADD93R,0.02560X0.00730*%
%ADD94R,0.02375X0.06115*%
%ADD95R,0.07887X0.08280*%
%ADD96R,0.06706X0.08280*%
%ADD97C,0.04737*%
%ADD98R,0.05524X0.03162*%
%ADD99R,0.04737X0.01587*%
%ADD100R,0.01587X0.04737*%
%ADD101R,0.04737X0.07887*%
%ADD102R,0.03162X0.05131*%
%ADD103R,0.02400X0.03800*%
%ADD104R,0.07296X0.01981*%
%ADD105R,0.01981X0.07296*%
G04:AMPARAMS|DCode=106|XSize=47.37mil|YSize=106.42mil|CornerRadius=0mil|HoleSize=0mil|Usage=FLASHONLY|Rotation=135.000|XOffset=0mil|YOffset=0mil|HoleType=Round|Shape=Rectangle|*
%AMROTATEDRECTD106*
4,1,4,0.05438,0.02088,-0.02088,-0.05438,-0.05438,-0.02088,0.02088,0.05438,0.05438,0.02088,0.0*
%
%ADD106ROTATEDRECTD106*%

G04:AMPARAMS|DCode=107|XSize=47.37mil|YSize=106.42mil|CornerRadius=0mil|HoleSize=0mil|Usage=FLASHONLY|Rotation=225.000|XOffset=0mil|YOffset=0mil|HoleType=Round|Shape=Rectangle|*
%AMROTATEDRECTD107*
4,1,4,-0.02088,0.05438,0.05438,-0.02088,0.02088,-0.05438,-0.05438,0.02088,-0.02088,0.05438,0.0*
%
%ADD107ROTATEDRECTD107*%

%ADD108R,0.09461X0.03162*%
%ADD109R,0.02572X0.02769*%
%ADD110R,0.08674X0.05524*%
%ADD111R,0.08800X0.04800*%
%ADD112R,0.09800X0.12800*%
%ADD113R,0.05131X0.06706*%
%ADD114R,0.02375X0.06115*%
%ADD115R,0.06800X0.05800*%
%ADD116R,0.11824X0.06706*%
%ADD117R,0.11430X0.06706*%
%ADD118R,0.09855X0.07887*%
%ADD119R,0.03950X0.04343*%
%ADD120R,0.08674X0.03162*%
%ADD121R,0.04737X0.04343*%
%ADD122R,0.04800X0.04000*%
%ADD123C,0.01706*%
%ADD124R,0.02769X0.01784*%
%ADD125R,0.01784X0.02769*%
%ADD126R,0.04343X0.04737*%
%ADD127R,0.06115X0.02375*%
%ADD128R,0.06706X0.11430*%
%ADD129R,0.05800X0.06800*%
%ADD130O,0.07099X0.08674*%
%ADD131R,0.10249X0.08280*%
%ADD132C,0.06509*%
%ADD133O,0.07887X0.06706*%
%ADD134R,0.07887X0.06706*%
%ADD135C,0.06706*%
%ADD136R,0.06706X0.06706*%
%ADD137R,0.06706X0.06706*%
%ADD138C,0.13398*%
%ADD139R,0.01981X0.02572*%
%ADD140R,0.03800X0.03800*%
%ADD141R,0.01981X0.03950*%
%ADD142C,0.02060*%
%ADD143R,0.04000X0.04800*%
G36*
X81400Y10200D02*
X79000Y12600D01*
X76600Y10200D01*
Y14000D01*
X81400D01*
Y10200D01*
D02*
G37*
G36*
X127875Y14800D02*
X130275Y12400D01*
X126475D01*
Y14800D01*
Y17200D01*
X130275D01*
X127875Y14800D01*
D02*
G37*
G36*
X131475Y12400D02*
X130475D01*
X128075Y14800D01*
X130475Y17200D01*
X131475D01*
Y12400D01*
D02*
G37*
G36*
X81400Y10000D02*
Y9000D01*
X76600D01*
Y10000D01*
X79000Y12400D01*
X81400Y10000D01*
D02*
G37*
G36*
X54900Y10100D02*
X52500Y12500D01*
X50100Y10100D01*
Y13900D01*
X54900D01*
Y10100D01*
D02*
G37*
G36*
X61000Y10200D02*
X58600Y12600D01*
X56200Y10200D01*
Y14000D01*
X61000D01*
Y10200D01*
D02*
G37*
G36*
X49200Y24550D02*
X44400D01*
Y28350D01*
X46800Y25950D01*
X49200Y28350D01*
Y24550D01*
D02*
G37*
G36*
X55100D02*
X50300D01*
Y28350D01*
X52700Y25950D01*
X55100Y28350D01*
Y24550D01*
D02*
G37*
G36*
X61000D02*
X56200D01*
Y28350D01*
X58600Y25950D01*
X61000Y28350D01*
Y24550D01*
D02*
G37*
G36*
X31500D02*
X26700D01*
Y28350D01*
X29100Y25950D01*
X31500Y28350D01*
Y24550D01*
D02*
G37*
G36*
X37400D02*
X32600D01*
Y28350D01*
X35000Y25950D01*
X37400Y28350D01*
Y24550D01*
D02*
G37*
G36*
X43300D02*
X38500D01*
Y28350D01*
X40900Y25950D01*
X43300Y28350D01*
Y24550D01*
D02*
G37*
G36*
X61000Y10000D02*
Y9000D01*
X56200D01*
Y10000D01*
X58600Y12400D01*
X61000Y10000D01*
D02*
G37*
G36*
X104800Y975D02*
X100000D01*
Y4775D01*
X102400Y2375D01*
X104800Y4775D01*
Y975D01*
D02*
G37*
G36*
Y4975D02*
X102400Y2575D01*
X100000Y4975D01*
Y5975D01*
X104800D01*
Y4975D01*
D02*
G37*
G36*
X26225Y5500D02*
X23825Y3100D01*
X22825D01*
Y7900D01*
X23825D01*
X26225Y5500D01*
D02*
G37*
G36*
X27825Y-4600D02*
Y-7000D01*
X24025D01*
X26425Y-4600D01*
X24025Y-2200D01*
X27825D01*
Y-4600D01*
D02*
G37*
G36*
X167225Y-100D02*
X164825Y-2500D01*
X163825D01*
Y2300D01*
X164825D01*
X167225Y-100D01*
D02*
G37*
G36*
X168825D02*
Y-2500D01*
X165025D01*
X167425Y-100D01*
X165025Y2300D01*
X168825D01*
Y-100D01*
D02*
G37*
G36*
X167225Y10000D02*
X164825Y7600D01*
X163825D01*
Y12400D01*
X164825D01*
X167225Y10000D01*
D02*
G37*
G36*
X168825D02*
Y7600D01*
X165025D01*
X167425Y10000D01*
X165025Y12400D01*
X168825D01*
Y10000D01*
D02*
G37*
G36*
X54900Y9900D02*
Y8900D01*
X50100D01*
Y9900D01*
X52500Y12300D01*
X54900Y9900D01*
D02*
G37*
G36*
X27825Y5500D02*
Y3100D01*
X24025D01*
X26425Y5500D01*
X24025Y7900D01*
X27825D01*
Y5500D01*
D02*
G37*
G36*
X150600Y4100D02*
Y3100D01*
X145800D01*
Y4100D01*
X148200Y6500D01*
X150600Y4100D01*
D02*
G37*
G36*
Y4300D02*
X148200Y6700D01*
X145800Y4300D01*
Y8100D01*
X150600D01*
Y4300D01*
D02*
G37*
G36*
X31500Y28550D02*
X29100Y26150D01*
X26700Y28550D01*
Y29550D01*
X31500D01*
Y28550D01*
D02*
G37*
G36*
X37400Y42450D02*
X32600D01*
Y46250D01*
X35000Y43850D01*
X37400Y46250D01*
Y42450D01*
D02*
G37*
G36*
X43300D02*
X38500D01*
Y46250D01*
X40900Y43850D01*
X43300Y46250D01*
Y42450D01*
D02*
G37*
G36*
X49200D02*
X44400D01*
Y46250D01*
X46800Y43850D01*
X49200Y46250D01*
Y42450D01*
D02*
G37*
G36*
X148125Y43300D02*
X145725Y40900D01*
X144725D01*
Y45700D01*
X145725D01*
X148125Y43300D01*
D02*
G37*
G36*
X149725D02*
Y40900D01*
X145925D01*
X148325Y43300D01*
X145925Y45700D01*
X149725D01*
Y43300D01*
D02*
G37*
G36*
X31500Y42450D02*
X26700D01*
Y46250D01*
X29100Y43850D01*
X31500Y46250D01*
Y42450D01*
D02*
G37*
G36*
X37400Y46450D02*
X35000Y44050D01*
X32600Y46450D01*
Y47450D01*
X37400D01*
Y46450D01*
D02*
G37*
G36*
X43300D02*
X40900Y44050D01*
X38500Y46450D01*
Y47450D01*
X43300D01*
Y46450D01*
D02*
G37*
G36*
X49200D02*
X46800Y44050D01*
X44400Y46450D01*
Y47450D01*
X49200D01*
Y46450D01*
D02*
G37*
G36*
X55053Y42450D02*
X50253D01*
Y46250D01*
X52653Y43850D01*
X55053Y46250D01*
Y42450D01*
D02*
G37*
G36*
X60930D02*
X56130D01*
Y46250D01*
X58530Y43850D01*
X60930Y46250D01*
Y42450D01*
D02*
G37*
G36*
X31500Y46450D02*
X29100Y44050D01*
X26700Y46450D01*
Y47450D01*
X31500D01*
Y46450D01*
D02*
G37*
G36*
X109670Y29325D02*
X107270Y31725D01*
X104870Y29325D01*
Y33125D01*
X109670D01*
Y29325D01*
D02*
G37*
G36*
X55100Y28550D02*
X52700Y26150D01*
X50300Y28550D01*
Y29550D01*
X55100D01*
Y28550D01*
D02*
G37*
G36*
X61000D02*
X58600Y26150D01*
X56200Y28550D01*
Y29550D01*
X61000D01*
Y28550D01*
D02*
G37*
G36*
X80400Y29125D02*
Y28125D01*
X75600D01*
Y29125D01*
X78000Y31525D01*
X80400Y29125D01*
D02*
G37*
G36*
X37400Y28550D02*
X35000Y26150D01*
X32600Y28550D01*
Y29550D01*
X37400D01*
Y28550D01*
D02*
G37*
G36*
X43300D02*
X40900Y26150D01*
X38500Y28550D01*
Y29550D01*
X43300D01*
Y28550D01*
D02*
G37*
G36*
X49200D02*
X46800Y26150D01*
X44400Y28550D01*
Y29550D01*
X49200D01*
Y28550D01*
D02*
G37*
G36*
X80400Y29325D02*
X78000Y31725D01*
X75600Y29325D01*
Y33125D01*
X80400D01*
Y29325D01*
D02*
G37*
G36*
X86300D02*
X83900Y31725D01*
X81500Y29325D01*
Y33125D01*
X86300D01*
Y29325D01*
D02*
G37*
G36*
X103770D02*
X101370Y31725D01*
X98970Y29325D01*
Y33125D01*
X103770D01*
Y29325D01*
D02*
G37*
G36*
X86300Y29125D02*
Y28125D01*
X81500D01*
Y29125D01*
X83900Y31525D01*
X86300Y29125D01*
D02*
G37*
G36*
X103770D02*
Y28125D01*
X98970D01*
Y29125D01*
X101370Y31525D01*
X103770Y29125D01*
D02*
G37*
G36*
X109670D02*
Y28125D01*
X104870D01*
Y29125D01*
X107270Y31525D01*
X109670Y29125D01*
D02*
G37*
G36*
X186850Y-144200D02*
X189250Y-146600D01*
X185450D01*
Y-144200D01*
Y-141800D01*
X189250D01*
X186850Y-144200D01*
D02*
G37*
G36*
X190450Y-146600D02*
X189450D01*
X187050Y-144200D01*
X189450Y-141800D01*
X190450D01*
Y-146600D01*
D02*
G37*
G36*
X3900Y-139900D02*
X1500Y-142300D01*
X500D01*
Y-137500D01*
X1500D01*
X3900Y-139900D01*
D02*
G37*
G36*
X190700Y-150100D02*
Y-152500D01*
X186900D01*
X189300Y-150100D01*
X186900Y-147700D01*
X190700D01*
Y-150100D01*
D02*
G37*
G36*
X3900Y-149900D02*
X1500Y-152300D01*
X500D01*
Y-147500D01*
X1500D01*
X3900Y-149900D01*
D02*
G37*
G36*
X5500D02*
Y-152300D01*
X1700D01*
X4100Y-149900D01*
X1700Y-147500D01*
X5500D01*
Y-149900D01*
D02*
G37*
G36*
X165175Y-85900D02*
X167575Y-88300D01*
X163775D01*
Y-85900D01*
Y-83500D01*
X167575D01*
X165175Y-85900D01*
D02*
G37*
G36*
X168775Y-88300D02*
X167775D01*
X165375Y-85900D01*
X167775Y-83500D01*
X168775D01*
Y-88300D01*
D02*
G37*
G36*
X167425Y-80000D02*
X165025Y-82400D01*
X164025D01*
Y-77600D01*
X165025D01*
X167425Y-80000D01*
D02*
G37*
G36*
X5500Y-139900D02*
Y-142300D01*
X1700D01*
X4100Y-139900D01*
X1700Y-137500D01*
X5500D01*
Y-139900D01*
D02*
G37*
G36*
X1650Y-133900D02*
X4050Y-136300D01*
X250D01*
Y-133900D01*
Y-131500D01*
X4050D01*
X1650Y-133900D01*
D02*
G37*
G36*
X5250Y-136300D02*
X4250D01*
X1850Y-133900D01*
X4250Y-131500D01*
X5250D01*
Y-136300D01*
D02*
G37*
G36*
X189100Y-150100D02*
X186700Y-152500D01*
X185700D01*
Y-147700D01*
X186700D01*
X189100Y-150100D01*
D02*
G37*
G36*
X122400Y-175025D02*
X117600D01*
Y-171225D01*
X120000Y-173625D01*
X122400Y-171225D01*
Y-175025D01*
D02*
G37*
G36*
X134400D02*
X129600D01*
Y-171225D01*
X132000Y-173625D01*
X134400Y-171225D01*
Y-175025D01*
D02*
G37*
G36*
X140300D02*
X135500D01*
Y-171225D01*
X137900Y-173625D01*
X140300Y-171225D01*
Y-175025D01*
D02*
G37*
G36*
X1575Y-174100D02*
X3975Y-176500D01*
X175D01*
Y-174100D01*
Y-171700D01*
X3975D01*
X1575Y-174100D01*
D02*
G37*
G36*
X5175Y-176500D02*
X4175D01*
X1775Y-174100D01*
X4175Y-171700D01*
X5175D01*
Y-176500D01*
D02*
G37*
G36*
X116500Y-173769D02*
Y-174769D01*
X111700D01*
Y-173769D01*
X114100Y-171369D01*
X116500Y-173769D01*
D02*
G37*
G36*
X140300Y-171025D02*
X137900Y-173425D01*
X135500Y-171025D01*
Y-170025D01*
X140300D01*
Y-171025D01*
D02*
G37*
G36*
X3900Y-159900D02*
X1500Y-162300D01*
X500D01*
Y-157500D01*
X1500D01*
X3900Y-159900D01*
D02*
G37*
G36*
X5500D02*
Y-162300D01*
X1700D01*
X4100Y-159900D01*
X1700Y-157500D01*
X5500D01*
Y-159900D01*
D02*
G37*
G36*
X116500Y-173569D02*
X114100Y-171169D01*
X111700Y-173569D01*
Y-169769D01*
X116500D01*
Y-173569D01*
D02*
G37*
G36*
X122400Y-171025D02*
X120000Y-173425D01*
X117600Y-171025D01*
Y-170025D01*
X122400D01*
Y-171025D01*
D02*
G37*
G36*
X134400D02*
X132000Y-173425D01*
X129600Y-171025D01*
Y-170025D01*
X134400D01*
Y-171025D01*
D02*
G37*
G36*
X169025Y-80000D02*
Y-82400D01*
X165225D01*
X167625Y-80000D01*
X165225Y-77600D01*
X169025D01*
Y-80000D01*
D02*
G37*
G36*
X121200Y-23275D02*
Y-24275D01*
X116400D01*
Y-23275D01*
X118800Y-20875D01*
X121200Y-23275D01*
D02*
G37*
G36*
X143100D02*
Y-24275D01*
X138300D01*
Y-23275D01*
X140700Y-20875D01*
X143100Y-23275D01*
D02*
G37*
G36*
X150700D02*
Y-24275D01*
X145900D01*
Y-23275D01*
X148300Y-20875D01*
X150700Y-23275D01*
D02*
G37*
G36*
X169025Y-40000D02*
Y-42400D01*
X165225D01*
X167625Y-40000D01*
X165225Y-37600D01*
X169025D01*
Y-40000D01*
D02*
G37*
G36*
X167425Y-30000D02*
X165025Y-32400D01*
X164025D01*
Y-27600D01*
X165025D01*
X167425Y-30000D01*
D02*
G37*
G36*
X169025D02*
Y-32400D01*
X165225D01*
X167625Y-30000D01*
X165225Y-27600D01*
X169025D01*
Y-30000D01*
D02*
G37*
G36*
X167425Y-20000D02*
X165025Y-22400D01*
X164025D01*
Y-17600D01*
X165025D01*
X167425Y-20000D01*
D02*
G37*
G36*
X169025D02*
Y-22400D01*
X165225D01*
X167625Y-20000D01*
X165225Y-17600D01*
X169025D01*
Y-20000D01*
D02*
G37*
G36*
X26225Y-4600D02*
X23825Y-7000D01*
X22825D01*
Y-2200D01*
X23825D01*
X26225Y-4600D01*
D02*
G37*
G36*
X121200Y-23075D02*
X118800Y-20675D01*
X116400Y-23075D01*
Y-19275D01*
X121200D01*
Y-23075D01*
D02*
G37*
G36*
X143100D02*
X140700Y-20675D01*
X138300Y-23075D01*
Y-19275D01*
X143100D01*
Y-23075D01*
D02*
G37*
G36*
X150700D02*
X148300Y-20675D01*
X145900Y-23075D01*
Y-19275D01*
X150700D01*
Y-23075D01*
D02*
G37*
G36*
X167425Y-40000D02*
X165025Y-42400D01*
X164025D01*
Y-37600D01*
X165025D01*
X167425Y-40000D01*
D02*
G37*
G36*
X169025Y-74100D02*
Y-76500D01*
X165225D01*
X167625Y-74100D01*
X165225Y-71700D01*
X169025D01*
Y-74100D01*
D02*
G37*
G36*
X165200Y-67700D02*
X167600Y-70100D01*
X163800D01*
Y-67700D01*
Y-65300D01*
X167600D01*
X165200Y-67700D01*
D02*
G37*
G36*
X168800Y-70100D02*
X167800D01*
X165400Y-67700D01*
X167800Y-65300D01*
X168800D01*
Y-70100D01*
D02*
G37*
G36*
X154525Y-74200D02*
X152125Y-76600D01*
X151125D01*
Y-71800D01*
X152125D01*
X154525Y-74200D01*
D02*
G37*
G36*
X156125D02*
Y-76600D01*
X152325D01*
X154725Y-74200D01*
X152325Y-71800D01*
X156125D01*
Y-74200D01*
D02*
G37*
G36*
X167425Y-74100D02*
X165025Y-76500D01*
X164025D01*
Y-71700D01*
X165025D01*
X167425Y-74100D01*
D02*
G37*
G36*
X169025Y-51800D02*
Y-54200D01*
X165225D01*
X167625Y-51800D01*
X165225Y-49400D01*
X169025D01*
Y-51800D01*
D02*
G37*
G36*
X165175Y-45900D02*
X167575Y-48300D01*
X163775D01*
Y-45900D01*
Y-43500D01*
X167575D01*
X165175Y-45900D01*
D02*
G37*
G36*
X168775Y-48300D02*
X167775D01*
X165375Y-45900D01*
X167775Y-43500D01*
X168775D01*
Y-48300D01*
D02*
G37*
G36*
X165175Y-57700D02*
X167575Y-60100D01*
X163775D01*
Y-57700D01*
Y-55300D01*
X167575D01*
X165175Y-57700D01*
D02*
G37*
G36*
X168775Y-60100D02*
X167775D01*
X165375Y-57700D01*
X167775Y-55300D01*
X168775D01*
Y-60100D01*
D02*
G37*
G36*
X167425Y-51800D02*
X165025Y-54200D01*
X164025D01*
Y-49400D01*
X165025D01*
X167425Y-51800D01*
D02*
G37*
G36*
X55960Y149208D02*
X51160D01*
Y153008D01*
X53560Y150608D01*
X55960Y153008D01*
Y149208D01*
D02*
G37*
G36*
X50100Y150625D02*
X47700Y153025D01*
X45300Y150625D01*
Y154425D01*
X50100D01*
Y150625D01*
D02*
G37*
G36*
X61860Y150658D02*
X59460Y153058D01*
X57060Y150658D01*
Y154458D01*
X61860D01*
Y150658D01*
D02*
G37*
G36*
X92379Y149175D02*
X87579D01*
Y152975D01*
X89979Y150575D01*
X92379Y152975D01*
Y149175D01*
D02*
G37*
G36*
X98400D02*
X93600D01*
Y152975D01*
X96000Y150575D01*
X98400Y152975D01*
Y149175D01*
D02*
G37*
G36*
X67800Y149200D02*
X63000D01*
Y153000D01*
X65400Y150600D01*
X67800Y153000D01*
Y149200D01*
D02*
G37*
G36*
X98400Y153175D02*
X96000Y150775D01*
X93600Y153175D01*
Y154175D01*
X98400D01*
Y153175D01*
D02*
G37*
G36*
X67800Y153200D02*
X65400Y150800D01*
X63000Y153200D01*
Y154200D01*
X67800D01*
Y153200D01*
D02*
G37*
G36*
X55960Y153208D02*
X53560Y150808D01*
X51160Y153208D01*
Y154208D01*
X55960D01*
Y153208D01*
D02*
G37*
G36*
X28200Y153175D02*
X25800Y150775D01*
X23400Y153175D01*
Y154175D01*
X28200D01*
Y153175D01*
D02*
G37*
G36*
X44030D02*
X41630Y150775D01*
X39230Y153175D01*
Y154175D01*
X44030D01*
Y153175D01*
D02*
G37*
G36*
X92379D02*
X89979Y150775D01*
X87579Y153175D01*
Y154175D01*
X92379D01*
Y153175D01*
D02*
G37*
G36*
X44030Y149175D02*
X39230D01*
Y152975D01*
X41630Y150575D01*
X44030Y152975D01*
Y149175D01*
D02*
G37*
G36*
X165000Y144600D02*
X167400Y142200D01*
X163600D01*
Y144600D01*
Y147000D01*
X167400D01*
X165000Y144600D01*
D02*
G37*
G36*
X168600Y142200D02*
X167600D01*
X165200Y144600D01*
X167600Y147000D01*
X168600D01*
Y142200D01*
D02*
G37*
G36*
X82900Y144100D02*
Y143100D01*
X78100D01*
Y144100D01*
X80500Y146500D01*
X82900Y144100D01*
D02*
G37*
G36*
Y132525D02*
X80500Y134925D01*
X78100Y132525D01*
Y136325D01*
X82900D01*
Y132525D01*
D02*
G37*
G36*
X167225Y138700D02*
X164825Y136300D01*
X163825D01*
Y141100D01*
X164825D01*
X167225Y138700D01*
D02*
G37*
G36*
X168825D02*
Y136300D01*
X165025D01*
X167425Y138700D01*
X165025Y141100D01*
X168825D01*
Y138700D01*
D02*
G37*
G36*
X50100Y150425D02*
Y149425D01*
X45300D01*
Y150425D01*
X47700Y152825D01*
X50100Y150425D01*
D02*
G37*
G36*
X61860Y150458D02*
Y149458D01*
X57060D01*
Y150458D01*
X59460Y152858D01*
X61860Y150458D01*
D02*
G37*
G36*
X28200Y149175D02*
X23400D01*
Y152975D01*
X25800Y150575D01*
X28200Y152975D01*
Y149175D01*
D02*
G37*
G36*
X82900Y144300D02*
X80500Y146700D01*
X78100Y144300D01*
Y148100D01*
X82900D01*
Y144300D01*
D02*
G37*
G36*
X167250Y150600D02*
X164850Y148200D01*
X163850D01*
Y153000D01*
X164850D01*
X167250Y150600D01*
D02*
G37*
G36*
X168850D02*
Y148200D01*
X165050D01*
X167450Y150600D01*
X165050Y153000D01*
X168850D01*
Y150600D01*
D02*
G37*
G36*
X-1600Y157700D02*
X800Y155300D01*
X-3000D01*
Y157700D01*
Y160100D01*
X800D01*
X-1600Y157700D01*
D02*
G37*
G36*
X45025Y270000D02*
Y267600D01*
X41225D01*
X43625Y270000D01*
X41225Y272400D01*
X45025D01*
Y270000D01*
D02*
G37*
G36*
X18625Y280000D02*
X16225Y277600D01*
X15225D01*
Y282400D01*
X16225D01*
X18625Y280000D01*
D02*
G37*
G36*
X20225D02*
Y277600D01*
X16425D01*
X18825Y280000D01*
X16425Y282400D01*
X20225D01*
Y280000D01*
D02*
G37*
G36*
X18625Y270000D02*
X16225Y267600D01*
X15225D01*
Y272400D01*
X16225D01*
X18625Y270000D01*
D02*
G37*
G36*
X20225D02*
Y267600D01*
X16425D01*
X18825Y270000D01*
X16425Y272400D01*
X20225D01*
Y270000D01*
D02*
G37*
G36*
X43425D02*
X41025Y267600D01*
X40025D01*
Y272400D01*
X41025D01*
X43425Y270000D01*
D02*
G37*
G36*
X20225Y290000D02*
Y287600D01*
X16425D01*
X18825Y290000D01*
X16425Y292400D01*
X20225D01*
Y290000D01*
D02*
G37*
G36*
X43425D02*
X41025Y287600D01*
X40025D01*
Y292400D01*
X41025D01*
X43425Y290000D01*
D02*
G37*
G36*
X45025D02*
Y287600D01*
X41225D01*
X43625Y290000D01*
X41225Y292400D01*
X45025D01*
Y290000D01*
D02*
G37*
G36*
X43425Y280000D02*
X41025Y277600D01*
X40025D01*
Y282400D01*
X41025D01*
X43425Y280000D01*
D02*
G37*
G36*
X45025D02*
Y277600D01*
X41225D01*
X43625Y280000D01*
X41225Y282400D01*
X45025D01*
Y280000D01*
D02*
G37*
G36*
X18625Y290000D02*
X16225Y287600D01*
X15225D01*
Y292400D01*
X16225D01*
X18625Y290000D01*
D02*
G37*
G36*
X45025Y260000D02*
Y257600D01*
X41225D01*
X43625Y260000D01*
X41225Y262400D01*
X45025D01*
Y260000D01*
D02*
G37*
G36*
X-1600Y169500D02*
X800Y167100D01*
X-3000D01*
Y169500D01*
Y171900D01*
X800D01*
X-1600Y169500D01*
D02*
G37*
G36*
X2000Y167100D02*
X1000D01*
X-1400Y169500D01*
X1000Y171900D01*
X2000D01*
Y167100D01*
D02*
G37*
G36*
X123400Y219600D02*
Y218600D01*
X118600D01*
Y219600D01*
X121000Y222000D01*
X123400Y219600D01*
D02*
G37*
G36*
X2000Y155300D02*
X1000D01*
X-1400Y157700D01*
X1000Y160100D01*
X2000D01*
Y155300D01*
D02*
G37*
G36*
X-1600Y163600D02*
X800Y161200D01*
X-3000D01*
Y163600D01*
Y166000D01*
X800D01*
X-1600Y163600D01*
D02*
G37*
G36*
X2000Y161200D02*
X1000D01*
X-1400Y163600D01*
X1000Y166000D01*
X2000D01*
Y161200D01*
D02*
G37*
G36*
X18625Y260000D02*
X16225Y257600D01*
X15225D01*
Y262400D01*
X16225D01*
X18625Y260000D01*
D02*
G37*
G36*
X20225D02*
Y257600D01*
X16425D01*
X18825Y260000D01*
X16425Y262400D01*
X20225D01*
Y260000D01*
D02*
G37*
G36*
X43425D02*
X41025Y257600D01*
X40025D01*
Y262400D01*
X41025D01*
X43425Y260000D01*
D02*
G37*
G36*
X129600Y219600D02*
Y218600D01*
X124800D01*
Y219600D01*
X127200Y222000D01*
X129600Y219600D01*
D02*
G37*
G36*
X123400Y219800D02*
X121000Y222200D01*
X118600Y219800D01*
Y223600D01*
X123400D01*
Y219800D01*
D02*
G37*
G36*
X129600D02*
X127200Y222200D01*
X124800Y219800D01*
Y223600D01*
X129600D01*
Y219800D01*
D02*
G37*
G36*
X69257Y81100D02*
Y80100D01*
X64457D01*
Y81100D01*
X66857Y83500D01*
X69257Y81100D01*
D02*
G37*
G36*
X75200D02*
Y80100D01*
X70400D01*
Y81100D01*
X72800Y83500D01*
X75200Y81100D01*
D02*
G37*
G36*
X69257Y81300D02*
X66857Y83700D01*
X64457Y81300D01*
Y85100D01*
X69257D01*
Y81300D01*
D02*
G37*
G36*
X60953Y60725D02*
X58553Y63125D01*
X56153Y60725D01*
Y64525D01*
X60953D01*
Y60725D01*
D02*
G37*
G36*
X43300Y71075D02*
X38500D01*
Y74875D01*
X40900Y72475D01*
X43300Y74875D01*
Y71075D01*
D02*
G37*
G36*
Y75075D02*
X40900Y72675D01*
X38500Y75075D01*
Y76075D01*
X43300D01*
Y75075D01*
D02*
G37*
G36*
X167225Y86000D02*
X164825Y83600D01*
X163825D01*
Y88400D01*
X164825D01*
X167225Y86000D01*
D02*
G37*
G36*
X168825D02*
Y83600D01*
X165025D01*
X167425Y86000D01*
X165025Y88400D01*
X168825D01*
Y86000D01*
D02*
G37*
G36*
X37400Y87825D02*
Y86825D01*
X32600D01*
Y87825D01*
X35000Y90225D01*
X37400Y87825D01*
D02*
G37*
G36*
X75200Y81300D02*
X72800Y83700D01*
X70400Y81300D01*
Y85100D01*
X75200D01*
Y81300D01*
D02*
G37*
G36*
X150925Y84600D02*
X148525Y82200D01*
X147525D01*
Y87000D01*
X148525D01*
X150925Y84600D01*
D02*
G37*
G36*
X152525D02*
Y82200D01*
X148725D01*
X151125Y84600D01*
X148725Y87000D01*
X152525D01*
Y84600D01*
D02*
G37*
G36*
X55053Y60725D02*
X52653Y63125D01*
X50253Y60725D01*
Y64525D01*
X55053D01*
Y60725D01*
D02*
G37*
G36*
X31453Y60500D02*
Y59500D01*
X26653D01*
Y60500D01*
X29053Y62900D01*
X31453Y60500D01*
D02*
G37*
G36*
X37353D02*
Y59500D01*
X32553D01*
Y60500D01*
X34953Y62900D01*
X37353Y60500D01*
D02*
G37*
G36*
X49153Y60525D02*
Y59525D01*
X44353D01*
Y60525D01*
X46753Y62925D01*
X49153Y60525D01*
D02*
G37*
G36*
X55053Y46450D02*
X52653Y44050D01*
X50253Y46450D01*
Y47450D01*
X55053D01*
Y46450D01*
D02*
G37*
G36*
X60930D02*
X58530Y44050D01*
X56130Y46450D01*
Y47450D01*
X60930D01*
Y46450D01*
D02*
G37*
G36*
X43253Y60498D02*
Y59498D01*
X38453D01*
Y60498D01*
X40853Y62898D01*
X43253Y60498D01*
D02*
G37*
G36*
X31453Y60700D02*
X29053Y63100D01*
X26653Y60700D01*
Y64500D01*
X31453D01*
Y60700D01*
D02*
G37*
G36*
X37353D02*
X34953Y63100D01*
X32553Y60700D01*
Y64500D01*
X37353D01*
Y60700D01*
D02*
G37*
G36*
X49153Y60725D02*
X46753Y63125D01*
X44353Y60725D01*
Y64525D01*
X49153D01*
Y60725D01*
D02*
G37*
G36*
X55053Y60525D02*
Y59525D01*
X50253D01*
Y60525D01*
X52653Y62925D01*
X55053Y60525D01*
D02*
G37*
G36*
X60953D02*
Y59525D01*
X56153D01*
Y60525D01*
X58553Y62925D01*
X60953Y60525D01*
D02*
G37*
G36*
X43253Y60698D02*
X40853Y63098D01*
X38453Y60698D01*
Y64498D01*
X43253D01*
Y60698D01*
D02*
G37*
G36*
X43300Y87825D02*
Y86825D01*
X38500D01*
Y87825D01*
X40900Y90225D01*
X43300Y87825D01*
D02*
G37*
G36*
X167225Y124000D02*
X164825Y121600D01*
X163825D01*
Y126400D01*
X164825D01*
X167225Y124000D01*
D02*
G37*
G36*
X168825D02*
Y121600D01*
X165025D01*
X167425Y124000D01*
X165025Y126400D01*
X168825D01*
Y124000D01*
D02*
G37*
G36*
X167225Y129900D02*
X164825Y127500D01*
X163825D01*
Y132300D01*
X164825D01*
X167225Y129900D01*
D02*
G37*
G36*
X128500Y114100D02*
X126100Y116500D01*
X123700Y114100D01*
Y117900D01*
X128500D01*
Y114100D01*
D02*
G37*
G36*
X97700Y114125D02*
X95300Y116525D01*
X92900Y114125D01*
Y117925D01*
X97700D01*
Y114125D01*
D02*
G37*
G36*
X103600D02*
X101200Y116525D01*
X98800Y114125D01*
Y117925D01*
X103600D01*
Y114125D01*
D02*
G37*
G36*
X28200Y132325D02*
Y131325D01*
X23400D01*
Y132325D01*
X25800Y134725D01*
X28200Y132325D01*
D02*
G37*
G36*
X82900D02*
Y131325D01*
X78100D01*
Y132325D01*
X80500Y134725D01*
X82900Y132325D01*
D02*
G37*
G36*
X28200Y132525D02*
X25800Y134925D01*
X23400Y132525D01*
Y136325D01*
X28200D01*
Y132525D01*
D02*
G37*
G36*
X168825Y129900D02*
Y127500D01*
X165025D01*
X167425Y129900D01*
X165025Y132300D01*
X168825D01*
Y129900D01*
D02*
G37*
G36*
X109647Y126480D02*
X104847D01*
Y130280D01*
X107247Y127881D01*
X109647Y130280D01*
Y126480D01*
D02*
G37*
G36*
Y130481D02*
X107247Y128080D01*
X104847Y130481D01*
Y131481D01*
X109647D01*
Y130481D01*
D02*
G37*
G36*
X80070Y114100D02*
X77670Y116500D01*
X75270Y114100D01*
Y117900D01*
X80070D01*
Y114100D01*
D02*
G37*
G36*
X152525Y90500D02*
Y88100D01*
X148725D01*
X151125Y90500D01*
X148725Y92900D01*
X152525D01*
Y90500D01*
D02*
G37*
G36*
X167225Y96000D02*
X164825Y93600D01*
X163825D01*
Y98400D01*
X164825D01*
X167225Y96000D01*
D02*
G37*
G36*
X168825D02*
Y93600D01*
X165025D01*
X167425Y96000D01*
X165025Y98400D01*
X168825D01*
Y96000D01*
D02*
G37*
G36*
X37400Y88025D02*
X35000Y90425D01*
X32600Y88025D01*
Y91825D01*
X37400D01*
Y88025D01*
D02*
G37*
G36*
X43300D02*
X40900Y90425D01*
X38500Y88025D01*
Y91825D01*
X43300D01*
Y88025D01*
D02*
G37*
G36*
X150925Y90500D02*
X148525Y88100D01*
X147525D01*
Y92900D01*
X148525D01*
X150925Y90500D01*
D02*
G37*
G36*
X97700Y113925D02*
Y112925D01*
X92900D01*
Y113925D01*
X95300Y116325D01*
X97700Y113925D01*
D02*
G37*
G36*
X103600D02*
Y112925D01*
X98800D01*
Y113925D01*
X101200Y116325D01*
X103600Y113925D01*
D02*
G37*
G36*
X74170Y114100D02*
X71770Y116500D01*
X69370Y114100D01*
Y117900D01*
X74170D01*
Y114100D01*
D02*
G37*
G36*
Y113900D02*
Y112900D01*
X69370D01*
Y113900D01*
X71770Y116300D01*
X74170Y113900D01*
D02*
G37*
G36*
X80070D02*
Y112900D01*
X75270D01*
Y113900D01*
X77670Y116300D01*
X80070Y113900D01*
D02*
G37*
G36*
X128500Y113900D02*
Y112900D01*
X123700D01*
Y113900D01*
X126100Y116300D01*
X128500Y113900D01*
D02*
G37*
D51*
X232796Y297086D02*
G03*
X224921Y304960I-7874J0D01*
G01*
X-34921D02*
G03*
X-42795Y297086I0J-7874D01*
G01*
X106811Y204566D02*
G03*
X106811Y208503I0J1969D01*
G01*
X32008D02*
G03*
X32008Y204566I0J-1969D01*
G01*
X18229D02*
G03*
X18229Y208503I0J1969D01*
G01*
X153858Y204566D02*
G03*
X153858Y208503I0J1969D01*
G01*
X125000Y208503D02*
G03*
X125000Y204566I-0J-1969D01*
G01*
X169803Y208503D02*
G03*
X169803Y204566I0J-1969D01*
G01*
X224921Y-219980D02*
G03*
X232796Y-212106I0J7874D01*
G01*
X-42780Y-212122D02*
G03*
X-34906Y-219996I7874J0D01*
G01*
X-42795Y-212126D02*
Y204567D01*
X232796Y297086D02*
X232796Y297086D01*
Y208503D02*
Y297086D01*
Y-212126D02*
Y204566D01*
X-42795Y208503D02*
Y297086D01*
Y204566D02*
X18229D01*
X-42795Y208503D02*
X18229D01*
X169803D02*
X232796D01*
X169803Y204566D02*
X232796D01*
X32008Y208503D02*
X106811Y208503D01*
X32008Y204566D02*
X106811Y204566D01*
X-34921Y304960D02*
X224921D01*
X125000Y208503D02*
X153858D01*
X125000Y204566D02*
X153858D01*
X-34921Y-220000D02*
X224921D01*
D62*
X71778Y-219968D02*
X84298D01*
Y-212488D01*
X87841D01*
Y-219968D02*
Y-212488D01*
Y-219968D02*
X95400D01*
X102959D01*
Y-212488D01*
X106502D01*
Y-219968D02*
Y-212488D01*
Y-219968D02*
X119022D01*
X161102Y304789D02*
X173622D01*
X161102Y297309D02*
Y304789D01*
X157559Y297309D02*
X161102D01*
X157559D02*
Y304789D01*
X150000D02*
X157559D01*
X142441D02*
X150000D01*
X142441Y297309D02*
Y304789D01*
X138898Y297309D02*
X142441D01*
X138898D02*
Y304789D01*
X126378D02*
X138898D01*
D63*
X128000Y303479D02*
Y304266D01*
X127606D01*
X127475Y304135D01*
Y304003D01*
X127606Y303872D01*
X128000D01*
X127606D01*
X127475Y303741D01*
Y303610D01*
X127606Y303479D01*
X128000D01*
X127082Y304266D02*
X126819D01*
X126688Y304135D01*
Y303872D01*
X126819Y303741D01*
X127082D01*
X127213Y303872D01*
Y304135D01*
X127082Y304266D01*
X126295Y303741D02*
X126032D01*
X125901Y303872D01*
Y304266D01*
X126295D01*
X126426Y304135D01*
X126295Y304003D01*
X125901D01*
X125639Y303741D02*
Y304266D01*
Y304003D01*
X125507Y303872D01*
X125376Y303741D01*
X125245D01*
X124327Y303479D02*
Y304266D01*
X124720D01*
X124851Y304135D01*
Y303872D01*
X124720Y303741D01*
X124327D01*
X122883Y304266D02*
X123146D01*
X123277Y304135D01*
Y303872D01*
X123146Y303741D01*
X122883D01*
X122752Y303872D01*
Y304003D01*
X123277D01*
X121965Y303479D02*
Y304266D01*
X122359D01*
X122490Y304135D01*
Y303872D01*
X122359Y303741D01*
X121965D01*
X121440Y304528D02*
X121309D01*
X121178Y304397D01*
Y303741D01*
X121572D01*
X121703Y303872D01*
Y304135D01*
X121572Y304266D01*
X121178D01*
X120522D02*
X120784D01*
X120916Y304135D01*
Y303872D01*
X120784Y303741D01*
X120522D01*
X120391Y303872D01*
Y304003D01*
X120916D01*
D95*
X162598Y299130D02*
D03*
X137402D02*
D03*
D115*
X118800Y8950D02*
D03*
Y-2050D02*
D03*
X140400Y9200D02*
D03*
Y-1800D02*
D03*
D121*
X31700Y136850D02*
D03*
Y130550D02*
D03*
X74600Y130550D02*
D03*
Y136850D02*
D03*
X31700Y154950D02*
D03*
Y148650D02*
D03*
X126200Y9000D02*
D03*
Y2700D02*
D03*
X101347Y125956D02*
D03*
Y132255D02*
D03*
X73200Y14550D02*
D03*
Y8250D02*
D03*
X132100Y9030D02*
D03*
Y2730D02*
D03*
X92400Y6650D02*
D03*
Y350D02*
D03*
X46800Y92250D02*
D03*
Y85950D02*
D03*
X89400Y112125D02*
D03*
Y118425D02*
D03*
X111400Y112125D02*
D03*
Y118425D02*
D03*
X117300D02*
D03*
Y112125D02*
D03*
X83500D02*
D03*
Y118425D02*
D03*
X60500Y112125D02*
D03*
Y118425D02*
D03*
X54600Y112125D02*
D03*
Y118425D02*
D03*
D122*
X25800Y137075D02*
D03*
Y130325D02*
D03*
X140700Y-25275D02*
D03*
Y-18525D02*
D03*
X148300Y-25275D02*
D03*
Y-18525D02*
D03*
X53560Y155208D02*
D03*
Y148458D02*
D03*
X65400Y155200D02*
D03*
Y148450D02*
D03*
X52500Y7900D02*
D03*
Y14650D02*
D03*
X58600Y8000D02*
D03*
Y14750D02*
D03*
X59460Y148458D02*
D03*
Y155208D02*
D03*
X25800Y155175D02*
D03*
Y148425D02*
D03*
X41630Y155175D02*
D03*
Y148425D02*
D03*
X47700Y148425D02*
D03*
Y155175D02*
D03*
X80500Y130325D02*
D03*
Y137075D02*
D03*
X107247Y132481D02*
D03*
Y125731D02*
D03*
X89979Y155175D02*
D03*
Y148425D02*
D03*
X96000Y155175D02*
D03*
Y148425D02*
D03*
X121000Y217600D02*
D03*
Y224350D02*
D03*
X132000Y-169025D02*
D03*
Y-175775D02*
D03*
X118800Y-25275D02*
D03*
Y-18525D02*
D03*
X40900Y70325D02*
D03*
Y77075D02*
D03*
X127200Y224350D02*
D03*
Y217600D02*
D03*
X35000Y92575D02*
D03*
Y85825D02*
D03*
X72800Y85850D02*
D03*
X66857D02*
D03*
X107270Y33875D02*
D03*
Y27125D02*
D03*
X79000Y14750D02*
D03*
Y8000D02*
D03*
X78000Y33875D02*
D03*
Y27125D02*
D03*
X101370Y33875D02*
D03*
Y27125D02*
D03*
X102400Y225D02*
D03*
Y6975D02*
D03*
X83900Y33875D02*
D03*
Y27125D02*
D03*
X148200Y8850D02*
D03*
Y2100D02*
D03*
X77670Y118650D02*
D03*
Y111900D02*
D03*
X126100Y118650D02*
D03*
Y111900D02*
D03*
X71770Y118650D02*
D03*
Y111900D02*
D03*
X40900Y92575D02*
D03*
Y85825D02*
D03*
X137900Y-175775D02*
D03*
Y-169025D02*
D03*
X120000Y-175775D02*
D03*
Y-169025D02*
D03*
X114100Y-169019D02*
D03*
Y-175769D02*
D03*
X80500Y142100D02*
D03*
Y148850D02*
D03*
X29100Y48450D02*
D03*
Y41700D02*
D03*
X35000Y48450D02*
D03*
Y41700D02*
D03*
X40900Y48450D02*
D03*
Y41700D02*
D03*
X58530Y48450D02*
D03*
Y41700D02*
D03*
X52653Y48450D02*
D03*
Y41700D02*
D03*
X46800Y48450D02*
D03*
Y41700D02*
D03*
Y30550D02*
D03*
Y23800D02*
D03*
X52700Y30550D02*
D03*
Y23800D02*
D03*
X58600Y30550D02*
D03*
Y23800D02*
D03*
X29100Y30550D02*
D03*
Y23800D02*
D03*
X35000Y30550D02*
D03*
Y23800D02*
D03*
X40900Y30550D02*
D03*
Y23800D02*
D03*
X72800Y79100D02*
D03*
X66857D02*
D03*
X40853Y58498D02*
D03*
Y65248D02*
D03*
X46753Y58525D02*
D03*
Y65275D02*
D03*
X52653Y58525D02*
D03*
Y65275D02*
D03*
X58553Y58525D02*
D03*
Y65275D02*
D03*
X29053Y58500D02*
D03*
Y65250D02*
D03*
X34953Y58500D02*
D03*
Y65250D02*
D03*
X95300Y118675D02*
D03*
Y111925D02*
D03*
X101200Y118675D02*
D03*
Y111925D02*
D03*
D126*
X146750Y78700D02*
D03*
X153050D02*
D03*
X98450Y227200D02*
D03*
X104750D02*
D03*
X156475Y150600D02*
D03*
X150175D02*
D03*
X104750Y215100D02*
D03*
X98450D02*
D03*
D130*
X105282Y-202891D02*
D03*
X85482D02*
D03*
D131*
X81621Y-214309D02*
D03*
X109179D02*
D03*
D132*
X140157Y288500D02*
D03*
X159843D02*
D03*
D133*
X190000Y-70000D02*
D03*
X180000D02*
D03*
Y-30000D02*
D03*
X190000D02*
D03*
Y-50000D02*
D03*
X180000D02*
D03*
X190000Y-40000D02*
D03*
X180000D02*
D03*
Y-60000D02*
D03*
X190000D02*
D03*
Y-10000D02*
D03*
X180000D02*
D03*
Y10000D02*
D03*
X190000D02*
D03*
X180000Y0D02*
D03*
X190000D02*
D03*
Y20000D02*
D03*
X180000D02*
D03*
X190000Y30000D02*
D03*
X180000D02*
D03*
X190000Y40000D02*
D03*
X180000D02*
D03*
X190000Y50000D02*
D03*
X180000D02*
D03*
X190000Y60000D02*
D03*
X180000D02*
D03*
X190000Y70000D02*
D03*
X180000Y-20000D02*
D03*
X190000D02*
D03*
Y-80000D02*
D03*
X180000D02*
D03*
Y-90000D02*
D03*
X190000D02*
D03*
Y86000D02*
D03*
X180000D02*
D03*
X190000Y176000D02*
D03*
X180000Y166000D02*
D03*
X190000D02*
D03*
X180000Y156000D02*
D03*
X190000D02*
D03*
X180000Y146000D02*
D03*
X190000D02*
D03*
X180000Y136000D02*
D03*
X190000D02*
D03*
X180000Y126000D02*
D03*
X190000D02*
D03*
Y106000D02*
D03*
X180000D02*
D03*
X190000Y116000D02*
D03*
X180000D02*
D03*
Y96000D02*
D03*
X190000D02*
D03*
X10000Y-90000D02*
D03*
X0D02*
D03*
Y-50000D02*
D03*
X10000D02*
D03*
Y-70000D02*
D03*
X0D02*
D03*
X10000Y-60000D02*
D03*
X0D02*
D03*
Y-80000D02*
D03*
X10000D02*
D03*
Y-30000D02*
D03*
X0D02*
D03*
Y-10000D02*
D03*
X10000D02*
D03*
X0Y-20000D02*
D03*
X10000D02*
D03*
Y0D02*
D03*
X0D02*
D03*
X10000Y10000D02*
D03*
X0D02*
D03*
X10000Y20000D02*
D03*
X0D02*
D03*
X10000Y30000D02*
D03*
X0D02*
D03*
X10000Y40000D02*
D03*
X0D02*
D03*
X10000Y50000D02*
D03*
X0Y-40000D02*
D03*
X10000D02*
D03*
Y140000D02*
D03*
X0Y130000D02*
D03*
X10000D02*
D03*
X0Y120000D02*
D03*
X10000D02*
D03*
X0Y110000D02*
D03*
X10000D02*
D03*
X0Y100000D02*
D03*
X10000D02*
D03*
X0Y90000D02*
D03*
X10000D02*
D03*
Y70000D02*
D03*
X0D02*
D03*
X10000Y80000D02*
D03*
X0D02*
D03*
X-20000Y140000D02*
D03*
Y150000D02*
D03*
Y160000D02*
D03*
Y170000D02*
D03*
Y130000D02*
D03*
Y80000D02*
D03*
Y120000D02*
D03*
Y110000D02*
D03*
Y100000D02*
D03*
Y90000D02*
D03*
Y30000D02*
D03*
Y70000D02*
D03*
Y60000D02*
D03*
Y50000D02*
D03*
Y40000D02*
D03*
Y-20000D02*
D03*
Y20000D02*
D03*
Y10000D02*
D03*
Y0D02*
D03*
Y-10000D02*
D03*
Y-30000D02*
D03*
Y-40000D02*
D03*
Y-50000D02*
D03*
Y-60000D02*
D03*
Y-160000D02*
D03*
Y-150000D02*
D03*
Y-140000D02*
D03*
Y-130000D02*
D03*
Y-110000D02*
D03*
Y-100000D02*
D03*
Y-90000D02*
D03*
Y-80000D02*
D03*
Y-120000D02*
D03*
Y-70000D02*
D03*
X-30000D02*
D03*
Y-120000D02*
D03*
Y-80000D02*
D03*
Y-90000D02*
D03*
Y-100000D02*
D03*
Y-110000D02*
D03*
Y-130000D02*
D03*
Y-140000D02*
D03*
Y-150000D02*
D03*
Y-160000D02*
D03*
Y-60000D02*
D03*
Y-50000D02*
D03*
Y-40000D02*
D03*
Y-30000D02*
D03*
Y-10000D02*
D03*
Y0D02*
D03*
Y10000D02*
D03*
Y20000D02*
D03*
Y-20000D02*
D03*
Y40000D02*
D03*
Y50000D02*
D03*
Y60000D02*
D03*
Y70000D02*
D03*
Y30000D02*
D03*
Y90000D02*
D03*
Y100000D02*
D03*
Y110000D02*
D03*
Y120000D02*
D03*
Y80000D02*
D03*
Y130000D02*
D03*
Y170000D02*
D03*
Y160000D02*
D03*
Y150000D02*
D03*
Y140000D02*
D03*
X-20000Y180000D02*
D03*
X-30000Y-170000D02*
D03*
X-20000D02*
D03*
X220000Y139900D02*
D03*
Y149900D02*
D03*
Y159900D02*
D03*
Y169900D02*
D03*
Y129900D02*
D03*
Y79900D02*
D03*
Y119900D02*
D03*
Y109900D02*
D03*
Y99900D02*
D03*
Y89900D02*
D03*
Y29900D02*
D03*
Y69900D02*
D03*
Y59900D02*
D03*
Y49900D02*
D03*
Y39900D02*
D03*
Y-20100D02*
D03*
Y19900D02*
D03*
Y9900D02*
D03*
Y-100D02*
D03*
Y-10100D02*
D03*
Y-30100D02*
D03*
Y-40100D02*
D03*
Y-50100D02*
D03*
Y-60100D02*
D03*
Y-160100D02*
D03*
Y-150100D02*
D03*
Y-140100D02*
D03*
Y-130100D02*
D03*
Y-110100D02*
D03*
Y-100100D02*
D03*
Y-90100D02*
D03*
Y-80100D02*
D03*
Y-120100D02*
D03*
Y-70100D02*
D03*
X210000D02*
D03*
Y-120100D02*
D03*
Y-80100D02*
D03*
Y-90100D02*
D03*
Y-100100D02*
D03*
Y-110100D02*
D03*
Y-130100D02*
D03*
Y-140100D02*
D03*
Y-150100D02*
D03*
Y-160100D02*
D03*
Y-60100D02*
D03*
Y-50100D02*
D03*
Y-40100D02*
D03*
Y-30100D02*
D03*
Y-10100D02*
D03*
Y-100D02*
D03*
Y9900D02*
D03*
Y19900D02*
D03*
Y-20100D02*
D03*
Y39900D02*
D03*
Y49900D02*
D03*
Y59900D02*
D03*
Y69900D02*
D03*
Y29900D02*
D03*
Y89900D02*
D03*
Y99900D02*
D03*
Y109900D02*
D03*
Y119900D02*
D03*
Y79900D02*
D03*
Y129900D02*
D03*
Y169900D02*
D03*
Y159900D02*
D03*
Y149900D02*
D03*
Y139900D02*
D03*
X220000Y179900D02*
D03*
X210000Y-170100D02*
D03*
X220000D02*
D03*
D134*
X180000Y70000D02*
D03*
Y176000D02*
D03*
X0Y50000D02*
D03*
Y140000D02*
D03*
X-30000Y180000D02*
D03*
X210000Y179900D02*
D03*
D135*
X95399Y28503D02*
D03*
X95400Y91496D02*
D03*
X220000Y280000D02*
D03*
X30000D02*
D03*
Y270000D02*
D03*
Y260000D02*
D03*
X-10000Y220000D02*
D03*
Y260000D02*
D03*
Y250000D02*
D03*
Y240000D02*
D03*
Y230000D02*
D03*
X60000Y-210000D02*
D03*
Y-200000D02*
D03*
X50000D02*
D03*
Y-210000D02*
D03*
X40000Y-200000D02*
D03*
Y-210000D02*
D03*
X30000Y-200000D02*
D03*
X-30000Y230000D02*
D03*
X100000Y292000D02*
D03*
X90000Y165000D02*
D03*
X30000Y230000D02*
D03*
X10000Y220000D02*
D03*
X70000Y165000D02*
D03*
X-30000Y280000D02*
D03*
X160000Y165000D02*
D03*
Y175000D02*
D03*
X150000D02*
D03*
Y165000D02*
D03*
X140000Y175000D02*
D03*
Y165000D02*
D03*
X130000Y175000D02*
D03*
D136*
X220000Y290000D02*
D03*
X30000D02*
D03*
X-10000Y270000D02*
D03*
X-30000Y220000D02*
D03*
X30000D02*
D03*
X10000Y230000D02*
D03*
X-30000Y290000D02*
D03*
D137*
X30000Y-210000D02*
D03*
X90000Y292000D02*
D03*
X100000Y165000D02*
D03*
X60000D02*
D03*
X130000D02*
D03*
D138*
X185000Y-105000D02*
D03*
X5000D02*
D03*
X0Y195000D02*
D03*
X190000Y190000D02*
D03*
X130000Y-10000D02*
D03*
D139*
X99700Y-194780D02*
D03*
Y-192220D02*
D03*
D140*
X148353Y-7750D02*
D03*
Y-13250D02*
D03*
D141*
X115653Y215098D02*
D03*
X113684D02*
D03*
X111716D02*
D03*
X109747D02*
D03*
X115653Y227302D02*
D03*
X113684D02*
D03*
X111716D02*
D03*
X109747D02*
D03*
D142*
X60769Y136669D02*
D03*
X58800D02*
D03*
X56832D02*
D03*
X60769Y134700D02*
D03*
X58800D02*
D03*
X56832D02*
D03*
X60769Y132731D02*
D03*
X58800D02*
D03*
X56832D02*
D03*
X90737Y137094D02*
D03*
X88769D02*
D03*
X86800D02*
D03*
X90737Y135126D02*
D03*
X88769D02*
D03*
X86800D02*
D03*
X90737Y133157D02*
D03*
X88769D02*
D03*
X86800D02*
D03*
D143*
X150475Y43300D02*
D03*
X143725D02*
D03*
X132475Y14800D02*
D03*
X125725D02*
D03*
X146525Y84600D02*
D03*
X153275D02*
D03*
X146525Y90500D02*
D03*
X153275D02*
D03*
X-500Y-159900D02*
D03*
X6250D02*
D03*
X-500Y-149900D02*
D03*
X6250D02*
D03*
X-500Y-139900D02*
D03*
X6250D02*
D03*
X6250Y-133900D02*
D03*
X-500D02*
D03*
X162825Y86000D02*
D03*
X169575D02*
D03*
X162825Y96000D02*
D03*
X169575D02*
D03*
X162825Y124000D02*
D03*
X169575D02*
D03*
X162825Y129900D02*
D03*
X169575D02*
D03*
X162850Y150600D02*
D03*
X169600D02*
D03*
X3000Y157700D02*
D03*
X-3750D02*
D03*
X156875Y-74200D02*
D03*
X150125D02*
D03*
X45775Y290000D02*
D03*
X39025D02*
D03*
X45775Y280000D02*
D03*
X39025D02*
D03*
X45775Y270000D02*
D03*
X39025D02*
D03*
X45775Y260000D02*
D03*
X39025D02*
D03*
X191450Y-150100D02*
D03*
X184700D02*
D03*
X-575Y-174100D02*
D03*
X6175D02*
D03*
X184700Y-144200D02*
D03*
X191450D02*
D03*
X3000Y169500D02*
D03*
X-3750D02*
D03*
X162825Y138700D02*
D03*
X169575D02*
D03*
X169600Y144600D02*
D03*
X162850D02*
D03*
X169775Y-74100D02*
D03*
X163025D02*
D03*
X3000Y163600D02*
D03*
X-3750D02*
D03*
X169775Y-85900D02*
D03*
X163025D02*
D03*
X163025Y-80000D02*
D03*
X169775D02*
D03*
X169800Y-67700D02*
D03*
X163050D02*
D03*
X169775Y-57700D02*
D03*
X163025D02*
D03*
X163025Y-51800D02*
D03*
X169775D02*
D03*
X169775Y-45900D02*
D03*
X163025D02*
D03*
X163025Y-40000D02*
D03*
X169775D02*
D03*
X163025Y-30000D02*
D03*
X169775D02*
D03*
X163025Y-20000D02*
D03*
X169775D02*
D03*
X162825Y-100D02*
D03*
X169575D02*
D03*
X162825Y10000D02*
D03*
X169575D02*
D03*
X20975Y260000D02*
D03*
X14225D02*
D03*
X20975Y270000D02*
D03*
X14225D02*
D03*
X20975Y280000D02*
D03*
X14225D02*
D03*
X20975Y290000D02*
D03*
X14225D02*
D03*
X28575Y5500D02*
D03*
X21825D02*
D03*
X28575Y-4600D02*
D03*
X21825D02*
D03*
M02*
