%FSLAX25Y25*%
%MOIN*%
G70*
G01*
G75*
G04 Layer_Color=128*
%ADD10R,0.01575X0.05315*%
%ADD11R,0.07087X0.07480*%
%ADD12R,0.05906X0.07480*%
%ADD13R,0.03937X0.03937*%
%ADD14C,0.03937*%
%ADD15R,0.04724X0.02362*%
%ADD16R,0.03937X0.00787*%
%ADD17R,0.00787X0.03937*%
%ADD18R,0.03937X0.07087*%
%ADD19R,0.02362X0.04331*%
%ADD20R,0.01600X0.03000*%
%ADD21R,0.06496X0.01181*%
%ADD22R,0.01181X0.06496*%
G04:AMPARAMS|DCode=23|XSize=39.37mil|YSize=98.43mil|CornerRadius=0mil|HoleSize=0mil|Usage=FLASHONLY|Rotation=135.000|XOffset=0mil|YOffset=0mil|HoleType=Round|Shape=Rectangle|*
%AMROTATEDRECTD23*
4,1,4,0.04872,0.02088,-0.02088,-0.04872,-0.04872,-0.02088,0.02088,0.04872,0.04872,0.02088,0.0*
%
%ADD23ROTATEDRECTD23*%

G04:AMPARAMS|DCode=24|XSize=39.37mil|YSize=98.43mil|CornerRadius=0mil|HoleSize=0mil|Usage=FLASHONLY|Rotation=225.000|XOffset=0mil|YOffset=0mil|HoleType=Round|Shape=Rectangle|*
%AMROTATEDRECTD24*
4,1,4,-0.02088,0.04872,0.04872,-0.02088,0.02088,-0.04872,-0.04872,0.02088,-0.02088,0.04872,0.0*
%
%ADD24ROTATEDRECTD24*%

%ADD25R,0.08661X0.02362*%
%ADD26R,0.01772X0.01969*%
%ADD27R,0.07874X0.04724*%
%ADD28R,0.08000X0.04000*%
%ADD29R,0.09000X0.12000*%
%ADD30R,0.04331X0.05906*%
%ADD31R,0.01575X0.05315*%
%ADD32R,0.06000X0.05000*%
%ADD33R,0.11024X0.05906*%
%ADD34R,0.10630X0.05906*%
%ADD35R,0.09055X0.07087*%
%ADD36R,0.03150X0.03543*%
%ADD37R,0.07874X0.02362*%
%ADD38R,0.03937X0.03543*%
%ADD39R,0.04000X0.03200*%
%ADD40C,0.00906*%
%ADD41R,0.01969X0.00984*%
%ADD42R,0.00984X0.01969*%
%ADD43R,0.03543X0.03937*%
%ADD44R,0.05315X0.01575*%
%ADD45R,0.03937X0.03937*%
%ADD46R,0.05906X0.10630*%
%ADD47R,0.05000X0.06000*%
%ADD48C,0.01000*%
%ADD49C,0.03000*%
%ADD50C,0.02000*%
%ADD51C,0.00500*%
%ADD52C,0.00800*%
%ADD53C,0.00900*%
%ADD54C,0.00600*%
%ADD55C,0.04000*%
%ADD56C,0.00610*%
%ADD57C,0.01600*%
%ADD58R,0.09000X0.05500*%
%ADD59R,0.11400X0.05400*%
%ADD60R,0.24300X0.08400*%
%ADD61R,0.23700X0.05006*%
%ADD62C,0.00394*%
%ADD63C,0.00197*%
%ADD64O,0.06299X0.07874*%
%ADD65R,0.09449X0.07480*%
%ADD66C,0.05709*%
%ADD67O,0.07087X0.05906*%
%ADD68R,0.07087X0.05906*%
%ADD69C,0.05906*%
%ADD70R,0.05906X0.05906*%
%ADD71R,0.05906X0.05906*%
%ADD72C,0.12598*%
%ADD73C,0.01500*%
%ADD74C,0.01600*%
%ADD75C,0.02000*%
%ADD76R,0.01181X0.01772*%
%ADD77R,0.03000X0.03000*%
%ADD78R,0.01181X0.03150*%
%ADD79C,0.01260*%
%ADD80R,0.03200X0.04000*%
%ADD81C,0.00984*%
%ADD82C,0.00787*%
%ADD83C,0.00050*%
%ADD84C,0.01200*%
%ADD85C,0.00300*%
%ADD86C,0.00120*%
%ADD87R,0.00730X0.02560*%
%ADD88R,0.06700X0.01800*%
%ADD89R,0.00650X0.02300*%
%ADD90R,0.03000X0.13551*%
%ADD91R,0.02300X0.00650*%
%ADD92R,0.01800X0.06700*%
%ADD93R,0.02560X0.00730*%
%ADD94R,0.02375X0.06115*%
%ADD95R,0.07887X0.08280*%
%ADD96R,0.06706X0.08280*%
%ADD97C,0.04737*%
%ADD98R,0.05524X0.03162*%
%ADD99R,0.04737X0.01587*%
%ADD100R,0.01587X0.04737*%
%ADD101R,0.04737X0.07887*%
%ADD102R,0.03162X0.05131*%
%ADD103R,0.02400X0.03800*%
%ADD104R,0.07296X0.01981*%
%ADD105R,0.01981X0.07296*%
G04:AMPARAMS|DCode=106|XSize=47.37mil|YSize=106.42mil|CornerRadius=0mil|HoleSize=0mil|Usage=FLASHONLY|Rotation=135.000|XOffset=0mil|YOffset=0mil|HoleType=Round|Shape=Rectangle|*
%AMROTATEDRECTD106*
4,1,4,0.05438,0.02088,-0.02088,-0.05438,-0.05438,-0.02088,0.02088,0.05438,0.05438,0.02088,0.0*
%
%ADD106ROTATEDRECTD106*%

G04:AMPARAMS|DCode=107|XSize=47.37mil|YSize=106.42mil|CornerRadius=0mil|HoleSize=0mil|Usage=FLASHONLY|Rotation=225.000|XOffset=0mil|YOffset=0mil|HoleType=Round|Shape=Rectangle|*
%AMROTATEDRECTD107*
4,1,4,-0.02088,0.05438,0.05438,-0.02088,0.02088,-0.05438,-0.05438,0.02088,-0.02088,0.05438,0.0*
%
%ADD107ROTATEDRECTD107*%

%ADD108R,0.09461X0.03162*%
%ADD109R,0.02572X0.02769*%
%ADD110R,0.08674X0.05524*%
%ADD111R,0.08800X0.04800*%
%ADD112R,0.09800X0.12800*%
%ADD113R,0.05131X0.06706*%
%ADD114R,0.02375X0.06115*%
%ADD115R,0.06800X0.05800*%
%ADD116R,0.11824X0.06706*%
%ADD117R,0.11430X0.06706*%
%ADD118R,0.09855X0.07887*%
%ADD119R,0.03950X0.04343*%
%ADD120R,0.08674X0.03162*%
%ADD121R,0.04737X0.04343*%
%ADD122R,0.04800X0.04000*%
%ADD123C,0.01706*%
%ADD124R,0.02769X0.01784*%
%ADD125R,0.01784X0.02769*%
%ADD126R,0.04343X0.04737*%
%ADD127R,0.06115X0.02375*%
%ADD128R,0.06706X0.11430*%
%ADD129R,0.05800X0.06800*%
%ADD130O,0.07099X0.08674*%
%ADD131R,0.10249X0.08280*%
%ADD132C,0.06509*%
%ADD133O,0.07887X0.06706*%
%ADD134R,0.07887X0.06706*%
%ADD135C,0.06706*%
%ADD136R,0.06706X0.06706*%
%ADD137R,0.06706X0.06706*%
%ADD138C,0.13398*%
%ADD139R,0.01981X0.02572*%
%ADD140R,0.03800X0.03800*%
%ADD141R,0.01981X0.03950*%
%ADD142C,0.02060*%
%ADD143R,0.04000X0.04800*%
G36*
X81000Y11000D02*
X79000Y13000D01*
X77000Y11000D01*
Y14000D01*
X81000D01*
Y11000D01*
D02*
G37*
G36*
X127475Y14800D02*
X129475Y12800D01*
X126475D01*
Y14800D01*
Y16800D01*
X129475D01*
X127475Y14800D01*
D02*
G37*
G36*
X131475Y12800D02*
X130475D01*
X128475Y14800D01*
X130475Y16800D01*
X131475D01*
Y12800D01*
D02*
G37*
G36*
X81000Y10000D02*
Y9000D01*
X77000D01*
Y10000D01*
X79000Y12000D01*
X81000Y10000D01*
D02*
G37*
G36*
X54500Y10900D02*
X52500Y12900D01*
X50500Y10900D01*
Y13900D01*
X54500D01*
Y10900D01*
D02*
G37*
G36*
X60600Y11000D02*
X58600Y13000D01*
X56600Y11000D01*
Y14000D01*
X60600D01*
Y11000D01*
D02*
G37*
G36*
X48800Y24550D02*
X44800D01*
Y27550D01*
X46800Y25550D01*
X48800Y27550D01*
Y24550D01*
D02*
G37*
G36*
X54700D02*
X50700D01*
Y27550D01*
X52700Y25550D01*
X54700Y27550D01*
Y24550D01*
D02*
G37*
G36*
X60600D02*
X56600D01*
Y27550D01*
X58600Y25550D01*
X60600Y27550D01*
Y24550D01*
D02*
G37*
G36*
X31100D02*
X27100D01*
Y27550D01*
X29100Y25550D01*
X31100Y27550D01*
Y24550D01*
D02*
G37*
G36*
X37000D02*
X33000D01*
Y27550D01*
X35000Y25550D01*
X37000Y27550D01*
Y24550D01*
D02*
G37*
G36*
X42900D02*
X38900D01*
Y27550D01*
X40900Y25550D01*
X42900Y27550D01*
Y24550D01*
D02*
G37*
G36*
X60600Y10000D02*
Y9000D01*
X56600D01*
Y10000D01*
X58600Y12000D01*
X60600Y10000D01*
D02*
G37*
G36*
X104400Y975D02*
X100400D01*
Y3975D01*
X102400Y1975D01*
X104400Y3975D01*
Y975D01*
D02*
G37*
G36*
Y4975D02*
X102400Y2975D01*
X100400Y4975D01*
Y5975D01*
X104400D01*
Y4975D01*
D02*
G37*
G36*
X150200Y4100D02*
Y3100D01*
X146200D01*
Y4100D01*
X148200Y6100D01*
X150200Y4100D01*
D02*
G37*
G36*
X27825Y-4600D02*
Y-6600D01*
X24825D01*
X26825Y-4600D01*
X24825Y-2600D01*
X27825D01*
Y-4600D01*
D02*
G37*
G36*
X166825Y-100D02*
X164825Y-2100D01*
X163825D01*
Y1900D01*
X164825D01*
X166825Y-100D01*
D02*
G37*
G36*
X168825D02*
Y-2100D01*
X165825D01*
X167825Y-100D01*
X165825Y1900D01*
X168825D01*
Y-100D01*
D02*
G37*
G36*
X166825Y10000D02*
X164825Y8000D01*
X163825D01*
Y12000D01*
X164825D01*
X166825Y10000D01*
D02*
G37*
G36*
X168825D02*
Y8000D01*
X165825D01*
X167825Y10000D01*
X165825Y12000D01*
X168825D01*
Y10000D01*
D02*
G37*
G36*
X54500Y9900D02*
Y8900D01*
X50500D01*
Y9900D01*
X52500Y11900D01*
X54500Y9900D01*
D02*
G37*
G36*
X25825Y5500D02*
X23825Y3500D01*
X22825D01*
Y7500D01*
X23825D01*
X25825Y5500D01*
D02*
G37*
G36*
X27825D02*
Y3500D01*
X24825D01*
X26825Y5500D01*
X24825Y7500D01*
X27825D01*
Y5500D01*
D02*
G37*
G36*
X150200Y5100D02*
X148200Y7100D01*
X146200Y5100D01*
Y8100D01*
X150200D01*
Y5100D01*
D02*
G37*
G36*
X31100Y28550D02*
X29100Y26550D01*
X27100Y28550D01*
Y29550D01*
X31100D01*
Y28550D01*
D02*
G37*
G36*
X37000Y42450D02*
X33000D01*
Y45450D01*
X35000Y43450D01*
X37000Y45450D01*
Y42450D01*
D02*
G37*
G36*
X42900D02*
X38900D01*
Y45450D01*
X40900Y43450D01*
X42900Y45450D01*
Y42450D01*
D02*
G37*
G36*
X48800D02*
X44800D01*
Y45450D01*
X46800Y43450D01*
X48800Y45450D01*
Y42450D01*
D02*
G37*
G36*
X147725Y43300D02*
X145725Y41300D01*
X144725D01*
Y45300D01*
X145725D01*
X147725Y43300D01*
D02*
G37*
G36*
X149725D02*
Y41300D01*
X146725D01*
X148725Y43300D01*
X146725Y45300D01*
X149725D01*
Y43300D01*
D02*
G37*
G36*
X31100Y42450D02*
X27100D01*
Y45450D01*
X29100Y43450D01*
X31100Y45450D01*
Y42450D01*
D02*
G37*
G36*
X37000Y46450D02*
X35000Y44450D01*
X33000Y46450D01*
Y47450D01*
X37000D01*
Y46450D01*
D02*
G37*
G36*
X42900D02*
X40900Y44450D01*
X38900Y46450D01*
Y47450D01*
X42900D01*
Y46450D01*
D02*
G37*
G36*
X48800D02*
X46800Y44450D01*
X44800Y46450D01*
Y47450D01*
X48800D01*
Y46450D01*
D02*
G37*
G36*
X54653Y42450D02*
X50653D01*
Y45450D01*
X52653Y43450D01*
X54653Y45450D01*
Y42450D01*
D02*
G37*
G36*
X60530D02*
X56530D01*
Y45450D01*
X58530Y43450D01*
X60530Y45450D01*
Y42450D01*
D02*
G37*
G36*
X31100Y46450D02*
X29100Y44450D01*
X27100Y46450D01*
Y47450D01*
X31100D01*
Y46450D01*
D02*
G37*
G36*
X109270Y30125D02*
X107270Y32125D01*
X105270Y30125D01*
Y33125D01*
X109270D01*
Y30125D01*
D02*
G37*
G36*
X54700Y28550D02*
X52700Y26550D01*
X50700Y28550D01*
Y29550D01*
X54700D01*
Y28550D01*
D02*
G37*
G36*
X60600D02*
X58600Y26550D01*
X56600Y28550D01*
Y29550D01*
X60600D01*
Y28550D01*
D02*
G37*
G36*
X80000Y29125D02*
Y28125D01*
X76000D01*
Y29125D01*
X78000Y31125D01*
X80000Y29125D01*
D02*
G37*
G36*
X37000Y28550D02*
X35000Y26550D01*
X33000Y28550D01*
Y29550D01*
X37000D01*
Y28550D01*
D02*
G37*
G36*
X42900D02*
X40900Y26550D01*
X38900Y28550D01*
Y29550D01*
X42900D01*
Y28550D01*
D02*
G37*
G36*
X48800D02*
X46800Y26550D01*
X44800Y28550D01*
Y29550D01*
X48800D01*
Y28550D01*
D02*
G37*
G36*
X80000Y30125D02*
X78000Y32125D01*
X76000Y30125D01*
Y33125D01*
X80000D01*
Y30125D01*
D02*
G37*
G36*
X85900D02*
X83900Y32125D01*
X81900Y30125D01*
Y33125D01*
X85900D01*
Y30125D01*
D02*
G37*
G36*
X103370D02*
X101370Y32125D01*
X99370Y30125D01*
Y33125D01*
X103370D01*
Y30125D01*
D02*
G37*
G36*
X85900Y29125D02*
Y28125D01*
X81900D01*
Y29125D01*
X83900Y31125D01*
X85900Y29125D01*
D02*
G37*
G36*
X103370D02*
Y28125D01*
X99370D01*
Y29125D01*
X101370Y31125D01*
X103370Y29125D01*
D02*
G37*
G36*
X109270D02*
Y28125D01*
X105270D01*
Y29125D01*
X107270Y31125D01*
X109270Y29125D01*
D02*
G37*
G36*
X186450Y-144200D02*
X188450Y-146200D01*
X185450D01*
Y-144200D01*
Y-142200D01*
X188450D01*
X186450Y-144200D01*
D02*
G37*
G36*
X190450Y-146200D02*
X189450D01*
X187450Y-144200D01*
X189450Y-142200D01*
X190450D01*
Y-146200D01*
D02*
G37*
G36*
X3500Y-139900D02*
X1500Y-141900D01*
X500D01*
Y-137900D01*
X1500D01*
X3500Y-139900D01*
D02*
G37*
G36*
X190700Y-150100D02*
Y-152100D01*
X187700D01*
X189700Y-150100D01*
X187700Y-148100D01*
X190700D01*
Y-150100D01*
D02*
G37*
G36*
X3500Y-149900D02*
X1500Y-151900D01*
X500D01*
Y-147900D01*
X1500D01*
X3500Y-149900D01*
D02*
G37*
G36*
X5500D02*
Y-151900D01*
X2500D01*
X4500Y-149900D01*
X2500Y-147900D01*
X5500D01*
Y-149900D01*
D02*
G37*
G36*
X164775Y-85900D02*
X166775Y-87900D01*
X163775D01*
Y-85900D01*
Y-83900D01*
X166775D01*
X164775Y-85900D01*
D02*
G37*
G36*
X168775Y-87900D02*
X167775D01*
X165775Y-85900D01*
X167775Y-83900D01*
X168775D01*
Y-87900D01*
D02*
G37*
G36*
X167025Y-80000D02*
X165025Y-82000D01*
X164025D01*
Y-78000D01*
X165025D01*
X167025Y-80000D01*
D02*
G37*
G36*
X5500Y-139900D02*
Y-141900D01*
X2500D01*
X4500Y-139900D01*
X2500Y-137900D01*
X5500D01*
Y-139900D01*
D02*
G37*
G36*
X1250Y-133900D02*
X3250Y-135900D01*
X250D01*
Y-133900D01*
Y-131900D01*
X3250D01*
X1250Y-133900D01*
D02*
G37*
G36*
X5250Y-135900D02*
X4250D01*
X2250Y-133900D01*
X4250Y-131900D01*
X5250D01*
Y-135900D01*
D02*
G37*
G36*
X188700Y-150100D02*
X186700Y-152100D01*
X185700D01*
Y-148100D01*
X186700D01*
X188700Y-150100D01*
D02*
G37*
G36*
X122000Y-175025D02*
X118000D01*
Y-172025D01*
X120000Y-174025D01*
X122000Y-172025D01*
Y-175025D01*
D02*
G37*
G36*
X134000D02*
X130000D01*
Y-172025D01*
X132000Y-174025D01*
X134000Y-172025D01*
Y-175025D01*
D02*
G37*
G36*
X139900D02*
X135900D01*
Y-172025D01*
X137900Y-174025D01*
X139900Y-172025D01*
Y-175025D01*
D02*
G37*
G36*
X1175Y-174100D02*
X3175Y-176100D01*
X175D01*
Y-174100D01*
Y-172100D01*
X3175D01*
X1175Y-174100D01*
D02*
G37*
G36*
X5175Y-176100D02*
X4175D01*
X2175Y-174100D01*
X4175Y-172100D01*
X5175D01*
Y-176100D01*
D02*
G37*
G36*
X116100Y-173769D02*
Y-174769D01*
X112100D01*
Y-173769D01*
X114100Y-171769D01*
X116100Y-173769D01*
D02*
G37*
G36*
Y-172769D02*
X114100Y-170769D01*
X112100Y-172769D01*
Y-169769D01*
X116100D01*
Y-172769D01*
D02*
G37*
G36*
X3500Y-159900D02*
X1500Y-161900D01*
X500D01*
Y-157900D01*
X1500D01*
X3500Y-159900D01*
D02*
G37*
G36*
X5500D02*
Y-161900D01*
X2500D01*
X4500Y-159900D01*
X2500Y-157900D01*
X5500D01*
Y-159900D01*
D02*
G37*
G36*
X122000Y-171025D02*
X120000Y-173025D01*
X118000Y-171025D01*
Y-170025D01*
X122000D01*
Y-171025D01*
D02*
G37*
G36*
X134000D02*
X132000Y-173025D01*
X130000Y-171025D01*
Y-170025D01*
X134000D01*
Y-171025D01*
D02*
G37*
G36*
X139900D02*
X137900Y-173025D01*
X135900Y-171025D01*
Y-170025D01*
X139900D01*
Y-171025D01*
D02*
G37*
G36*
X169025Y-80000D02*
Y-82000D01*
X166025D01*
X168025Y-80000D01*
X166025Y-78000D01*
X169025D01*
Y-80000D01*
D02*
G37*
G36*
X120800Y-23275D02*
Y-24275D01*
X116800D01*
Y-23275D01*
X118800Y-21275D01*
X120800Y-23275D01*
D02*
G37*
G36*
X142700D02*
Y-24275D01*
X138700D01*
Y-23275D01*
X140700Y-21275D01*
X142700Y-23275D01*
D02*
G37*
G36*
X150300D02*
Y-24275D01*
X146300D01*
Y-23275D01*
X148300Y-21275D01*
X150300Y-23275D01*
D02*
G37*
G36*
X169025Y-40000D02*
Y-42000D01*
X166025D01*
X168025Y-40000D01*
X166025Y-38000D01*
X169025D01*
Y-40000D01*
D02*
G37*
G36*
X167025Y-30000D02*
X165025Y-32000D01*
X164025D01*
Y-28000D01*
X165025D01*
X167025Y-30000D01*
D02*
G37*
G36*
X169025D02*
Y-32000D01*
X166025D01*
X168025Y-30000D01*
X166025Y-28000D01*
X169025D01*
Y-30000D01*
D02*
G37*
G36*
X167025Y-20000D02*
X165025Y-22000D01*
X164025D01*
Y-18000D01*
X165025D01*
X167025Y-20000D01*
D02*
G37*
G36*
X169025D02*
Y-22000D01*
X166025D01*
X168025Y-20000D01*
X166025Y-18000D01*
X169025D01*
Y-20000D01*
D02*
G37*
G36*
X25825Y-4600D02*
X23825Y-6600D01*
X22825D01*
Y-2600D01*
X23825D01*
X25825Y-4600D01*
D02*
G37*
G36*
X120800Y-22275D02*
X118800Y-20275D01*
X116800Y-22275D01*
Y-19275D01*
X120800D01*
Y-22275D01*
D02*
G37*
G36*
X142700D02*
X140700Y-20275D01*
X138700Y-22275D01*
Y-19275D01*
X142700D01*
Y-22275D01*
D02*
G37*
G36*
X150300D02*
X148300Y-20275D01*
X146300Y-22275D01*
Y-19275D01*
X150300D01*
Y-22275D01*
D02*
G37*
G36*
X167025Y-40000D02*
X165025Y-42000D01*
X164025D01*
Y-38000D01*
X165025D01*
X167025Y-40000D01*
D02*
G37*
G36*
X169025Y-74100D02*
Y-76100D01*
X166025D01*
X168025Y-74100D01*
X166025Y-72100D01*
X169025D01*
Y-74100D01*
D02*
G37*
G36*
X164800Y-67700D02*
X166800Y-69700D01*
X163800D01*
Y-67700D01*
Y-65700D01*
X166800D01*
X164800Y-67700D01*
D02*
G37*
G36*
X168800Y-69700D02*
X167800D01*
X165800Y-67700D01*
X167800Y-65700D01*
X168800D01*
Y-69700D01*
D02*
G37*
G36*
X154125Y-74200D02*
X152125Y-76200D01*
X151125D01*
Y-72200D01*
X152125D01*
X154125Y-74200D01*
D02*
G37*
G36*
X156125D02*
Y-76200D01*
X153125D01*
X155125Y-74200D01*
X153125Y-72200D01*
X156125D01*
Y-74200D01*
D02*
G37*
G36*
X167025Y-74100D02*
X165025Y-76100D01*
X164025D01*
Y-72100D01*
X165025D01*
X167025Y-74100D01*
D02*
G37*
G36*
X169025Y-51800D02*
Y-53800D01*
X166025D01*
X168025Y-51800D01*
X166025Y-49800D01*
X169025D01*
Y-51800D01*
D02*
G37*
G36*
X164775Y-45900D02*
X166775Y-47900D01*
X163775D01*
Y-45900D01*
Y-43900D01*
X166775D01*
X164775Y-45900D01*
D02*
G37*
G36*
X168775Y-47900D02*
X167775D01*
X165775Y-45900D01*
X167775Y-43900D01*
X168775D01*
Y-47900D01*
D02*
G37*
G36*
X164775Y-57700D02*
X166775Y-59700D01*
X163775D01*
Y-57700D01*
Y-55700D01*
X166775D01*
X164775Y-57700D01*
D02*
G37*
G36*
X168775Y-59700D02*
X167775D01*
X165775Y-57700D01*
X167775Y-55700D01*
X168775D01*
Y-59700D01*
D02*
G37*
G36*
X167025Y-51800D02*
X165025Y-53800D01*
X164025D01*
Y-49800D01*
X165025D01*
X167025Y-51800D01*
D02*
G37*
G36*
X55560Y149208D02*
X51560D01*
Y152208D01*
X53560Y150208D01*
X55560Y152208D01*
Y149208D01*
D02*
G37*
G36*
X27800Y153175D02*
X25800Y151175D01*
X23800Y153175D01*
Y154175D01*
X27800D01*
Y153175D01*
D02*
G37*
G36*
X43630D02*
X41630Y151175D01*
X39630Y153175D01*
Y154175D01*
X43630D01*
Y153175D01*
D02*
G37*
G36*
X91979Y149175D02*
X87979D01*
Y152175D01*
X89979Y150175D01*
X91979Y152175D01*
Y149175D01*
D02*
G37*
G36*
X98000D02*
X94000D01*
Y152175D01*
X96000Y150175D01*
X98000Y152175D01*
Y149175D01*
D02*
G37*
G36*
X67400Y149200D02*
X63400D01*
Y152200D01*
X65400Y150200D01*
X67400Y152200D01*
Y149200D01*
D02*
G37*
G36*
X55560Y153208D02*
X53560Y151208D01*
X51560Y153208D01*
Y154208D01*
X55560D01*
Y153208D01*
D02*
G37*
G36*
X49700Y151425D02*
X47700Y153425D01*
X45700Y151425D01*
Y154425D01*
X49700D01*
Y151425D01*
D02*
G37*
G36*
X61460Y151458D02*
X59460Y153458D01*
X57460Y151458D01*
Y154458D01*
X61460D01*
Y151458D01*
D02*
G37*
G36*
X91979Y153175D02*
X89979Y151175D01*
X87979Y153175D01*
Y154175D01*
X91979D01*
Y153175D01*
D02*
G37*
G36*
X98000D02*
X96000Y151175D01*
X94000Y153175D01*
Y154175D01*
X98000D01*
Y153175D01*
D02*
G37*
G36*
X67400Y153200D02*
X65400Y151200D01*
X63400Y153200D01*
Y154200D01*
X67400D01*
Y153200D01*
D02*
G37*
G36*
X43630Y149175D02*
X39630D01*
Y152175D01*
X41630Y150175D01*
X43630Y152175D01*
Y149175D01*
D02*
G37*
G36*
X164600Y144600D02*
X166600Y142600D01*
X163600D01*
Y144600D01*
Y146600D01*
X166600D01*
X164600Y144600D01*
D02*
G37*
G36*
X168600Y142600D02*
X167600D01*
X165600Y144600D01*
X167600Y146600D01*
X168600D01*
Y142600D01*
D02*
G37*
G36*
X82500Y144100D02*
Y143100D01*
X78500D01*
Y144100D01*
X80500Y146100D01*
X82500Y144100D01*
D02*
G37*
G36*
Y133325D02*
X80500Y135325D01*
X78500Y133325D01*
Y136325D01*
X82500D01*
Y133325D01*
D02*
G37*
G36*
X166825Y138700D02*
X164825Y136700D01*
X163825D01*
Y140700D01*
X164825D01*
X166825Y138700D01*
D02*
G37*
G36*
X168825D02*
Y136700D01*
X165825D01*
X167825Y138700D01*
X165825Y140700D01*
X168825D01*
Y138700D01*
D02*
G37*
G36*
X49700Y150425D02*
Y149425D01*
X45700D01*
Y150425D01*
X47700Y152425D01*
X49700Y150425D01*
D02*
G37*
G36*
X61460Y150458D02*
Y149458D01*
X57460D01*
Y150458D01*
X59460Y152458D01*
X61460Y150458D01*
D02*
G37*
G36*
X27800Y149175D02*
X23800D01*
Y152175D01*
X25800Y150175D01*
X27800Y152175D01*
Y149175D01*
D02*
G37*
G36*
X82500Y145100D02*
X80500Y147100D01*
X78500Y145100D01*
Y148100D01*
X82500D01*
Y145100D01*
D02*
G37*
G36*
X166850Y150600D02*
X164850Y148600D01*
X163850D01*
Y152600D01*
X164850D01*
X166850Y150600D01*
D02*
G37*
G36*
X168850D02*
Y148600D01*
X165850D01*
X167850Y150600D01*
X165850Y152600D01*
X168850D01*
Y150600D01*
D02*
G37*
G36*
X-2000Y157700D02*
X0Y155700D01*
X-3000D01*
Y157700D01*
Y159700D01*
X0D01*
X-2000Y157700D01*
D02*
G37*
G36*
X45025Y270000D02*
Y268000D01*
X42025D01*
X44025Y270000D01*
X42025Y272000D01*
X45025D01*
Y270000D01*
D02*
G37*
G36*
X18225Y280000D02*
X16225Y278000D01*
X15225D01*
Y282000D01*
X16225D01*
X18225Y280000D01*
D02*
G37*
G36*
X20225D02*
Y278000D01*
X17225D01*
X19225Y280000D01*
X17225Y282000D01*
X20225D01*
Y280000D01*
D02*
G37*
G36*
X18225Y270000D02*
X16225Y268000D01*
X15225D01*
Y272000D01*
X16225D01*
X18225Y270000D01*
D02*
G37*
G36*
X20225D02*
Y268000D01*
X17225D01*
X19225Y270000D01*
X17225Y272000D01*
X20225D01*
Y270000D01*
D02*
G37*
G36*
X43025D02*
X41025Y268000D01*
X40025D01*
Y272000D01*
X41025D01*
X43025Y270000D01*
D02*
G37*
G36*
X20225Y290000D02*
Y288000D01*
X17225D01*
X19225Y290000D01*
X17225Y292000D01*
X20225D01*
Y290000D01*
D02*
G37*
G36*
X43025D02*
X41025Y288000D01*
X40025D01*
Y292000D01*
X41025D01*
X43025Y290000D01*
D02*
G37*
G36*
X45025D02*
Y288000D01*
X42025D01*
X44025Y290000D01*
X42025Y292000D01*
X45025D01*
Y290000D01*
D02*
G37*
G36*
X43025Y280000D02*
X41025Y278000D01*
X40025D01*
Y282000D01*
X41025D01*
X43025Y280000D01*
D02*
G37*
G36*
X45025D02*
Y278000D01*
X42025D01*
X44025Y280000D01*
X42025Y282000D01*
X45025D01*
Y280000D01*
D02*
G37*
G36*
X18225Y290000D02*
X16225Y288000D01*
X15225D01*
Y292000D01*
X16225D01*
X18225Y290000D01*
D02*
G37*
G36*
X45025Y260000D02*
Y258000D01*
X42025D01*
X44025Y260000D01*
X42025Y262000D01*
X45025D01*
Y260000D01*
D02*
G37*
G36*
X-2000Y169500D02*
X0Y167500D01*
X-3000D01*
Y169500D01*
Y171500D01*
X0D01*
X-2000Y169500D01*
D02*
G37*
G36*
X2000Y167500D02*
X1000D01*
X-1000Y169500D01*
X1000Y171500D01*
X2000D01*
Y167500D01*
D02*
G37*
G36*
X123000Y219600D02*
Y218600D01*
X119000D01*
Y219600D01*
X121000Y221600D01*
X123000Y219600D01*
D02*
G37*
G36*
X2000Y155700D02*
X1000D01*
X-1000Y157700D01*
X1000Y159700D01*
X2000D01*
Y155700D01*
D02*
G37*
G36*
X-2000Y163600D02*
X0Y161600D01*
X-3000D01*
Y163600D01*
Y165600D01*
X0D01*
X-2000Y163600D01*
D02*
G37*
G36*
X2000Y161600D02*
X1000D01*
X-1000Y163600D01*
X1000Y165600D01*
X2000D01*
Y161600D01*
D02*
G37*
G36*
X18225Y260000D02*
X16225Y258000D01*
X15225D01*
Y262000D01*
X16225D01*
X18225Y260000D01*
D02*
G37*
G36*
X20225D02*
Y258000D01*
X17225D01*
X19225Y260000D01*
X17225Y262000D01*
X20225D01*
Y260000D01*
D02*
G37*
G36*
X43025D02*
X41025Y258000D01*
X40025D01*
Y262000D01*
X41025D01*
X43025Y260000D01*
D02*
G37*
G36*
X129200Y219600D02*
Y218600D01*
X125200D01*
Y219600D01*
X127200Y221600D01*
X129200Y219600D01*
D02*
G37*
G36*
X123000Y220600D02*
X121000Y222600D01*
X119000Y220600D01*
Y223600D01*
X123000D01*
Y220600D01*
D02*
G37*
G36*
X129200D02*
X127200Y222600D01*
X125200Y220600D01*
Y223600D01*
X129200D01*
Y220600D01*
D02*
G37*
G36*
X68857Y81100D02*
Y80100D01*
X64857D01*
Y81100D01*
X66857Y83100D01*
X68857Y81100D01*
D02*
G37*
G36*
X74800D02*
Y80100D01*
X70800D01*
Y81100D01*
X72800Y83100D01*
X74800Y81100D01*
D02*
G37*
G36*
X68857Y82100D02*
X66857Y84100D01*
X64857Y82100D01*
Y85100D01*
X68857D01*
Y82100D01*
D02*
G37*
G36*
X60553Y61525D02*
X58553Y63525D01*
X56553Y61525D01*
Y64525D01*
X60553D01*
Y61525D01*
D02*
G37*
G36*
X42900Y71075D02*
X38900D01*
Y74075D01*
X40900Y72075D01*
X42900Y74075D01*
Y71075D01*
D02*
G37*
G36*
Y75075D02*
X40900Y73075D01*
X38900Y75075D01*
Y76075D01*
X42900D01*
Y75075D01*
D02*
G37*
G36*
X166825Y86000D02*
X164825Y84000D01*
X163825D01*
Y88000D01*
X164825D01*
X166825Y86000D01*
D02*
G37*
G36*
X168825D02*
Y84000D01*
X165825D01*
X167825Y86000D01*
X165825Y88000D01*
X168825D01*
Y86000D01*
D02*
G37*
G36*
X37000Y87825D02*
Y86825D01*
X33000D01*
Y87825D01*
X35000Y89825D01*
X37000Y87825D01*
D02*
G37*
G36*
X74800Y82100D02*
X72800Y84100D01*
X70800Y82100D01*
Y85100D01*
X74800D01*
Y82100D01*
D02*
G37*
G36*
X150525Y84600D02*
X148525Y82600D01*
X147525D01*
Y86600D01*
X148525D01*
X150525Y84600D01*
D02*
G37*
G36*
X152525D02*
Y82600D01*
X149525D01*
X151525Y84600D01*
X149525Y86600D01*
X152525D01*
Y84600D01*
D02*
G37*
G36*
X54653Y61525D02*
X52653Y63525D01*
X50653Y61525D01*
Y64525D01*
X54653D01*
Y61525D01*
D02*
G37*
G36*
X31053Y60500D02*
Y59500D01*
X27053D01*
Y60500D01*
X29053Y62500D01*
X31053Y60500D01*
D02*
G37*
G36*
X36953D02*
Y59500D01*
X32953D01*
Y60500D01*
X34953Y62500D01*
X36953Y60500D01*
D02*
G37*
G36*
X48753Y60525D02*
Y59525D01*
X44753D01*
Y60525D01*
X46753Y62525D01*
X48753Y60525D01*
D02*
G37*
G36*
X54653Y46450D02*
X52653Y44450D01*
X50653Y46450D01*
Y47450D01*
X54653D01*
Y46450D01*
D02*
G37*
G36*
X60530D02*
X58530Y44450D01*
X56530Y46450D01*
Y47450D01*
X60530D01*
Y46450D01*
D02*
G37*
G36*
X42853Y60498D02*
Y59498D01*
X38853D01*
Y60498D01*
X40853Y62498D01*
X42853Y60498D01*
D02*
G37*
G36*
X31053Y61500D02*
X29053Y63500D01*
X27053Y61500D01*
Y64500D01*
X31053D01*
Y61500D01*
D02*
G37*
G36*
X36953D02*
X34953Y63500D01*
X32953Y61500D01*
Y64500D01*
X36953D01*
Y61500D01*
D02*
G37*
G36*
X48753Y61525D02*
X46753Y63525D01*
X44753Y61525D01*
Y64525D01*
X48753D01*
Y61525D01*
D02*
G37*
G36*
X54653Y60525D02*
Y59525D01*
X50653D01*
Y60525D01*
X52653Y62525D01*
X54653Y60525D01*
D02*
G37*
G36*
X60553D02*
Y59525D01*
X56553D01*
Y60525D01*
X58553Y62525D01*
X60553Y60525D01*
D02*
G37*
G36*
X42853Y61498D02*
X40853Y63498D01*
X38853Y61498D01*
Y64498D01*
X42853D01*
Y61498D01*
D02*
G37*
G36*
X42900Y87825D02*
Y86825D01*
X38900D01*
Y87825D01*
X40900Y89825D01*
X42900Y87825D01*
D02*
G37*
G36*
X166825Y124000D02*
X164825Y122000D01*
X163825D01*
Y126000D01*
X164825D01*
X166825Y124000D01*
D02*
G37*
G36*
X168825D02*
Y122000D01*
X165825D01*
X167825Y124000D01*
X165825Y126000D01*
X168825D01*
Y124000D01*
D02*
G37*
G36*
X109247Y126480D02*
X105247D01*
Y129481D01*
X107247Y127480D01*
X109247Y129481D01*
Y126480D01*
D02*
G37*
G36*
X128100Y114900D02*
X126100Y116900D01*
X124100Y114900D01*
Y117900D01*
X128100D01*
Y114900D01*
D02*
G37*
G36*
X97300Y114925D02*
X95300Y116925D01*
X93300Y114925D01*
Y117925D01*
X97300D01*
Y114925D01*
D02*
G37*
G36*
X103200D02*
X101200Y116925D01*
X99200Y114925D01*
Y117925D01*
X103200D01*
Y114925D01*
D02*
G37*
G36*
X27800Y132325D02*
Y131325D01*
X23800D01*
Y132325D01*
X25800Y134325D01*
X27800Y132325D01*
D02*
G37*
G36*
X82500D02*
Y131325D01*
X78500D01*
Y132325D01*
X80500Y134325D01*
X82500Y132325D01*
D02*
G37*
G36*
X27800Y133325D02*
X25800Y135325D01*
X23800Y133325D01*
Y136325D01*
X27800D01*
Y133325D01*
D02*
G37*
G36*
X166825Y129900D02*
X164825Y127900D01*
X163825D01*
Y131900D01*
X164825D01*
X166825Y129900D01*
D02*
G37*
G36*
X168825D02*
Y127900D01*
X165825D01*
X167825Y129900D01*
X165825Y131900D01*
X168825D01*
Y129900D01*
D02*
G37*
G36*
X109247Y130481D02*
X107247Y128481D01*
X105247Y130481D01*
Y131481D01*
X109247D01*
Y130481D01*
D02*
G37*
G36*
X79670Y114900D02*
X77670Y116900D01*
X75670Y114900D01*
Y117900D01*
X79670D01*
Y114900D01*
D02*
G37*
G36*
X42900Y88825D02*
X40900Y90825D01*
X38900Y88825D01*
Y91825D01*
X42900D01*
Y88825D01*
D02*
G37*
G36*
X166825Y96000D02*
X164825Y94000D01*
X163825D01*
Y98000D01*
X164825D01*
X166825Y96000D01*
D02*
G37*
G36*
X168825D02*
Y94000D01*
X165825D01*
X167825Y96000D01*
X165825Y98000D01*
X168825D01*
Y96000D01*
D02*
G37*
G36*
X150525Y90500D02*
X148525Y88500D01*
X147525D01*
Y92500D01*
X148525D01*
X150525Y90500D01*
D02*
G37*
G36*
X152525D02*
Y88500D01*
X149525D01*
X151525Y90500D01*
X149525Y92500D01*
X152525D01*
Y90500D01*
D02*
G37*
G36*
X37000Y88825D02*
X35000Y90825D01*
X33000Y88825D01*
Y91825D01*
X37000D01*
Y88825D01*
D02*
G37*
G36*
X97300Y113925D02*
Y112925D01*
X93300D01*
Y113925D01*
X95300Y115925D01*
X97300Y113925D01*
D02*
G37*
G36*
X103200D02*
Y112925D01*
X99200D01*
Y113925D01*
X101200Y115925D01*
X103200Y113925D01*
D02*
G37*
G36*
X73770Y114900D02*
X71770Y116900D01*
X69770Y114900D01*
Y117900D01*
X73770D01*
Y114900D01*
D02*
G37*
G36*
Y113900D02*
Y112900D01*
X69770D01*
Y113900D01*
X71770Y115900D01*
X73770Y113900D01*
D02*
G37*
G36*
X79670D02*
Y112900D01*
X75670D01*
Y113900D01*
X77670Y115900D01*
X79670Y113900D01*
D02*
G37*
G36*
X128100Y113900D02*
Y112900D01*
X124100D01*
Y113900D01*
X126100Y115900D01*
X128100Y113900D01*
D02*
G37*
D32*
X118800Y8950D02*
D03*
Y-2050D02*
D03*
X140400Y9200D02*
D03*
Y-1800D02*
D03*
D38*
X31700Y136850D02*
D03*
Y130550D02*
D03*
X74600Y130550D02*
D03*
Y136850D02*
D03*
X31700Y154950D02*
D03*
Y148650D02*
D03*
X126200Y9000D02*
D03*
Y2700D02*
D03*
X101347Y125956D02*
D03*
Y132255D02*
D03*
X73200Y14550D02*
D03*
Y8250D02*
D03*
X132100Y9030D02*
D03*
Y2730D02*
D03*
X92400Y6650D02*
D03*
Y350D02*
D03*
X46800Y92250D02*
D03*
Y85950D02*
D03*
X89400Y112125D02*
D03*
Y118425D02*
D03*
X111400Y112125D02*
D03*
Y118425D02*
D03*
X117300D02*
D03*
Y112125D02*
D03*
X83500D02*
D03*
Y118425D02*
D03*
X60500Y112125D02*
D03*
Y118425D02*
D03*
X54600Y112125D02*
D03*
Y118425D02*
D03*
D39*
X25800Y137075D02*
D03*
Y130325D02*
D03*
X140700Y-25275D02*
D03*
Y-18525D02*
D03*
X148300Y-25275D02*
D03*
Y-18525D02*
D03*
X53560Y155208D02*
D03*
Y148458D02*
D03*
X65400Y155200D02*
D03*
Y148450D02*
D03*
X52500Y7900D02*
D03*
Y14650D02*
D03*
X58600Y8000D02*
D03*
Y14750D02*
D03*
X59460Y148458D02*
D03*
Y155208D02*
D03*
X25800Y155175D02*
D03*
Y148425D02*
D03*
X41630Y155175D02*
D03*
Y148425D02*
D03*
X47700Y148425D02*
D03*
Y155175D02*
D03*
X80500Y130325D02*
D03*
Y137075D02*
D03*
X107247Y132481D02*
D03*
Y125731D02*
D03*
X89979Y155175D02*
D03*
Y148425D02*
D03*
X96000Y155175D02*
D03*
Y148425D02*
D03*
X121000Y217600D02*
D03*
Y224350D02*
D03*
X132000Y-169025D02*
D03*
Y-175775D02*
D03*
X118800Y-25275D02*
D03*
Y-18525D02*
D03*
X40900Y70325D02*
D03*
Y77075D02*
D03*
X127200Y224350D02*
D03*
Y217600D02*
D03*
X35000Y92575D02*
D03*
Y85825D02*
D03*
X72800Y85850D02*
D03*
X66857D02*
D03*
X107270Y33875D02*
D03*
Y27125D02*
D03*
X79000Y14750D02*
D03*
Y8000D02*
D03*
X78000Y33875D02*
D03*
Y27125D02*
D03*
X101370Y33875D02*
D03*
Y27125D02*
D03*
X102400Y225D02*
D03*
Y6975D02*
D03*
X83900Y33875D02*
D03*
Y27125D02*
D03*
X148200Y8850D02*
D03*
Y2100D02*
D03*
X77670Y118650D02*
D03*
Y111900D02*
D03*
X126100Y118650D02*
D03*
Y111900D02*
D03*
X71770Y118650D02*
D03*
Y111900D02*
D03*
X40900Y92575D02*
D03*
Y85825D02*
D03*
X137900Y-175775D02*
D03*
Y-169025D02*
D03*
X120000Y-175775D02*
D03*
Y-169025D02*
D03*
X114100Y-169019D02*
D03*
Y-175769D02*
D03*
X80500Y142100D02*
D03*
Y148850D02*
D03*
X29100Y48450D02*
D03*
Y41700D02*
D03*
X35000Y48450D02*
D03*
Y41700D02*
D03*
X40900Y48450D02*
D03*
Y41700D02*
D03*
X58530Y48450D02*
D03*
Y41700D02*
D03*
X52653Y48450D02*
D03*
Y41700D02*
D03*
X46800Y48450D02*
D03*
Y41700D02*
D03*
Y30550D02*
D03*
Y23800D02*
D03*
X52700Y30550D02*
D03*
Y23800D02*
D03*
X58600Y30550D02*
D03*
Y23800D02*
D03*
X29100Y30550D02*
D03*
Y23800D02*
D03*
X35000Y30550D02*
D03*
Y23800D02*
D03*
X40900Y30550D02*
D03*
Y23800D02*
D03*
X72800Y79100D02*
D03*
X66857D02*
D03*
X40853Y58498D02*
D03*
Y65248D02*
D03*
X46753Y58525D02*
D03*
Y65275D02*
D03*
X52653Y58525D02*
D03*
Y65275D02*
D03*
X58553Y58525D02*
D03*
Y65275D02*
D03*
X29053Y58500D02*
D03*
Y65250D02*
D03*
X34953Y58500D02*
D03*
Y65250D02*
D03*
X95300Y118675D02*
D03*
Y111925D02*
D03*
X101200Y118675D02*
D03*
Y111925D02*
D03*
D43*
X146750Y78700D02*
D03*
X153050D02*
D03*
X98450Y227200D02*
D03*
X104750D02*
D03*
X156475Y150600D02*
D03*
X150175D02*
D03*
X104750Y215100D02*
D03*
X98450D02*
D03*
D51*
X232796Y297086D02*
G03*
X224921Y304960I-7874J0D01*
G01*
X-34921D02*
G03*
X-42795Y297086I0J-7874D01*
G01*
X106811Y204566D02*
G03*
X106811Y208503I0J1969D01*
G01*
X32008D02*
G03*
X32008Y204566I0J-1969D01*
G01*
X18229D02*
G03*
X18229Y208503I0J1969D01*
G01*
X153858Y204566D02*
G03*
X153858Y208503I0J1969D01*
G01*
X125000Y208503D02*
G03*
X125000Y204566I-0J-1969D01*
G01*
X169803Y208503D02*
G03*
X169803Y204566I0J-1969D01*
G01*
X224921Y-219980D02*
G03*
X232796Y-212106I0J7874D01*
G01*
X-42780Y-212122D02*
G03*
X-34906Y-219996I7874J0D01*
G01*
X-42795Y-212126D02*
Y204567D01*
X232796Y297086D02*
X232796Y297086D01*
Y208503D02*
Y297086D01*
Y-212126D02*
Y204566D01*
X-42795Y208503D02*
Y297086D01*
Y204566D02*
X18229D01*
X-42795Y208503D02*
X18229D01*
X169803D02*
X232796D01*
X169803Y204566D02*
X232796D01*
X32008Y208503D02*
X106811Y208503D01*
X32008Y204566D02*
X106811Y204566D01*
X-34921Y304960D02*
X224921D01*
X125000Y208503D02*
X153858D01*
X125000Y204566D02*
X153858D01*
X-34921Y-220000D02*
X224921D01*
D62*
X71778Y-219968D02*
X84298D01*
Y-212488D01*
X87841D01*
Y-219968D02*
Y-212488D01*
Y-219968D02*
X95400D01*
X102959D01*
Y-212488D01*
X106502D01*
Y-219968D02*
Y-212488D01*
Y-219968D02*
X119022D01*
X161102Y304789D02*
X173622D01*
X161102Y297309D02*
Y304789D01*
X157559Y297309D02*
X161102D01*
X157559D02*
Y304789D01*
X150000D02*
X157559D01*
X142441D02*
X150000D01*
X142441Y297309D02*
Y304789D01*
X138898Y297309D02*
X142441D01*
X138898D02*
Y304789D01*
X126378D02*
X138898D01*
D63*
X128000Y303479D02*
Y304266D01*
X127606D01*
X127475Y304135D01*
Y304003D01*
X127606Y303872D01*
X128000D01*
X127606D01*
X127475Y303741D01*
Y303610D01*
X127606Y303479D01*
X128000D01*
X127082Y304266D02*
X126819D01*
X126688Y304135D01*
Y303872D01*
X126819Y303741D01*
X127082D01*
X127213Y303872D01*
Y304135D01*
X127082Y304266D01*
X126295Y303741D02*
X126032D01*
X125901Y303872D01*
Y304266D01*
X126295D01*
X126426Y304135D01*
X126295Y304003D01*
X125901D01*
X125639Y303741D02*
Y304266D01*
Y304003D01*
X125507Y303872D01*
X125376Y303741D01*
X125245D01*
X124327Y303479D02*
Y304266D01*
X124720D01*
X124851Y304135D01*
Y303872D01*
X124720Y303741D01*
X124327D01*
X122883Y304266D02*
X123146D01*
X123277Y304135D01*
Y303872D01*
X123146Y303741D01*
X122883D01*
X122752Y303872D01*
Y304003D01*
X123277D01*
X121965Y303479D02*
Y304266D01*
X122359D01*
X122490Y304135D01*
Y303872D01*
X122359Y303741D01*
X121965D01*
X121440Y304528D02*
X121309D01*
X121178Y304397D01*
Y303741D01*
X121572D01*
X121703Y303872D01*
Y304135D01*
X121572Y304266D01*
X121178D01*
X120522D02*
X120784D01*
X120916Y304135D01*
Y303872D01*
X120784Y303741D01*
X120522D01*
X120391Y303872D01*
Y304003D01*
X120916D01*
D76*
X99700Y-194780D02*
D03*
Y-192220D02*
D03*
D77*
X148353Y-7750D02*
D03*
Y-13250D02*
D03*
D78*
X115653Y215098D02*
D03*
X113684D02*
D03*
X111716D02*
D03*
X109747D02*
D03*
X115653Y227302D02*
D03*
X113684D02*
D03*
X111716D02*
D03*
X109747D02*
D03*
D79*
X60769Y136669D02*
D03*
X58800D02*
D03*
X56832D02*
D03*
X60769Y134700D02*
D03*
X58800D02*
D03*
X56832D02*
D03*
X60769Y132731D02*
D03*
X58800D02*
D03*
X56832D02*
D03*
X90737Y137094D02*
D03*
X88769D02*
D03*
X86800D02*
D03*
X90737Y135126D02*
D03*
X88769D02*
D03*
X86800D02*
D03*
X90737Y133157D02*
D03*
X88769D02*
D03*
X86800D02*
D03*
D80*
X150475Y43300D02*
D03*
X143725D02*
D03*
X132475Y14800D02*
D03*
X125725D02*
D03*
X146525Y84600D02*
D03*
X153275D02*
D03*
X146525Y90500D02*
D03*
X153275D02*
D03*
X-500Y-159900D02*
D03*
X6250D02*
D03*
X-500Y-149900D02*
D03*
X6250D02*
D03*
X-500Y-139900D02*
D03*
X6250D02*
D03*
X6250Y-133900D02*
D03*
X-500D02*
D03*
X162825Y86000D02*
D03*
X169575D02*
D03*
X162825Y96000D02*
D03*
X169575D02*
D03*
X162825Y124000D02*
D03*
X169575D02*
D03*
X162825Y129900D02*
D03*
X169575D02*
D03*
X162850Y150600D02*
D03*
X169600D02*
D03*
X3000Y157700D02*
D03*
X-3750D02*
D03*
X156875Y-74200D02*
D03*
X150125D02*
D03*
X45775Y290000D02*
D03*
X39025D02*
D03*
X45775Y280000D02*
D03*
X39025D02*
D03*
X45775Y270000D02*
D03*
X39025D02*
D03*
X45775Y260000D02*
D03*
X39025D02*
D03*
X191450Y-150100D02*
D03*
X184700D02*
D03*
X-575Y-174100D02*
D03*
X6175D02*
D03*
X184700Y-144200D02*
D03*
X191450D02*
D03*
X3000Y169500D02*
D03*
X-3750D02*
D03*
X162825Y138700D02*
D03*
X169575D02*
D03*
X169600Y144600D02*
D03*
X162850D02*
D03*
X169775Y-74100D02*
D03*
X163025D02*
D03*
X3000Y163600D02*
D03*
X-3750D02*
D03*
X169775Y-85900D02*
D03*
X163025D02*
D03*
X163025Y-80000D02*
D03*
X169775D02*
D03*
X169800Y-67700D02*
D03*
X163050D02*
D03*
X169775Y-57700D02*
D03*
X163025D02*
D03*
X163025Y-51800D02*
D03*
X169775D02*
D03*
X169775Y-45900D02*
D03*
X163025D02*
D03*
X163025Y-40000D02*
D03*
X169775D02*
D03*
X163025Y-30000D02*
D03*
X169775D02*
D03*
X163025Y-20000D02*
D03*
X169775D02*
D03*
X162825Y-100D02*
D03*
X169575D02*
D03*
X162825Y10000D02*
D03*
X169575D02*
D03*
X20975Y260000D02*
D03*
X14225D02*
D03*
X20975Y270000D02*
D03*
X14225D02*
D03*
X20975Y280000D02*
D03*
X14225D02*
D03*
X20975Y290000D02*
D03*
X14225D02*
D03*
X28575Y5500D02*
D03*
X21825D02*
D03*
X28575Y-4600D02*
D03*
X21825D02*
D03*
M02*
