%FSLAX25Y25*%
%MOIN*%
G70*
G01*
G75*
%ADD10R,0.01575X0.05315*%
%ADD11R,0.07087X0.07480*%
%ADD12R,0.05906X0.07480*%
%ADD13R,0.03937X0.03937*%
%ADD14C,0.03937*%
%ADD15R,0.04724X0.02362*%
%ADD16R,0.03937X0.00787*%
%ADD17R,0.00787X0.03937*%
%ADD18R,0.03937X0.07087*%
%ADD19R,0.02362X0.04331*%
%ADD20R,0.01600X0.03000*%
%ADD21R,0.06496X0.01181*%
%ADD22R,0.01181X0.06496*%
G04:AMPARAMS|DCode=23|XSize=39.37mil|YSize=98.43mil|CornerRadius=0mil|HoleSize=0mil|Usage=FLASHONLY|Rotation=135.000|XOffset=0mil|YOffset=0mil|HoleType=Round|Shape=Rectangle|*
%AMROTATEDRECTD23*
4,1,4,0.04872,0.02088,-0.02088,-0.04872,-0.04872,-0.02088,0.02088,0.04872,0.04872,0.02088,0.0*
%
%ADD23ROTATEDRECTD23*%

G04:AMPARAMS|DCode=24|XSize=39.37mil|YSize=98.43mil|CornerRadius=0mil|HoleSize=0mil|Usage=FLASHONLY|Rotation=225.000|XOffset=0mil|YOffset=0mil|HoleType=Round|Shape=Rectangle|*
%AMROTATEDRECTD24*
4,1,4,-0.02088,0.04872,0.04872,-0.02088,0.02088,-0.04872,-0.04872,0.02088,-0.02088,0.04872,0.0*
%
%ADD24ROTATEDRECTD24*%

%ADD25R,0.08661X0.02362*%
%ADD26R,0.01772X0.01969*%
%ADD27R,0.07874X0.04724*%
%ADD28R,0.08000X0.04000*%
%ADD29R,0.09000X0.12000*%
%ADD30R,0.04331X0.05906*%
%ADD31R,0.01575X0.05315*%
%ADD32R,0.06000X0.05000*%
%ADD33R,0.11024X0.05906*%
%ADD34R,0.10630X0.05906*%
%ADD35R,0.09055X0.07087*%
%ADD36R,0.03150X0.03543*%
%ADD37R,0.07874X0.02362*%
%ADD38R,0.03937X0.03543*%
%ADD39R,0.04000X0.03200*%
%ADD40C,0.00906*%
%ADD41R,0.01969X0.00984*%
%ADD42R,0.00984X0.01969*%
%ADD43R,0.03543X0.03937*%
%ADD44R,0.05315X0.01575*%
%ADD45R,0.03937X0.03937*%
%ADD46R,0.05906X0.10630*%
%ADD47R,0.05000X0.06000*%
%ADD48C,0.01000*%
%ADD49C,0.03000*%
%ADD50C,0.02000*%
%ADD51C,0.00500*%
%ADD52C,0.00800*%
%ADD53C,0.00900*%
%ADD54C,0.00600*%
%ADD55C,0.04000*%
%ADD56C,0.00610*%
%ADD57C,0.01600*%
%ADD58R,0.09000X0.05500*%
%ADD59R,0.11400X0.05400*%
%ADD60R,0.24300X0.08400*%
%ADD61R,0.23700X0.05006*%
%ADD62C,0.00394*%
%ADD63C,0.00197*%
%ADD64O,0.06299X0.07874*%
%ADD65R,0.09449X0.07480*%
%ADD66C,0.05709*%
%ADD67O,0.07087X0.05906*%
%ADD68R,0.07087X0.05906*%
%ADD69C,0.05906*%
%ADD70R,0.05906X0.05906*%
%ADD71R,0.05906X0.05906*%
%ADD72C,0.12598*%
%ADD73C,0.01500*%
%ADD74C,0.01600*%
%ADD75C,0.02000*%
%ADD76R,0.01181X0.01772*%
%ADD77R,0.03000X0.03000*%
%ADD78R,0.01181X0.03150*%
%ADD79C,0.01260*%
%ADD80R,0.03200X0.04000*%
%ADD81C,0.00984*%
%ADD82C,0.00787*%
%ADD83C,0.00050*%
%ADD84C,0.01200*%
%ADD85C,0.00300*%
%ADD86C,0.00120*%
%ADD87R,0.00730X0.02560*%
%ADD88R,0.06700X0.01800*%
%ADD89R,0.00650X0.02300*%
%ADD90R,0.03000X0.13551*%
%ADD91R,0.02300X0.00650*%
%ADD92R,0.01800X0.06700*%
%ADD93R,0.02560X0.00730*%
%ADD94R,0.02375X0.06115*%
%ADD95R,0.07887X0.08280*%
%ADD96R,0.06706X0.08280*%
%ADD97C,0.04737*%
%ADD98R,0.05524X0.03162*%
%ADD99R,0.04737X0.01587*%
%ADD100R,0.01587X0.04737*%
%ADD101R,0.04737X0.07887*%
%ADD102R,0.03162X0.05131*%
%ADD103R,0.02400X0.03800*%
%ADD104R,0.07296X0.01981*%
%ADD105R,0.01981X0.07296*%
G04:AMPARAMS|DCode=106|XSize=47.37mil|YSize=106.42mil|CornerRadius=0mil|HoleSize=0mil|Usage=FLASHONLY|Rotation=135.000|XOffset=0mil|YOffset=0mil|HoleType=Round|Shape=Rectangle|*
%AMROTATEDRECTD106*
4,1,4,0.05438,0.02088,-0.02088,-0.05438,-0.05438,-0.02088,0.02088,0.05438,0.05438,0.02088,0.0*
%
%ADD106ROTATEDRECTD106*%

G04:AMPARAMS|DCode=107|XSize=47.37mil|YSize=106.42mil|CornerRadius=0mil|HoleSize=0mil|Usage=FLASHONLY|Rotation=225.000|XOffset=0mil|YOffset=0mil|HoleType=Round|Shape=Rectangle|*
%AMROTATEDRECTD107*
4,1,4,-0.02088,0.05438,0.05438,-0.02088,0.02088,-0.05438,-0.05438,0.02088,-0.02088,0.05438,0.0*
%
%ADD107ROTATEDRECTD107*%

%ADD108R,0.09461X0.03162*%
%ADD109R,0.02572X0.02769*%
%ADD110R,0.08674X0.05524*%
%ADD111R,0.08800X0.04800*%
%ADD112R,0.09800X0.12800*%
%ADD113R,0.05131X0.06706*%
%ADD114R,0.02375X0.06115*%
%ADD115R,0.06800X0.05800*%
%ADD116R,0.11824X0.06706*%
%ADD117R,0.11430X0.06706*%
%ADD118R,0.09855X0.07887*%
%ADD119R,0.03950X0.04343*%
%ADD120R,0.08674X0.03162*%
%ADD121R,0.04737X0.04343*%
%ADD122R,0.04800X0.04000*%
%ADD123C,0.01706*%
%ADD124R,0.02769X0.01784*%
%ADD125R,0.01784X0.02769*%
%ADD126R,0.04343X0.04737*%
%ADD127R,0.06115X0.02375*%
%ADD128R,0.06706X0.11430*%
%ADD129R,0.05800X0.06800*%
%ADD130O,0.07099X0.08674*%
%ADD131R,0.10249X0.08280*%
%ADD132C,0.06509*%
%ADD133O,0.07887X0.06706*%
%ADD134R,0.07887X0.06706*%
%ADD135C,0.06706*%
%ADD136R,0.06706X0.06706*%
%ADD137R,0.06706X0.06706*%
%ADD138C,0.13398*%
%ADD139R,0.01981X0.02572*%
%ADD140R,0.03800X0.03800*%
%ADD141R,0.01981X0.03950*%
%ADD142C,0.02060*%
%ADD143R,0.04000X0.04800*%
%ADD144C,0.00400*%
%ADD145C,0.00667*%
%ADD146C,0.00700*%
%ADD147C,0.01180*%
%ADD148R,0.64400X0.01700*%
%ADD149C,0.01400*%
D51*
X232796Y297086D02*
G03*
X224921Y304960I-7874J0D01*
G01*
X-34921D02*
G03*
X-42795Y297086I0J-7874D01*
G01*
X106811Y204566D02*
G03*
X106811Y208503I0J1969D01*
G01*
X32008D02*
G03*
X32008Y204566I0J-1969D01*
G01*
X18229D02*
G03*
X18229Y208503I0J1969D01*
G01*
X153858Y204566D02*
G03*
X153858Y208503I0J1969D01*
G01*
X125000Y208503D02*
G03*
X125000Y204566I-0J-1969D01*
G01*
X169803Y208503D02*
G03*
X169803Y204566I0J-1969D01*
G01*
X224921Y-219980D02*
G03*
X232796Y-212106I0J7874D01*
G01*
X-42780Y-212122D02*
G03*
X-34906Y-219996I7874J0D01*
G01*
X-42795Y-212126D02*
Y204567D01*
X232796Y297086D02*
X232796Y297086D01*
Y208503D02*
Y297086D01*
Y-212126D02*
Y204566D01*
X-42795Y208503D02*
Y297086D01*
Y204566D02*
X18229D01*
X-42795Y208503D02*
X18229D01*
X169803D02*
X232796D01*
X169803Y204566D02*
X232796D01*
X32008Y208503D02*
X106811Y208503D01*
X32008Y204566D02*
X106811Y204566D01*
X-34921Y304960D02*
X224921D01*
X125000Y208503D02*
X153858D01*
X125000Y204566D02*
X153858D01*
X-34921Y-220000D02*
X224921D01*
X102920Y-202891D02*
X107644D01*
X105282Y-205254D02*
Y-200529D01*
X83120Y-202891D02*
X87844D01*
X85482Y-205254D02*
Y-200529D01*
X77684Y-214309D02*
X83589D01*
X80636Y-217261D02*
Y-211356D01*
X107211Y-214309D02*
X113117D01*
X110164Y-217261D02*
Y-211356D01*
X138484Y288500D02*
X141831D01*
X140157Y286827D02*
Y290173D01*
X158169Y288500D02*
X161516D01*
X159843Y286827D02*
Y290173D01*
X162598Y299130D02*
X164961D01*
X163779Y297949D02*
Y300311D01*
X135039Y299130D02*
X137402D01*
X136221Y297949D02*
Y300311D01*
X187992Y-70000D02*
X192008D01*
X190000Y-72008D02*
Y-67992D01*
X177992Y-70000D02*
X182008D01*
X180000Y-72008D02*
Y-67992D01*
X177992Y-30000D02*
X182008D01*
X180000Y-32008D02*
Y-27992D01*
X187992Y-30000D02*
X192008D01*
X190000Y-32008D02*
Y-27992D01*
X187992Y-50000D02*
X192008D01*
X190000Y-52008D02*
Y-47992D01*
X177992Y-50000D02*
X182008D01*
X180000Y-52008D02*
Y-47992D01*
X187992Y-40000D02*
X192008D01*
X190000Y-42008D02*
Y-37992D01*
X177992Y-40000D02*
X182008D01*
X180000Y-42008D02*
Y-37992D01*
X177992Y-60000D02*
X182008D01*
X180000Y-62008D02*
Y-57992D01*
X187992Y-60000D02*
X192008D01*
X190000Y-62008D02*
Y-57992D01*
X187992Y-10000D02*
X192008D01*
X190000Y-12008D02*
Y-7992D01*
X177992Y-10000D02*
X182008D01*
X180000Y-12008D02*
Y-7992D01*
X177992Y10000D02*
X182008D01*
X180000Y7992D02*
Y12008D01*
X187992Y10000D02*
X192008D01*
X190000Y7992D02*
Y12008D01*
X177992Y0D02*
X182008D01*
X180000Y-2008D02*
Y2008D01*
X187992Y0D02*
X192008D01*
X190000Y-2008D02*
Y2008D01*
X177992Y70000D02*
X182008D01*
X180000Y67992D02*
Y72008D01*
X187992Y20000D02*
X192008D01*
X190000Y17992D02*
Y22008D01*
X177992Y20000D02*
X182008D01*
X180000Y17992D02*
Y22008D01*
X187992Y30000D02*
X192008D01*
X190000Y27992D02*
Y32008D01*
X177992Y30000D02*
X182008D01*
X180000Y27992D02*
Y32008D01*
X187992Y40000D02*
X192008D01*
X190000Y37992D02*
Y42008D01*
X177992Y40000D02*
X182008D01*
X180000Y37992D02*
Y42008D01*
X187992Y50000D02*
X192008D01*
X190000Y47992D02*
Y52008D01*
X177992Y50000D02*
X182008D01*
X180000Y47992D02*
Y52008D01*
X187992Y60000D02*
X192008D01*
X190000Y57992D02*
Y62008D01*
X177992Y60000D02*
X182008D01*
X180000Y57992D02*
Y62008D01*
X187992Y70000D02*
X192008D01*
X190000Y67992D02*
Y72008D01*
X177992Y-20000D02*
X182008D01*
X180000Y-22008D02*
Y-17992D01*
X187992Y-20000D02*
X192008D01*
X190000Y-22008D02*
Y-17992D01*
X187992Y-80000D02*
X192008D01*
X190000Y-82008D02*
Y-77992D01*
X177992Y-80000D02*
X182008D01*
X180000Y-82008D02*
Y-77992D01*
X177992Y-90000D02*
X182008D01*
X180000Y-92008D02*
Y-87992D01*
X187992Y-90000D02*
X192008D01*
X190000Y-92008D02*
Y-87992D01*
X187992Y86000D02*
X192008D01*
X190000Y83992D02*
Y88008D01*
X177992Y86000D02*
X182008D01*
X180000Y83992D02*
Y88008D01*
X187992Y176000D02*
X192008D01*
X190000Y173992D02*
Y178008D01*
X177992Y166000D02*
X182008D01*
X180000Y163992D02*
Y168008D01*
X187992Y166000D02*
X192008D01*
X190000Y163992D02*
Y168008D01*
X177992Y156000D02*
X182008D01*
X180000Y153992D02*
Y158008D01*
X187992Y156000D02*
X192008D01*
X190000Y153992D02*
Y158008D01*
X177992Y146000D02*
X182008D01*
X180000Y143992D02*
Y148008D01*
X187992Y146000D02*
X192008D01*
X190000Y143992D02*
Y148008D01*
X177992Y136000D02*
X182008D01*
X180000Y133992D02*
Y138008D01*
X187992Y136000D02*
X192008D01*
X190000Y133992D02*
Y138008D01*
X177992Y126000D02*
X182008D01*
X180000Y123992D02*
Y128008D01*
X187992Y126000D02*
X192008D01*
X190000Y123992D02*
Y128008D01*
X177992Y176000D02*
X182008D01*
X180000Y173992D02*
Y178008D01*
X187992Y106000D02*
X192008D01*
X190000Y103992D02*
Y108008D01*
X177992Y106000D02*
X182008D01*
X180000Y103992D02*
Y108008D01*
X187992Y116000D02*
X192008D01*
X190000Y113992D02*
Y118008D01*
X177992Y116000D02*
X182008D01*
X180000Y113992D02*
Y118008D01*
X177992Y96000D02*
X182008D01*
X180000Y93992D02*
Y98008D01*
X187992Y96000D02*
X192008D01*
X190000Y93992D02*
Y98008D01*
X7992Y-90000D02*
X12008D01*
X10000Y-92008D02*
Y-87992D01*
X-2008Y-90000D02*
X2008D01*
X0Y-92008D02*
Y-87992D01*
X-2008Y-50000D02*
X2008D01*
X0Y-52008D02*
Y-47992D01*
X7992Y-50000D02*
X12008D01*
X10000Y-52008D02*
Y-47992D01*
X7992Y-70000D02*
X12008D01*
X10000Y-72008D02*
Y-67992D01*
X-2008Y-70000D02*
X2008D01*
X0Y-72008D02*
Y-67992D01*
X7992Y-60000D02*
X12008D01*
X10000Y-62008D02*
Y-57992D01*
X-2008Y-60000D02*
X2008D01*
X0Y-62008D02*
Y-57992D01*
X-2008Y-80000D02*
X2008D01*
X0Y-82008D02*
Y-77992D01*
X7992Y-80000D02*
X12008D01*
X10000Y-82008D02*
Y-77992D01*
X7992Y-30000D02*
X12008D01*
X10000Y-32008D02*
Y-27992D01*
X-2008Y-30000D02*
X2008D01*
X0Y-32008D02*
Y-27992D01*
X-2008Y-10000D02*
X2008D01*
X0Y-12008D02*
Y-7992D01*
X7992Y-10000D02*
X12008D01*
X10000Y-12008D02*
Y-7992D01*
X-2008Y-20000D02*
X2008D01*
X0Y-22008D02*
Y-17992D01*
X7992Y-20000D02*
X12008D01*
X10000Y-22008D02*
Y-17992D01*
X-2008Y50000D02*
X2008D01*
X0Y47992D02*
Y52008D01*
X7992Y0D02*
X12008D01*
X10000Y-2008D02*
Y2008D01*
X-2008Y0D02*
X2008D01*
X0Y-2008D02*
Y2008D01*
X7992Y10000D02*
X12008D01*
X10000Y7992D02*
Y12008D01*
X-2008Y10000D02*
X2008D01*
X0Y7992D02*
Y12008D01*
X7992Y20000D02*
X12008D01*
X10000Y17992D02*
Y22008D01*
X-2008Y20000D02*
X2008D01*
X0Y17992D02*
Y22008D01*
X7992Y30000D02*
X12008D01*
X10000Y27992D02*
Y32008D01*
X-2008Y30000D02*
X2008D01*
X0Y27992D02*
Y32008D01*
X7992Y40000D02*
X12008D01*
X10000Y37992D02*
Y42008D01*
X-2008Y40000D02*
X2008D01*
X0Y37992D02*
Y42008D01*
X7992Y50000D02*
X12008D01*
X10000Y47992D02*
Y52008D01*
X-2008Y-40000D02*
X2008D01*
X0Y-42008D02*
Y-37992D01*
X7992Y-40000D02*
X12008D01*
X10000Y-42008D02*
Y-37992D01*
X7992Y140000D02*
X12008D01*
X10000Y137992D02*
Y142008D01*
X-2008Y130000D02*
X2008D01*
X0Y127992D02*
Y132008D01*
X7992Y130000D02*
X12008D01*
X10000Y127992D02*
Y132008D01*
X-2008Y120000D02*
X2008D01*
X0Y117992D02*
Y122008D01*
X7992Y120000D02*
X12008D01*
X10000Y117992D02*
Y122008D01*
X-2008Y110000D02*
X2008D01*
X0Y107992D02*
Y112008D01*
X7992Y110000D02*
X12008D01*
X10000Y107992D02*
Y112008D01*
X-2008Y100000D02*
X2008D01*
X0Y97992D02*
Y102008D01*
X7992Y100000D02*
X12008D01*
X10000Y97992D02*
Y102008D01*
X-2008Y90000D02*
X2008D01*
X0Y87992D02*
Y92008D01*
X7992Y90000D02*
X12008D01*
X10000Y87992D02*
Y92008D01*
X-2008Y140000D02*
X2008D01*
X0Y137992D02*
Y142008D01*
X7992Y70000D02*
X12008D01*
X10000Y67992D02*
Y72008D01*
X-2008Y70000D02*
X2008D01*
X0Y67992D02*
Y72008D01*
X7992Y80000D02*
X12008D01*
X10000Y77992D02*
Y82008D01*
X-2008Y80000D02*
X2008D01*
X0Y77992D02*
Y82008D01*
X92447Y28503D02*
X98352D01*
X95399Y25551D02*
Y31456D01*
X92447Y91496D02*
X98353D01*
X95400Y88543D02*
Y94449D01*
X217992Y290000D02*
X222008D01*
X220000Y287992D02*
Y292008D01*
X217992Y280000D02*
X222008D01*
X220000Y277992D02*
Y282008D01*
X27992Y290000D02*
X32008D01*
X30000Y287992D02*
Y292008D01*
X27992Y280000D02*
X32008D01*
X30000Y277992D02*
Y282008D01*
X27992Y270000D02*
X32008D01*
X30000Y267992D02*
Y272008D01*
X27992Y260000D02*
X32008D01*
X30000Y257992D02*
Y262008D01*
X-12008Y220000D02*
X-7992D01*
X-10000Y217992D02*
Y222008D01*
X-12008Y270000D02*
X-7992D01*
X-10000Y267992D02*
Y272008D01*
X-12008Y260000D02*
X-7992D01*
X-10000Y257992D02*
Y262008D01*
X-12008Y250000D02*
X-7992D01*
X-10000Y247992D02*
Y252008D01*
X-12008Y240000D02*
X-7992D01*
X-10000Y237992D02*
Y242008D01*
X-12008Y230000D02*
X-7992D01*
X-10000Y227992D02*
Y232008D01*
X-22008Y140000D02*
X-17992D01*
X-20000Y137992D02*
Y142008D01*
X-22008Y150000D02*
X-17992D01*
X-20000Y147992D02*
Y152008D01*
X-22008Y160000D02*
X-17992D01*
X-20000Y157992D02*
Y162008D01*
X-22008Y170000D02*
X-17992D01*
X-20000Y167992D02*
Y172008D01*
X-22008Y130000D02*
X-17992D01*
X-20000Y127992D02*
Y132008D01*
X-22008Y80000D02*
X-17992D01*
X-20000Y77992D02*
Y82008D01*
X-22008Y120000D02*
X-17992D01*
X-20000Y117992D02*
Y122008D01*
X-22008Y110000D02*
X-17992D01*
X-20000Y107992D02*
Y112008D01*
X-22008Y100000D02*
X-17992D01*
X-20000Y97992D02*
Y102008D01*
X-22008Y90000D02*
X-17992D01*
X-20000Y87992D02*
Y92008D01*
X-22008Y30000D02*
X-17992D01*
X-20000Y27992D02*
Y32008D01*
X-22008Y70000D02*
X-17992D01*
X-20000Y67992D02*
Y72008D01*
X-22008Y60000D02*
X-17992D01*
X-20000Y57992D02*
Y62008D01*
X-22008Y50000D02*
X-17992D01*
X-20000Y47992D02*
Y52008D01*
X-22008Y40000D02*
X-17992D01*
X-20000Y37992D02*
Y42008D01*
X-22008Y-20000D02*
X-17992D01*
X-20000Y-22008D02*
Y-17992D01*
X-22008Y20000D02*
X-17992D01*
X-20000Y17992D02*
Y22008D01*
X-22008Y10000D02*
X-17992D01*
X-20000Y7992D02*
Y12008D01*
X-22008Y0D02*
X-17992D01*
X-20000Y-2008D02*
Y2008D01*
X-22008Y-10000D02*
X-17992D01*
X-20000Y-12008D02*
Y-7992D01*
X-22008Y-30000D02*
X-17992D01*
X-20000Y-32008D02*
Y-27992D01*
X-22008Y-40000D02*
X-17992D01*
X-20000Y-42008D02*
Y-37992D01*
X-22008Y-50000D02*
X-17992D01*
X-20000Y-52008D02*
Y-47992D01*
X-22008Y-60000D02*
X-17992D01*
X-20000Y-62008D02*
Y-57992D01*
X-22008Y-160000D02*
X-17992D01*
X-20000Y-162008D02*
Y-157992D01*
X-22008Y-150000D02*
X-17992D01*
X-20000Y-152008D02*
Y-147992D01*
X-22008Y-140000D02*
X-17992D01*
X-20000Y-142008D02*
Y-137992D01*
X-22008Y-130000D02*
X-17992D01*
X-20000Y-132008D02*
Y-127992D01*
X-22008Y-110000D02*
X-17992D01*
X-20000Y-112008D02*
Y-107992D01*
X-22008Y-100000D02*
X-17992D01*
X-20000Y-102008D02*
Y-97992D01*
X-22008Y-90000D02*
X-17992D01*
X-20000Y-92008D02*
Y-87992D01*
X-22008Y-80000D02*
X-17992D01*
X-20000Y-82008D02*
Y-77992D01*
X-22008Y-120000D02*
X-17992D01*
X-20000Y-122008D02*
Y-117992D01*
X-22008Y-70000D02*
X-17992D01*
X-20000Y-72008D02*
Y-67992D01*
X-32008Y-70000D02*
X-27992D01*
X-30000Y-72008D02*
Y-67992D01*
X-32008Y-120000D02*
X-27992D01*
X-30000Y-122008D02*
Y-117992D01*
X-32008Y-80000D02*
X-27992D01*
X-30000Y-82008D02*
Y-77992D01*
X-32008Y-90000D02*
X-27992D01*
X-30000Y-92008D02*
Y-87992D01*
X-32008Y-100000D02*
X-27992D01*
X-30000Y-102008D02*
Y-97992D01*
X-32008Y-110000D02*
X-27992D01*
X-30000Y-112008D02*
Y-107992D01*
X-32008Y-130000D02*
X-27992D01*
X-30000Y-132008D02*
Y-127992D01*
X-32008Y-140000D02*
X-27992D01*
X-30000Y-142008D02*
Y-137992D01*
X-32008Y-150000D02*
X-27992D01*
X-30000Y-152008D02*
Y-147992D01*
X-32008Y-160000D02*
X-27992D01*
X-30000Y-162008D02*
Y-157992D01*
X-32008Y-60000D02*
X-27992D01*
X-30000Y-62008D02*
Y-57992D01*
X-32008Y-50000D02*
X-27992D01*
X-30000Y-52008D02*
Y-47992D01*
X-32008Y-40000D02*
X-27992D01*
X-30000Y-42008D02*
Y-37992D01*
X-32008Y-30000D02*
X-27992D01*
X-30000Y-32008D02*
Y-27992D01*
X-32008Y-10000D02*
X-27992D01*
X-30000Y-12008D02*
Y-7992D01*
X-32008Y0D02*
X-27992D01*
X-30000Y-2008D02*
Y2008D01*
X-32008Y10000D02*
X-27992D01*
X-30000Y7992D02*
Y12008D01*
X-32008Y20000D02*
X-27992D01*
X-30000Y17992D02*
Y22008D01*
X-32008Y-20000D02*
X-27992D01*
X-30000Y-22008D02*
Y-17992D01*
X-32008Y40000D02*
X-27992D01*
X-30000Y37992D02*
Y42008D01*
X-32008Y50000D02*
X-27992D01*
X-30000Y47992D02*
Y52008D01*
X-32008Y60000D02*
X-27992D01*
X-30000Y57992D02*
Y62008D01*
X-32008Y70000D02*
X-27992D01*
X-30000Y67992D02*
Y72008D01*
X-32008Y30000D02*
X-27992D01*
X-30000Y27992D02*
Y32008D01*
X-32008Y90000D02*
X-27992D01*
X-30000Y87992D02*
Y92008D01*
X-32008Y100000D02*
X-27992D01*
X-30000Y97992D02*
Y102008D01*
X-32008Y110000D02*
X-27992D01*
X-30000Y107992D02*
Y112008D01*
X-32008Y120000D02*
X-27992D01*
X-30000Y117992D02*
Y122008D01*
X-32008Y80000D02*
X-27992D01*
X-30000Y77992D02*
Y82008D01*
X-32008Y130000D02*
X-27992D01*
X-30000Y127992D02*
Y132008D01*
X-32008Y170000D02*
X-27992D01*
X-30000Y167992D02*
Y172008D01*
X-32008Y160000D02*
X-27992D01*
X-30000Y157992D02*
Y162008D01*
X-32008Y150000D02*
X-27992D01*
X-30000Y147992D02*
Y152008D01*
X-32008Y140000D02*
X-27992D01*
X-30000Y137992D02*
Y142008D01*
X-32008Y180000D02*
X-27992D01*
X-30000Y177992D02*
Y182008D01*
X-22008Y180000D02*
X-17992D01*
X-20000Y177992D02*
Y182008D01*
X-32008Y-170000D02*
X-27992D01*
X-30000Y-172008D02*
Y-167992D01*
X-22008Y-170000D02*
X-17992D01*
X-20000Y-172008D02*
Y-167992D01*
X57992Y-210000D02*
X62008D01*
X60000Y-212008D02*
Y-207992D01*
X57992Y-200000D02*
X62008D01*
X60000Y-202008D02*
Y-197992D01*
X27992Y-210000D02*
X32008D01*
X30000Y-212008D02*
Y-207992D01*
X47992Y-200000D02*
X52008D01*
X50000Y-202008D02*
Y-197992D01*
X47992Y-210000D02*
X52008D01*
X50000Y-212008D02*
Y-207992D01*
X37992Y-200000D02*
X42008D01*
X40000Y-202008D02*
Y-197992D01*
X37992Y-210000D02*
X42008D01*
X40000Y-212008D02*
Y-207992D01*
X27992Y-200000D02*
X32008D01*
X30000Y-202008D02*
Y-197992D01*
X-32008Y220000D02*
X-27992D01*
X-30000Y217992D02*
Y222008D01*
X-32008Y230000D02*
X-27992D01*
X-30000Y227992D02*
Y232008D01*
X178701Y-105000D02*
X191299D01*
X185000Y-111299D02*
Y-98701D01*
X-1299Y-105000D02*
X11299D01*
X5000Y-111299D02*
Y-98701D01*
X-6299Y195000D02*
X6299D01*
X0Y188701D02*
Y201299D01*
X183701Y190000D02*
X196299D01*
X190000Y183701D02*
Y196299D01*
X123701Y-10000D02*
X136299D01*
X130000Y-16299D02*
Y-3701D01*
X87992Y292000D02*
X92008D01*
X90000Y289992D02*
Y294008D01*
X97992Y292000D02*
X102008D01*
X100000Y289992D02*
Y294008D01*
X97992Y165000D02*
X102008D01*
X100000Y162992D02*
Y167008D01*
X87992Y165000D02*
X92008D01*
X90000Y162992D02*
Y167008D01*
X27992Y220000D02*
X32008D01*
X30000Y217992D02*
Y222008D01*
X27992Y230000D02*
X32008D01*
X30000Y227992D02*
Y232008D01*
X7992Y220000D02*
X12008D01*
X10000Y217992D02*
Y222008D01*
X7992Y230000D02*
X12008D01*
X10000Y227992D02*
Y232008D01*
X57992Y165000D02*
X62008D01*
X60000Y162992D02*
Y167008D01*
X67992Y165000D02*
X72008D01*
X70000Y162992D02*
Y167008D01*
X-32008Y280000D02*
X-27992D01*
X-30000Y277992D02*
Y282008D01*
X-32008Y290000D02*
X-27992D01*
X-30000Y287992D02*
Y292008D01*
X157992Y165000D02*
X162008D01*
X160000Y162992D02*
Y167008D01*
X157992Y175000D02*
X162008D01*
X160000Y172992D02*
Y177008D01*
X127992Y165000D02*
X132008D01*
X130000Y162992D02*
Y167008D01*
X147992Y175000D02*
X152008D01*
X150000Y172992D02*
Y177008D01*
X147992Y165000D02*
X152008D01*
X150000Y162992D02*
Y167008D01*
X137992Y175000D02*
X142008D01*
X140000Y172992D02*
Y177008D01*
X137992Y165000D02*
X142008D01*
X140000Y162992D02*
Y167008D01*
X127992Y175000D02*
X132008D01*
X130000Y172992D02*
Y177008D01*
X217992Y139900D02*
X222008D01*
X220000Y137892D02*
Y141908D01*
X217992Y149900D02*
X222008D01*
X220000Y147892D02*
Y151908D01*
X217992Y159900D02*
X222008D01*
X220000Y157892D02*
Y161908D01*
X217992Y169900D02*
X222008D01*
X220000Y167892D02*
Y171908D01*
X217992Y129900D02*
X222008D01*
X220000Y127892D02*
Y131908D01*
X217992Y79900D02*
X222008D01*
X220000Y77892D02*
Y81908D01*
X217992Y119900D02*
X222008D01*
X220000Y117892D02*
Y121908D01*
X217992Y109900D02*
X222008D01*
X220000Y107892D02*
Y111908D01*
X217992Y99900D02*
X222008D01*
X220000Y97892D02*
Y101908D01*
X217992Y89900D02*
X222008D01*
X220000Y87892D02*
Y91908D01*
X217992Y29900D02*
X222008D01*
X220000Y27892D02*
Y31908D01*
X217992Y69900D02*
X222008D01*
X220000Y67892D02*
Y71908D01*
X217992Y59900D02*
X222008D01*
X220000Y57892D02*
Y61908D01*
X217992Y49900D02*
X222008D01*
X220000Y47892D02*
Y51908D01*
X217992Y39900D02*
X222008D01*
X220000Y37892D02*
Y41908D01*
X217992Y-20100D02*
X222008D01*
X220000Y-22108D02*
Y-18092D01*
X217992Y19900D02*
X222008D01*
X220000Y17892D02*
Y21908D01*
X217992Y9900D02*
X222008D01*
X220000Y7892D02*
Y11908D01*
X217992Y-100D02*
X222008D01*
X220000Y-2108D02*
Y1908D01*
X217992Y-10100D02*
X222008D01*
X220000Y-12108D02*
Y-8092D01*
X217992Y-30100D02*
X222008D01*
X220000Y-32108D02*
Y-28092D01*
X217992Y-40100D02*
X222008D01*
X220000Y-42108D02*
Y-38092D01*
X217992Y-50100D02*
X222008D01*
X220000Y-52108D02*
Y-48092D01*
X217992Y-60100D02*
X222008D01*
X220000Y-62108D02*
Y-58092D01*
X217992Y-160100D02*
X222008D01*
X220000Y-162108D02*
Y-158092D01*
X217992Y-150100D02*
X222008D01*
X220000Y-152108D02*
Y-148092D01*
X217992Y-140100D02*
X222008D01*
X220000Y-142108D02*
Y-138092D01*
X217992Y-130100D02*
X222008D01*
X220000Y-132108D02*
Y-128092D01*
X217992Y-110100D02*
X222008D01*
X220000Y-112108D02*
Y-108092D01*
X217992Y-100100D02*
X222008D01*
X220000Y-102108D02*
Y-98092D01*
X217992Y-90100D02*
X222008D01*
X220000Y-92108D02*
Y-88092D01*
X217992Y-80100D02*
X222008D01*
X220000Y-82108D02*
Y-78092D01*
X217992Y-120100D02*
X222008D01*
X220000Y-122108D02*
Y-118092D01*
X217992Y-70100D02*
X222008D01*
X220000Y-72108D02*
Y-68092D01*
X207992Y-70100D02*
X212008D01*
X210000Y-72108D02*
Y-68092D01*
X207992Y-120100D02*
X212008D01*
X210000Y-122108D02*
Y-118092D01*
X207992Y-80100D02*
X212008D01*
X210000Y-82108D02*
Y-78092D01*
X207992Y-90100D02*
X212008D01*
X210000Y-92108D02*
Y-88092D01*
X207992Y-100100D02*
X212008D01*
X210000Y-102108D02*
Y-98092D01*
X207992Y-110100D02*
X212008D01*
X210000Y-112108D02*
Y-108092D01*
X207992Y-130100D02*
X212008D01*
X210000Y-132108D02*
Y-128092D01*
X207992Y-140100D02*
X212008D01*
X210000Y-142108D02*
Y-138092D01*
X207992Y-150100D02*
X212008D01*
X210000Y-152108D02*
Y-148092D01*
X207992Y-160100D02*
X212008D01*
X210000Y-162108D02*
Y-158092D01*
X207992Y-60100D02*
X212008D01*
X210000Y-62108D02*
Y-58092D01*
X207992Y-50100D02*
X212008D01*
X210000Y-52108D02*
Y-48092D01*
X207992Y-40100D02*
X212008D01*
X210000Y-42108D02*
Y-38092D01*
X207992Y-30100D02*
X212008D01*
X210000Y-32108D02*
Y-28092D01*
X207992Y-10100D02*
X212008D01*
X210000Y-12108D02*
Y-8092D01*
X207992Y-100D02*
X212008D01*
X210000Y-2108D02*
Y1908D01*
X207992Y9900D02*
X212008D01*
X210000Y7892D02*
Y11908D01*
X207992Y19900D02*
X212008D01*
X210000Y17892D02*
Y21908D01*
X207992Y-20100D02*
X212008D01*
X210000Y-22108D02*
Y-18092D01*
X207992Y39900D02*
X212008D01*
X210000Y37892D02*
Y41908D01*
X207992Y49900D02*
X212008D01*
X210000Y47892D02*
Y51908D01*
X207992Y59900D02*
X212008D01*
X210000Y57892D02*
Y61908D01*
X207992Y69900D02*
X212008D01*
X210000Y67892D02*
Y71908D01*
X207992Y29900D02*
X212008D01*
X210000Y27892D02*
Y31908D01*
X207992Y89900D02*
X212008D01*
X210000Y87892D02*
Y91908D01*
X207992Y99900D02*
X212008D01*
X210000Y97892D02*
Y101908D01*
X207992Y109900D02*
X212008D01*
X210000Y107892D02*
Y111908D01*
X207992Y119900D02*
X212008D01*
X210000Y117892D02*
Y121908D01*
X207992Y79900D02*
X212008D01*
X210000Y77892D02*
Y81908D01*
X207992Y129900D02*
X212008D01*
X210000Y127892D02*
Y131908D01*
X207992Y169900D02*
X212008D01*
X210000Y167892D02*
Y171908D01*
X207992Y159900D02*
X212008D01*
X210000Y157892D02*
Y161908D01*
X207992Y149900D02*
X212008D01*
X210000Y147892D02*
Y151908D01*
X207992Y139900D02*
X212008D01*
X210000Y137892D02*
Y141908D01*
X207992Y179900D02*
X212008D01*
X210000Y177892D02*
Y181908D01*
X217992Y179900D02*
X222008D01*
X220000Y177892D02*
Y181908D01*
X207992Y-170100D02*
X212008D01*
X210000Y-172108D02*
Y-168092D01*
X217992Y-170100D02*
X222008D01*
X220000Y-172108D02*
Y-168092D01*
X28000Y-133900D02*
X28800D01*
X28400Y-134300D02*
Y-133500D01*
X21600Y-149900D02*
X22400D01*
X22000Y-150300D02*
Y-149500D01*
X13600Y-159900D02*
X14400D01*
X14000Y-160300D02*
Y-159500D01*
X104970Y-115330D02*
X105770D01*
X105370Y-115730D02*
Y-114930D01*
X123800Y-114400D02*
X124600D01*
X124200Y-114800D02*
Y-114000D01*
X39600Y-178800D02*
X40400D01*
X40000Y-179200D02*
Y-178400D01*
X59600Y-178700D02*
X60400D01*
X60000Y-179100D02*
Y-178300D01*
X71505Y-182025D02*
X72305D01*
X71905Y-182425D02*
Y-181625D01*
X128300Y44400D02*
X129100D01*
X128700Y44000D02*
Y44800D01*
X31300Y127300D02*
X32100D01*
X31700Y126900D02*
Y127700D01*
X19000Y134875D02*
X19800D01*
X19400Y134475D02*
Y135275D01*
X74200Y127147D02*
X75000D01*
X74600Y126747D02*
Y127547D01*
X76100Y143500D02*
X76900D01*
X76500Y143100D02*
Y143900D01*
X49027Y141267D02*
X49827D01*
X49427Y140867D02*
Y141667D01*
X39500Y134875D02*
X40300D01*
X39900Y134475D02*
Y135275D01*
X62700Y143900D02*
X63500D01*
X63100Y143500D02*
Y144300D01*
X120700Y212900D02*
X121500D01*
X121100Y212500D02*
Y213300D01*
X41230Y158500D02*
X42030D01*
X41630Y158100D02*
Y158900D01*
X93000Y23500D02*
X93800D01*
X93400Y23100D02*
Y23900D01*
X73800Y142100D02*
X75000D01*
X74400Y141500D02*
Y142700D01*
X44757Y-18250D02*
X45557D01*
X45157Y-18650D02*
Y-17850D01*
X44900Y-24775D02*
X45700D01*
X45300Y-25175D02*
Y-24375D01*
X47100Y-28800D02*
X47900D01*
X47500Y-29200D02*
Y-28400D01*
X24900Y-34400D02*
X25700D01*
X25300Y-34800D02*
Y-34000D01*
X155500Y159500D02*
X156300D01*
X155900Y159100D02*
Y159900D01*
X4500Y117900D02*
X5300D01*
X4900Y117500D02*
Y118300D01*
X64160Y71200D02*
X64960D01*
X64560Y70800D02*
Y71600D01*
X65000Y158413D02*
X65800D01*
X65400Y158013D02*
Y158813D01*
X109300Y88600D02*
X110100D01*
X109700Y88200D02*
Y89000D01*
X162400Y154000D02*
X163200D01*
X162800Y153600D02*
Y154400D01*
X136152Y-18525D02*
X136952D01*
X136552Y-18925D02*
Y-18125D01*
X117000Y-30603D02*
X118200D01*
X117600Y-31203D02*
Y-30003D01*
X36950Y194850D02*
X38150D01*
X37550Y194250D02*
Y195450D01*
X21800Y111100D02*
X22600D01*
X22200Y110700D02*
Y111500D01*
X19377Y156123D02*
X20177D01*
X19777Y155723D02*
Y156523D01*
X20300Y143700D02*
X21100D01*
X20700Y143300D02*
Y144100D01*
X7600Y156100D02*
X8400D01*
X8000Y155700D02*
Y156500D01*
X63130Y201500D02*
X63930D01*
X63530Y201100D02*
Y201900D01*
X131000Y28550D02*
X131800D01*
X131400Y28150D02*
Y28950D01*
X156075Y84600D02*
X156875D01*
X156475Y84200D02*
Y85000D01*
X-25400Y-42800D02*
X-24200D01*
X-24800Y-43400D02*
Y-42200D01*
X89631Y145300D02*
X90431D01*
X90031Y144900D02*
Y145700D01*
X47100Y70800D02*
X47900D01*
X47500Y70400D02*
Y71200D01*
X80600Y-34600D02*
X81400D01*
X81000Y-35000D02*
Y-34200D01*
X145550Y98100D02*
X146350D01*
X145950Y97700D02*
Y98500D01*
X88880Y48910D02*
X89680D01*
X89280Y48510D02*
Y49310D01*
X138900Y4900D02*
X139700D01*
X139300Y4500D02*
Y5300D01*
X43050Y38010D02*
X43850D01*
X43450Y37611D02*
Y38410D01*
X36650Y54602D02*
X37450D01*
X37050Y54202D02*
Y55002D01*
X70394Y23194D02*
X71194D01*
X70794Y22794D02*
Y23594D01*
X32300Y54500D02*
X33100D01*
X32700Y54100D02*
Y54900D01*
X62768Y43268D02*
X63568D01*
X63168Y42868D02*
Y43668D01*
X88110Y22939D02*
X88910D01*
X88510Y22539D02*
Y23339D01*
X104200Y23200D02*
X105000D01*
X104600Y22800D02*
Y23600D01*
X96200Y23500D02*
X97000D01*
X96600Y23100D02*
Y23900D01*
X87710Y-48900D02*
X88510D01*
X88110Y-49300D02*
Y-48500D01*
X84500Y-39800D02*
X85300D01*
X84900Y-40200D02*
Y-39400D01*
X86910Y-60090D02*
X87710D01*
X87310Y-60490D02*
Y-59690D01*
X127800Y39300D02*
X128600D01*
X128200Y38900D02*
Y39700D01*
X130202Y41378D02*
X131002D01*
X130602Y40978D02*
Y41778D01*
X22500Y-11700D02*
X23300D01*
X22900Y-12100D02*
Y-11300D01*
X47100Y-100500D02*
X47900D01*
X47500Y-100900D02*
Y-100100D01*
X28700Y33600D02*
X29500D01*
X29100Y33200D02*
Y34000D01*
X46400Y33700D02*
X47200D01*
X46800Y33300D02*
Y34100D01*
X73600Y23300D02*
X74400D01*
X74000Y22900D02*
Y23700D01*
X77030Y23194D02*
X77830D01*
X77430Y22794D02*
Y23594D01*
X62398Y39600D02*
X63198D01*
X62798Y39200D02*
Y40000D01*
X33700Y70800D02*
X34500D01*
X34100Y70400D02*
Y71200D01*
X167950Y108650D02*
X168750D01*
X168350Y108250D02*
Y109050D01*
X173600Y144600D02*
X174400D01*
X174000Y144200D02*
Y145000D01*
X156500Y133450D02*
X157300D01*
X156900Y133050D02*
Y133850D01*
X93600Y222400D02*
X94400D01*
X94000Y222000D02*
Y222800D01*
X101700Y222400D02*
X102500D01*
X102100Y222000D02*
Y222800D01*
X11700Y242300D02*
X12500D01*
X12100Y241900D02*
Y242700D01*
X11700Y254100D02*
X12500D01*
X12100Y253700D02*
Y254500D01*
X84950Y215250D02*
X85750D01*
X85350Y214850D02*
Y215650D01*
X116016Y245984D02*
X116816D01*
X116416Y245584D02*
Y246384D01*
X126750Y231950D02*
X127550D01*
X127150Y231550D02*
Y232350D01*
X120450Y231876D02*
X121250D01*
X120850Y231476D02*
Y232276D01*
X81500Y225800D02*
X82300D01*
X81900Y225400D02*
Y226200D01*
X111332Y231097D02*
X112132D01*
X111732Y230697D02*
Y231497D01*
X80800Y258342D02*
X81600D01*
X81200Y257942D02*
Y258742D01*
X64500Y91300D02*
X65300D01*
X64900Y90900D02*
Y91700D01*
X72700Y242000D02*
X73500D01*
X73100Y241600D02*
Y242400D01*
X125500Y289700D02*
X126300D01*
X125900Y289300D02*
Y290100D01*
X107300Y289400D02*
X108100D01*
X107700Y289000D02*
Y289800D01*
X114200Y273800D02*
X115000D01*
X114600Y273400D02*
Y274200D01*
X125600Y269000D02*
X126400D01*
X126000Y268600D02*
Y269400D01*
X67900Y255900D02*
X68700D01*
X68300Y255500D02*
Y256300D01*
X75000Y231800D02*
X75800D01*
X75400Y231400D02*
Y232200D01*
X82100Y253900D02*
X82900D01*
X82500Y253500D02*
Y254300D01*
X223100Y105900D02*
X223900D01*
X223500Y105500D02*
Y106300D01*
X-14400Y-120650D02*
X-13600D01*
X-14000Y-121050D02*
Y-120250D01*
X223100Y-115300D02*
X223900D01*
X223500Y-115700D02*
Y-114900D01*
X230000Y-81300D02*
X230800D01*
X230400Y-81700D02*
Y-80900D01*
X105000Y-16100D02*
X105800D01*
X105400Y-16500D02*
Y-15700D01*
X107800Y13100D02*
X108600D01*
X108200Y12700D02*
Y13500D01*
X113500Y145200D02*
X114700D01*
X114100Y144600D02*
Y145800D01*
X109000Y-68600D02*
X109800D01*
X109400Y-69000D02*
Y-68200D01*
X117100Y-68600D02*
X117900D01*
X117500Y-69000D02*
Y-68200D01*
X126750Y251850D02*
X127550D01*
X127150Y251450D02*
Y252250D01*
X163500Y253300D02*
X164300D01*
X163900Y252900D02*
Y253700D01*
X150900Y279500D02*
X151700D01*
X151300Y279100D02*
Y279900D01*
X150900Y271100D02*
X151700D01*
X151300Y270700D02*
Y271500D01*
X83450Y-164100D02*
X84250D01*
X83850Y-164500D02*
Y-163700D01*
X116016Y252800D02*
X116816D01*
X116416Y252400D02*
Y253200D01*
X116000Y255800D02*
X116800D01*
X116400Y255400D02*
Y256200D01*
X162100Y293100D02*
X163300D01*
X162700Y292500D02*
Y293700D01*
X165700Y293100D02*
X166900D01*
X166300Y292500D02*
Y293700D01*
X173593Y269163D02*
X174393D01*
X173993Y268763D02*
Y269563D01*
X79500Y54000D02*
X80300D01*
X79900Y53600D02*
Y54400D01*
X70000Y-55100D02*
X70800D01*
X70400Y-55500D02*
Y-54700D01*
X112000Y78700D02*
X112800D01*
X112400Y78300D02*
Y79100D01*
X110094Y61500D02*
X110894D01*
X110494Y61100D02*
Y61900D01*
X-15000Y169335D02*
X-14200D01*
X-14600Y168935D02*
Y169735D01*
X75100Y219700D02*
X75900D01*
X75500Y219300D02*
Y220100D01*
X155922Y193200D02*
X156722D01*
X156322Y192800D02*
Y193600D01*
X135300Y142400D02*
X136100D01*
X135700Y142000D02*
Y142800D01*
X200400Y113214D02*
X201200D01*
X200800Y112814D02*
Y113614D01*
X195900Y88600D02*
X196700D01*
X196300Y88200D02*
Y89000D01*
X178487Y-204158D02*
X179287D01*
X178887Y-204558D02*
Y-203758D01*
X103500Y233100D02*
X104300D01*
X103900Y232700D02*
Y233500D01*
X77850Y225850D02*
X78650D01*
X78250Y225450D02*
Y226250D01*
X12500Y211400D02*
X13300D01*
X12900Y211000D02*
Y211800D01*
X-5800Y211300D02*
X-5000D01*
X-5400Y210900D02*
Y211700D01*
X204500Y-48100D02*
X205300D01*
X204900Y-48500D02*
Y-47700D01*
X69700Y-30950D02*
X70500D01*
X70100Y-31350D02*
Y-30550D01*
X198900Y144300D02*
X199700D01*
X199300Y143900D02*
Y144700D01*
X203050Y140400D02*
X203850D01*
X203450Y140000D02*
Y140800D01*
X221400Y124600D02*
X222200D01*
X221800Y124200D02*
Y125000D01*
X194600Y108500D02*
X195400D01*
X195000Y108100D02*
Y108900D01*
X220600Y65000D02*
X221400D01*
X221000Y64600D02*
Y65400D01*
X230000Y-2800D02*
X230800D01*
X230400Y-3200D02*
Y-2400D01*
X221100Y4925D02*
X221900D01*
X221500Y4525D02*
Y5325D01*
X221400Y-5100D02*
X222200D01*
X221800Y-5500D02*
Y-4700D01*
X221300Y-25000D02*
X222100D01*
X221700Y-25400D02*
Y-24600D01*
X214600Y-42600D02*
X215400D01*
X215000Y-43000D02*
Y-42200D01*
X203600Y-128600D02*
X204400D01*
X204000Y-129000D02*
Y-128200D01*
X203900Y-90200D02*
X204700D01*
X204300Y-90600D02*
Y-89800D01*
X15200Y-28500D02*
X16000D01*
X15600Y-28900D02*
Y-28100D01*
X172200Y116000D02*
X173000D01*
X172600Y115600D02*
Y116400D01*
X-13450Y-18150D02*
X-12650D01*
X-13050Y-18550D02*
Y-17750D01*
X82700Y4000D02*
X83500D01*
X83100Y3600D02*
Y4400D01*
X174900Y-157800D02*
X175700D01*
X175300Y-158200D02*
Y-157400D01*
X188000Y-174100D02*
X188800D01*
X188400Y-174500D02*
Y-173700D01*
X136600Y-162100D02*
X137400D01*
X137000Y-162500D02*
Y-161700D01*
X150300Y-198100D02*
X151100D01*
X150700Y-198500D02*
Y-197700D01*
X14400Y-73100D02*
X15200D01*
X14800Y-73500D02*
Y-72700D01*
X-6300Y-37900D02*
X-5500D01*
X-5900Y-38300D02*
Y-37500D01*
X-13900Y-29700D02*
X-13100D01*
X-13500Y-30100D02*
Y-29300D01*
X83300Y190300D02*
X84100D01*
X83700Y189900D02*
Y190700D01*
X105300Y177300D02*
X106100D01*
X105700Y176900D02*
Y177700D01*
X80300Y-23600D02*
X81100D01*
X80700Y-24000D02*
Y-23200D01*
X62500Y-57621D02*
X63300D01*
X62900Y-58021D02*
Y-57221D01*
X164400Y189200D02*
X165200D01*
X164800Y188800D02*
Y189600D01*
X141200Y230000D02*
X142400D01*
X141800Y229400D02*
Y230600D01*
X137850Y230000D02*
X139050D01*
X138450Y229400D02*
Y230600D01*
X152700Y215300D02*
X153500D01*
X153100Y214900D02*
Y215700D01*
X155100Y-214900D02*
X155900D01*
X155500Y-215300D02*
Y-214500D01*
X124700Y-103400D02*
X125500D01*
X125100Y-103800D02*
Y-103000D01*
X120900Y-60600D02*
X121700D01*
X121300Y-61000D02*
Y-60200D01*
X125000Y-79584D02*
X125800D01*
X125400Y-79984D02*
Y-79184D01*
X203700Y-123300D02*
X204500D01*
X204100Y-123700D02*
Y-122900D01*
X214497Y-216100D02*
X215297D01*
X214897Y-216500D02*
Y-215700D01*
X188600Y-216100D02*
X189400D01*
X189000Y-216500D02*
Y-215700D01*
X162703Y-216100D02*
X163503D01*
X163103Y-216500D02*
Y-215700D01*
X230000Y-129286D02*
X230800D01*
X230400Y-129686D02*
Y-128886D01*
X229800Y-88600D02*
X230600D01*
X230200Y-89000D02*
Y-88200D01*
X230000Y-51595D02*
X230800D01*
X230400Y-51995D02*
Y-51195D01*
X230000Y-25697D02*
X230800D01*
X230400Y-26097D02*
Y-25297D01*
X203800Y-106900D02*
X204600D01*
X204200Y-107300D02*
Y-106500D01*
X-3266Y148000D02*
X-2466D01*
X-2866Y147600D02*
Y148400D01*
X-32700Y145200D02*
X-31900D01*
X-32300Y144800D02*
Y145600D01*
X-32700Y134800D02*
X-31900D01*
X-32300Y134400D02*
Y135200D01*
X-7900Y79500D02*
X-7100D01*
X-7500Y79100D02*
Y79900D01*
X22505Y100100D02*
X23305D01*
X22906Y99700D02*
Y100500D01*
X62500Y82200D02*
X63300D01*
X62900Y81800D02*
Y82600D01*
X-8900Y103300D02*
X-8100D01*
X-8500Y102900D02*
Y103700D01*
X-34200Y174800D02*
X-33400D01*
X-33800Y174400D02*
Y175200D01*
X204600Y188900D02*
X205400D01*
X205000Y188500D02*
Y189300D01*
X170700Y186800D02*
X171500D01*
X171100Y186400D02*
Y187200D01*
X155700Y186800D02*
X156500D01*
X156100Y186400D02*
Y187200D01*
X137500Y186800D02*
X138300D01*
X137900Y186400D02*
Y187200D01*
X125850Y186800D02*
X126650D01*
X126250Y186400D02*
Y187200D01*
X104900Y193300D02*
X105700D01*
X105300Y192900D02*
Y193700D01*
X70631Y190300D02*
X71431D01*
X71031Y189900D02*
Y190700D01*
X228450Y165682D02*
X229250D01*
X228850Y165282D02*
Y166082D01*
X228450Y189100D02*
X229250D01*
X228850Y188700D02*
Y189500D01*
X228450Y201400D02*
X229250D01*
X228850Y201000D02*
Y201800D01*
X204218Y201400D02*
X205018D01*
X204618Y201000D02*
Y201800D01*
X186059Y201400D02*
X186859D01*
X186459Y201000D02*
Y201800D01*
X169100Y201400D02*
X169900D01*
X169500Y201000D02*
Y201800D01*
X105200Y202200D02*
X106000D01*
X105600Y201800D02*
Y202600D01*
X52600Y201300D02*
X53400D01*
X53000Y200900D02*
Y201700D01*
X33600Y201500D02*
X34400D01*
X34000Y201100D02*
Y201900D01*
X12100Y201400D02*
X12900D01*
X12500Y201000D02*
Y201800D01*
X-7300Y201400D02*
X-6500D01*
X-6900Y201000D02*
Y201800D01*
X-20350Y201400D02*
X-19550D01*
X-19950Y201000D02*
Y201800D01*
X-39550Y201400D02*
X-38750D01*
X-39150Y201000D02*
Y201800D01*
X134900Y155000D02*
X135700D01*
X135300Y154600D02*
Y155400D01*
X134800Y263000D02*
X135600D01*
X135200Y262600D02*
Y263400D01*
X107400Y278400D02*
X108200D01*
X107800Y278000D02*
Y278800D01*
X101500Y278400D02*
X102300D01*
X101900Y278000D02*
Y278800D01*
X95600Y278400D02*
X96400D01*
X96000Y278000D02*
Y278800D01*
X83800Y278400D02*
X84600D01*
X84200Y278000D02*
Y278800D01*
X89700Y278400D02*
X90500D01*
X90100Y278000D02*
Y278800D01*
X78000Y278400D02*
X78800D01*
X78400Y278000D02*
Y278800D01*
X72100Y278400D02*
X72900D01*
X72500Y278000D02*
Y278800D01*
X66200Y278400D02*
X67000D01*
X66600Y278000D02*
Y278800D01*
X173200Y280687D02*
X174000D01*
X173600Y280287D02*
Y281087D01*
X202500Y253300D02*
X203300D01*
X202900Y252900D02*
Y253700D01*
X181170Y253300D02*
X181970D01*
X181570Y252900D02*
Y253700D01*
X175270Y253300D02*
X176070D01*
X175670Y252900D02*
Y253700D01*
X169370Y253300D02*
X170170D01*
X169770Y252900D02*
Y253700D01*
X173100Y212750D02*
X173900D01*
X173500Y212350D02*
Y213150D01*
X164800Y214950D02*
X165600D01*
X165200Y214550D02*
Y215350D01*
X159200Y215300D02*
X160000D01*
X159600Y214900D02*
Y215700D01*
X136600Y216800D02*
X137400D01*
X137000Y216400D02*
Y217200D01*
X84950Y221550D02*
X85750D01*
X85350Y221150D02*
Y221950D01*
X70900Y223670D02*
X71700D01*
X71300Y223270D02*
Y224070D01*
X65000Y223670D02*
X65800D01*
X65400Y223270D02*
Y224070D01*
X44500Y243200D02*
X45300D01*
X44900Y242800D02*
Y243600D01*
X44500Y250800D02*
X45300D01*
X44900Y250400D02*
Y251200D01*
X135550Y133450D02*
X136350D01*
X135950Y133050D02*
Y133850D01*
X120200Y-44500D02*
X121000D01*
X120600Y-44900D02*
Y-44100D01*
X72430Y48000D02*
X73230D01*
X72830Y47600D02*
Y48400D01*
X72300Y35400D02*
X73100D01*
X72700Y35000D02*
Y35800D01*
X-5600Y-3600D02*
X-4800D01*
X-5200Y-4000D02*
Y-3200D01*
X54700Y-108000D02*
X55500D01*
X55100Y-108400D02*
Y-107600D01*
X63400Y-109317D02*
X64200D01*
X63800Y-109717D02*
Y-108917D01*
X77200Y-98600D02*
X78000D01*
X77600Y-99000D02*
Y-98200D01*
X61200Y-98400D02*
X62000D01*
X61600Y-98800D02*
Y-98000D01*
X75300Y-4600D02*
X76100D01*
X75700Y-5000D02*
Y-4200D01*
X62300Y-38524D02*
X63100D01*
X62700Y-38925D02*
Y-38124D01*
X54500Y-98200D02*
X55300D01*
X54900Y-98600D02*
Y-97800D01*
X-4500Y-167400D02*
X-3700D01*
X-4100Y-167800D02*
Y-167000D01*
X-10400Y-167400D02*
X-9600D01*
X-10000Y-167800D02*
Y-167000D01*
X-5800Y-57900D02*
X-5000D01*
X-5400Y-58300D02*
Y-57500D01*
X61400Y-139900D02*
X62200D01*
X61800Y-140300D02*
Y-139500D01*
X118000Y-214900D02*
X118800D01*
X118400Y-215300D02*
Y-214500D01*
X73506Y-200800D02*
X74306D01*
X73906Y-201200D02*
Y-200400D01*
X-2975Y-201004D02*
X-2175D01*
X-2575Y-201404D02*
Y-200604D01*
X26000Y-104200D02*
X26800D01*
X26400Y-104600D02*
Y-103800D01*
X57050Y-122800D02*
X57850D01*
X57450Y-123200D02*
Y-122400D01*
X41900Y-146400D02*
X42700D01*
X42300Y-146800D02*
Y-146000D01*
X16800Y-151900D02*
X17600D01*
X17200Y-152300D02*
Y-151500D01*
X23700Y-145400D02*
X24500D01*
X24100Y-145800D02*
Y-145000D01*
X19100Y-164400D02*
X19900D01*
X19500Y-164800D02*
Y-164000D01*
X68100Y-163900D02*
X68900D01*
X68500Y-164300D02*
Y-163500D01*
X73700Y-192500D02*
X74500D01*
X74100Y-192900D02*
Y-192100D01*
X3900Y-195505D02*
X4700D01*
X4300Y-195905D02*
Y-195106D01*
X73700Y-214900D02*
X74500D01*
X74100Y-215300D02*
Y-214500D01*
X-14625Y-215000D02*
X-13825D01*
X-14225Y-215400D02*
Y-214600D01*
X-38050Y-215000D02*
X-37250D01*
X-37650Y-215400D02*
Y-214600D01*
X-38050Y-202900D02*
X-37250D01*
X-37650Y-203300D02*
Y-202500D01*
X-38050Y-185900D02*
X-37250D01*
X-37650Y-186300D02*
Y-185500D01*
X-15700Y-175100D02*
X-14900D01*
X-15300Y-175500D02*
Y-174700D01*
X-14500Y-147500D02*
X-13700D01*
X-14100Y-147900D02*
Y-147100D01*
X26400Y-82800D02*
X27200D01*
X26800Y-83200D02*
Y-82400D01*
X-28000Y25000D02*
X-27200D01*
X-27600Y24600D02*
Y25400D01*
X-6200Y69700D02*
X-5400D01*
X-5800Y69300D02*
Y70100D01*
X61360Y233620D02*
X62160D01*
X61760Y233220D02*
Y234020D01*
X-1900Y275900D02*
X-1100D01*
X-1500Y275500D02*
Y276300D01*
X83773Y224227D02*
X84573D01*
X84173Y223827D02*
Y224627D01*
X137950Y222100D02*
X139150D01*
X138550Y221500D02*
Y222700D01*
X134600Y222100D02*
X135800D01*
X135200Y221500D02*
Y222700D01*
X141300Y222100D02*
X142500D01*
X141900Y221500D02*
Y222700D01*
X141300Y237800D02*
X142500D01*
X141900Y237200D02*
Y238400D01*
X134600Y237800D02*
X135800D01*
X135200Y237200D02*
Y238400D01*
X212700Y239700D02*
X213500D01*
X213100Y239300D02*
Y240100D01*
X169000Y293100D02*
X170200D01*
X169600Y292500D02*
Y293700D01*
X222800Y223500D02*
X223600D01*
X223200Y223100D02*
Y223900D01*
X228500Y223500D02*
X229300D01*
X228900Y223100D02*
Y223900D01*
X136521Y-214900D02*
X137321D01*
X136921Y-215300D02*
Y-214500D01*
X-30400Y272394D02*
X-29600D01*
X-30000Y271994D02*
Y272794D01*
X222800Y213400D02*
X223600D01*
X223200Y213000D02*
Y213800D01*
X222900Y219300D02*
X223700D01*
X223300Y218900D02*
Y219700D01*
X201495Y290005D02*
X202294D01*
X201894Y289605D02*
Y290406D01*
X178900Y242300D02*
X180100D01*
X179500Y241700D02*
Y242900D01*
X182600Y242300D02*
X183800D01*
X183200Y241700D02*
Y242900D01*
X182600Y239600D02*
X183800D01*
X183200Y239000D02*
Y240200D01*
X178900Y239600D02*
X180100D01*
X179500Y239000D02*
Y240200D01*
X123575Y265100D02*
X124375D01*
X123975Y264700D02*
Y265500D01*
X118237Y269151D02*
X119037D01*
X118637Y268751D02*
Y269551D01*
X118237Y278600D02*
X119037D01*
X118637Y278200D02*
Y279000D01*
X116800Y301800D02*
X117600D01*
X117200Y301400D02*
Y302200D01*
X6700Y264200D02*
X7500D01*
X7100Y263800D02*
Y264600D01*
X13825Y285100D02*
X14625D01*
X14225Y284700D02*
Y285500D01*
X80800Y264300D02*
X81600D01*
X81200Y263900D02*
Y264700D01*
X49200Y270000D02*
X50000D01*
X49600Y269600D02*
Y270400D01*
X49200Y279900D02*
X50000D01*
X49600Y279500D02*
Y280300D01*
X195334Y246300D02*
X196134D01*
X195734Y245900D02*
Y246700D01*
X218200Y246300D02*
X219000D01*
X218600Y245900D02*
Y246700D01*
X207000Y246300D02*
X207800D01*
X207400Y245900D02*
Y246700D01*
X228500Y236300D02*
X229300D01*
X228900Y235900D02*
Y236700D01*
X194900Y213400D02*
X195700D01*
X195300Y213000D02*
Y213800D01*
X212800Y223500D02*
X213600D01*
X213200Y223100D02*
Y223900D01*
X179050Y234550D02*
X179850D01*
X179450Y234150D02*
Y234950D01*
X228500Y213400D02*
X229300D01*
X228900Y213000D02*
Y213800D01*
X228500Y246300D02*
X229300D01*
X228900Y245900D02*
Y246700D01*
X202700Y234600D02*
X203900D01*
X203300Y234000D02*
Y235200D01*
X200000Y234600D02*
X201200D01*
X200600Y234000D02*
Y235200D01*
X205400Y234600D02*
X206600D01*
X206000Y234000D02*
Y235200D01*
X205400Y237300D02*
X206600D01*
X206000Y236700D02*
Y237900D01*
X202700Y237300D02*
X203900D01*
X203300Y236700D02*
Y237900D01*
X200000Y237300D02*
X201200D01*
X200600Y236700D02*
Y237900D01*
X137950Y237800D02*
X139150D01*
X138550Y237200D02*
Y238400D01*
X192700Y228400D02*
X193900D01*
X193300Y227800D02*
Y229000D01*
X192700Y225700D02*
X193900D01*
X193300Y225100D02*
Y226300D01*
X192700Y223000D02*
X193900D01*
X193300Y222400D02*
Y223600D01*
X190000Y223000D02*
X191200D01*
X190600Y222400D02*
Y223600D01*
X190000Y228400D02*
X191200D01*
X190600Y227800D02*
Y229000D01*
X190000Y225700D02*
X191200D01*
X190600Y225100D02*
Y226300D01*
X189900Y218400D02*
X190700D01*
X190300Y218000D02*
Y218800D01*
X189900Y213400D02*
X190700D01*
X190300Y213000D02*
Y213800D01*
X167700Y229850D02*
X168500D01*
X168100Y229450D02*
Y230250D01*
X-5700Y233400D02*
X-4900D01*
X-5300Y233000D02*
Y233800D01*
X-5700Y237794D02*
X-4900D01*
X-5300Y237394D02*
Y238194D01*
X-5700Y223294D02*
X-4900D01*
X-5300Y222894D02*
Y223694D01*
X-39600Y292400D02*
X-38800D01*
X-39200Y292000D02*
Y292800D01*
X-39600Y272394D02*
X-38800D01*
X-39200Y271994D02*
Y272794D01*
X-39600Y252394D02*
X-38800D01*
X-39200Y251994D02*
Y252794D01*
X-39600Y232394D02*
X-38800D01*
X-39200Y231994D02*
Y232794D01*
X-20400Y211400D02*
X-19600D01*
X-20000Y211000D02*
Y211800D01*
X-39700Y211400D02*
X-38900D01*
X-39300Y211000D02*
Y211800D01*
X72100Y287794D02*
X72900D01*
X72500Y287394D02*
Y288194D01*
X-33200Y301800D02*
X-32400D01*
X-32800Y301400D02*
Y302200D01*
X6800Y301800D02*
X7600D01*
X7200Y301400D02*
Y302200D01*
X46800Y301800D02*
X47600D01*
X47200Y301400D02*
Y302200D01*
X86800Y301800D02*
X87600D01*
X87200Y301400D02*
Y302200D01*
X49325Y289994D02*
X50125D01*
X49725Y289594D02*
Y290394D01*
X81818Y242041D02*
X82618D01*
X82218Y241641D02*
Y242442D01*
X78000Y261726D02*
X78800D01*
X78400Y261327D02*
Y262126D01*
X85742Y257776D02*
X86542D01*
X86142Y257376D02*
Y258176D01*
X212542Y-204158D02*
X213342D01*
X212942Y-204558D02*
Y-203758D01*
X151809Y159500D02*
X152609D01*
X152209Y159100D02*
Y159900D01*
X10750Y-177350D02*
X11550D01*
X11150Y-177750D02*
Y-176950D01*
X134500Y230000D02*
X135700D01*
X135100Y229400D02*
Y230600D01*
X145800Y237000D02*
X146600D01*
X146200Y236600D02*
Y237400D01*
X163500Y266700D02*
X164300D01*
X163900Y266300D02*
Y267100D01*
X140700Y276600D02*
X141500D01*
X141100Y276200D02*
Y277000D01*
X62300Y-50000D02*
X63100D01*
X62700Y-50400D02*
Y-49600D01*
X108700Y-28200D02*
X109500D01*
X109100Y-28600D02*
Y-27800D01*
X101200Y-28100D02*
X102000D01*
X101600Y-28500D02*
Y-27700D01*
X114400Y-36963D02*
X115200D01*
X114800Y-37363D02*
Y-36563D01*
X70500Y-23600D02*
X71300D01*
X70900Y-24000D02*
Y-23200D01*
X-6300Y-20817D02*
X-5500D01*
X-5900Y-21217D02*
Y-20417D01*
X131400Y89500D02*
X132200D01*
X131800Y89100D02*
Y89900D01*
X105600Y11400D02*
X106400D01*
X106000Y11000D02*
Y11800D01*
X101800Y13500D02*
X102600D01*
X102200Y13100D02*
Y13900D01*
X68228Y90000D02*
X69028D01*
X68628Y89600D02*
Y90400D01*
X-28700Y-95100D02*
X-27900D01*
X-28300Y-95500D02*
Y-94700D01*
X-15200Y-142500D02*
X-14400D01*
X-14800Y-142900D02*
Y-142100D01*
X-28600Y-125000D02*
X-27800D01*
X-28200Y-125400D02*
Y-124600D01*
X-28600Y-135000D02*
X-27800D01*
X-28200Y-135400D02*
Y-134600D01*
X-40800Y-181400D02*
X-40000D01*
X-40400Y-181800D02*
Y-181000D01*
X221402Y-55250D02*
X222201D01*
X221801Y-55650D02*
Y-54850D01*
X-4907Y272600D02*
X-4107D01*
X-4507Y272200D02*
Y273000D01*
X11584Y275200D02*
X12384D01*
X11984Y274800D02*
Y275600D01*
X84300Y232600D02*
X85100D01*
X84700Y232200D02*
Y233000D01*
X60100Y223294D02*
X60900D01*
X60500Y222894D02*
Y223694D01*
X20500Y231370D02*
X21300D01*
X20900Y230970D02*
Y231770D01*
X20800Y223100D02*
X21600D01*
X21200Y222700D02*
Y223500D01*
X26925Y-74900D02*
X27725D01*
X27325Y-75300D02*
Y-74500D01*
X104900Y199344D02*
X105700D01*
X105300Y198944D02*
Y199744D01*
X149404Y199277D02*
X150204D01*
X149804Y198877D02*
Y199677D01*
X92276Y199297D02*
X93076D01*
X92676Y198897D02*
Y199697D01*
X79575Y199343D02*
X80375D01*
X79975Y198943D02*
Y199743D01*
X82800Y179247D02*
X83600D01*
X83200Y178847D02*
Y179647D01*
X14700Y-42100D02*
X15500D01*
X15100Y-42500D02*
Y-41700D01*
X15300Y109936D02*
X16100D01*
X15700Y109536D02*
Y110336D01*
X222600Y24800D02*
X223400D01*
X223000Y24400D02*
Y25200D01*
X138040Y-191400D02*
X138840D01*
X138440Y-191800D02*
Y-191000D01*
X130560Y-187953D02*
X131360D01*
X130960Y-188354D02*
Y-187554D01*
X134300Y-198000D02*
X135100D01*
X134700Y-198400D02*
Y-197600D01*
X107000Y-160500D02*
X107800D01*
X107400Y-160900D02*
Y-160100D01*
X140000Y-188200D02*
X140800D01*
X140400Y-188600D02*
Y-187800D01*
X-22458Y-186442D02*
X-21658D01*
X-22058Y-186842D02*
Y-186042D01*
X121500Y-179100D02*
X122300D01*
X121900Y-179500D02*
Y-178700D01*
X114600Y-194555D02*
X115400D01*
X115000Y-194955D02*
Y-194155D01*
X136436Y-202400D02*
X137236D01*
X136836Y-202800D02*
Y-202000D01*
X203900Y-77800D02*
X204700D01*
X204300Y-78200D02*
Y-77400D01*
X160695Y-161579D02*
X161495D01*
X161094Y-161979D02*
Y-161179D01*
X88600Y-180200D02*
X89400D01*
X89000Y-180600D02*
Y-179800D01*
X137900Y121700D02*
X138700D01*
X138300Y121300D02*
Y122100D01*
X89600Y56600D02*
X90400D01*
X90000Y56200D02*
Y57000D01*
X203700Y-137400D02*
X204500D01*
X204100Y-137800D02*
Y-137000D01*
X142388Y90512D02*
X143188D01*
X142788Y90112D02*
Y90912D01*
X173300Y-61700D02*
X174100D01*
X173700Y-62100D02*
Y-61300D01*
X158700Y96000D02*
X159500D01*
X159100Y95600D02*
Y96400D01*
X126613Y95913D02*
X127413D01*
X127013Y95513D02*
Y96313D01*
X104100Y37758D02*
X104900D01*
X104500Y37358D02*
Y38159D01*
X92047Y10900D02*
X92847D01*
X92447Y10500D02*
Y11300D01*
X173900Y-198400D02*
X174700D01*
X174300Y-198800D02*
Y-198000D01*
X89500Y255500D02*
X90300D01*
X89900Y255100D02*
Y255900D01*
X107635Y238110D02*
X108435D01*
X108035Y237710D02*
Y238510D01*
X97200Y251800D02*
X98000D01*
X97600Y251400D02*
Y252200D01*
X111190Y262900D02*
X111990D01*
X111590Y262500D02*
Y263300D01*
X94498Y215100D02*
X95298D01*
X94898Y214700D02*
Y215500D01*
X111300Y219600D02*
X112100D01*
X111700Y219200D02*
Y220000D01*
X106600Y233000D02*
X107400D01*
X107000Y232600D02*
Y233400D01*
X105400Y211000D02*
X106200D01*
X105800Y210600D02*
Y211400D01*
X81400Y78100D02*
X82200D01*
X81800Y77700D02*
Y78500D01*
X80900Y82700D02*
X81700D01*
X81300Y82300D02*
Y83100D01*
X125512Y107919D02*
X126312D01*
X125912Y107518D02*
Y108318D01*
X70900Y90000D02*
X71700D01*
X71300Y89600D02*
Y90400D01*
X76700Y127075D02*
X77500D01*
X77100Y126675D02*
Y127475D01*
X80236Y107142D02*
X81036D01*
X80636Y106742D02*
Y107542D01*
X44900Y-111247D02*
X45700D01*
X45300Y-111647D02*
Y-110847D01*
X28700Y51600D02*
X29500D01*
X29100Y51200D02*
Y52000D01*
X-12900Y25700D02*
X-12100D01*
X-12500Y25300D02*
Y26100D01*
X94016Y96616D02*
X94816D01*
X94416Y96216D02*
Y97016D01*
X92047Y106629D02*
X92847D01*
X92447Y106228D02*
Y107028D01*
X90079Y96681D02*
X90879D01*
X90479Y96281D02*
Y97082D01*
X78447Y179247D02*
X79247D01*
X78847Y178847D02*
Y179647D01*
X83900Y96300D02*
X84700D01*
X84300Y95900D02*
Y96700D01*
X222500Y35000D02*
X223300D01*
X222900Y34600D02*
Y35400D01*
X144600Y-144200D02*
X145400D01*
X145000Y-144600D02*
Y-143800D01*
X144800Y-150200D02*
X145600D01*
X145200Y-150600D02*
Y-149800D01*
X111700Y-153868D02*
X112500D01*
X112100Y-154268D02*
Y-153468D01*
X135005Y-75000D02*
X135805D01*
X135406Y-75400D02*
Y-74600D01*
X58130Y-116930D02*
X58930D01*
X58530Y-117330D02*
Y-116530D01*
X83583Y158413D02*
X84383D01*
X83983Y158013D02*
Y158813D01*
X99525Y154975D02*
X100325D01*
X99925Y154575D02*
Y155375D01*
X11600Y264500D02*
X12400D01*
X12000Y264100D02*
Y264900D01*
X13500Y169175D02*
X14300D01*
X13900Y168775D02*
Y169575D01*
X62398Y107200D02*
X63198D01*
X62798Y106800D02*
Y107600D01*
X77800Y158600D02*
X78600D01*
X78200Y158200D02*
Y159000D01*
X53037Y141900D02*
X54237D01*
X53637Y141300D02*
Y142500D01*
X61961Y141500D02*
X62761D01*
X62361Y141100D02*
Y141900D01*
X65000Y145100D02*
X65800D01*
X65400Y144700D02*
Y145500D01*
X83800Y133200D02*
X84600D01*
X84200Y132800D02*
Y133600D01*
X19383Y169392D02*
X20183D01*
X19783Y168992D02*
Y169792D01*
X-15300Y-12300D02*
X-14500D01*
X-14900Y-12700D02*
Y-11900D01*
X73800Y51400D02*
X74600D01*
X74200Y51000D02*
Y51800D01*
X14800Y-57900D02*
X15600D01*
X15200Y-58300D02*
Y-57500D01*
X97400Y-16200D02*
X98200D01*
X97800Y-16600D02*
Y-15800D01*
X82600Y400D02*
X83400D01*
X83000Y0D02*
Y800D01*
X73750Y56679D02*
X74550D01*
X74150Y56279D02*
Y57079D01*
X80919Y59900D02*
X81718D01*
X81318Y59500D02*
Y60300D01*
X61900Y57100D02*
X62700D01*
X62300Y56700D02*
Y57500D01*
X42900Y54600D02*
X43700D01*
X43300Y54200D02*
Y55000D01*
X28700Y54600D02*
X29500D01*
X29100Y54200D02*
Y55000D01*
X82690Y62100D02*
X83490D01*
X83090Y61700D02*
Y62500D01*
X46500Y53500D02*
X47300D01*
X46900Y53100D02*
Y53900D01*
X59400Y53800D02*
X60200D01*
X59800Y53400D02*
Y54200D01*
X7600Y169200D02*
X8400D01*
X8000Y168800D02*
Y169600D01*
X-15274Y-127970D02*
X-14474D01*
X-14874Y-128370D02*
Y-127570D01*
X-5500Y-72100D02*
X-4700D01*
X-5100Y-72500D02*
Y-71700D01*
X22975Y143875D02*
X23775D01*
X23375Y143475D02*
Y144275D01*
X72800Y65200D02*
X73600D01*
X73200Y64800D02*
Y65600D01*
X226300Y42100D02*
X227100D01*
X226700Y41700D02*
Y42500D01*
X127800Y71000D02*
X128600D01*
X128200Y70600D02*
Y71400D01*
X129400Y76700D02*
X130200D01*
X129800Y76300D02*
Y77100D01*
X97000Y80000D02*
X97800D01*
X97400Y79600D02*
Y80400D01*
X131826Y74764D02*
X132626D01*
X132226Y74364D02*
Y75164D01*
X128900Y68700D02*
X129700D01*
X129300Y68300D02*
Y69100D01*
X128653Y74100D02*
X129453D01*
X129053Y73700D02*
Y74500D01*
X196500Y124100D02*
X197300D01*
X196900Y123700D02*
Y124500D01*
X95200Y76000D02*
X96000D01*
X95600Y75600D02*
Y76400D01*
X74200Y95500D02*
X75000D01*
X74600Y95100D02*
Y95900D01*
X72200Y97300D02*
X73000D01*
X72600Y96900D02*
Y97700D01*
X40000Y110000D02*
X40800D01*
X40400Y109600D02*
Y110400D01*
X14700Y37800D02*
X15500D01*
X15100Y37400D02*
Y38200D01*
X87900Y12900D02*
X88700D01*
X88300Y12500D02*
Y13300D01*
X113700Y23600D02*
X114500D01*
X114100Y23200D02*
Y24000D01*
X121600Y96700D02*
X122400D01*
X122000Y96300D02*
Y97100D01*
X129800Y96400D02*
X130600D01*
X130200Y96000D02*
Y96800D01*
X172800Y44800D02*
X173600D01*
X173200Y44400D02*
Y45200D01*
X174800Y52800D02*
X175600D01*
X175200Y52400D02*
Y53200D01*
X184600Y54400D02*
X185400D01*
X185000Y54000D02*
Y54800D01*
X198200Y74000D02*
X199000D01*
X198600Y73600D02*
Y74400D01*
X99200Y78100D02*
X100000D01*
X99600Y77700D02*
Y78500D01*
X162000Y14400D02*
X162800D01*
X162400Y14000D02*
Y14800D01*
X171000Y-35100D02*
X171800D01*
X171400Y-35500D02*
Y-34700D01*
X165800Y25200D02*
X166600D01*
X166200Y24800D02*
Y25600D01*
X131500Y55079D02*
X132300D01*
X131900Y54679D02*
Y55479D01*
X165800Y55800D02*
X166600D01*
X166200Y55400D02*
Y56200D01*
X159400Y-67700D02*
X160200D01*
X159800Y-68100D02*
Y-67300D01*
X162000Y-4600D02*
X162800D01*
X162400Y-5000D02*
Y-4200D01*
X159590Y-85900D02*
X160390D01*
X159990Y-86300D02*
Y-85500D01*
X166200Y-92100D02*
X167000D01*
X166600Y-92500D02*
Y-91700D01*
X159400Y-19900D02*
X160200D01*
X159800Y-20300D02*
Y-19500D01*
X157979Y-80021D02*
X158779D01*
X158379Y-80421D02*
Y-79621D01*
X156400Y-86100D02*
X157200D01*
X156800Y-86500D02*
Y-85700D01*
X117600Y66300D02*
X118400D01*
X118000Y65900D02*
Y66700D01*
X131931Y47205D02*
X132731D01*
X132331Y46805D02*
Y47605D01*
X155400Y29500D02*
X156200D01*
X155800Y29100D02*
Y29900D01*
X153300Y-29900D02*
X154100D01*
X153700Y-30300D02*
Y-29500D01*
X156475Y-70725D02*
X157275D01*
X156875Y-71125D02*
Y-70325D01*
X129528Y61500D02*
X130328D01*
X129928Y61100D02*
Y61900D01*
X113700Y84200D02*
X114500D01*
X114100Y83800D02*
Y84600D01*
X109494Y94600D02*
X110294D01*
X109895Y94200D02*
Y95000D01*
X111700Y86500D02*
X112500D01*
X112100Y86100D02*
Y86900D01*
X107100Y76200D02*
X107900D01*
X107500Y75800D02*
Y76600D01*
X104800Y70300D02*
X105600D01*
X105200Y69900D02*
Y70700D01*
X110390Y71100D02*
X111190D01*
X110790Y70700D02*
Y71500D01*
X113700Y69100D02*
X114500D01*
X114100Y68700D02*
Y69500D01*
X141588Y29488D02*
X142388D01*
X141988Y29088D02*
Y29888D01*
X57995Y72795D02*
X58795D01*
X58395Y72395D02*
Y73195D01*
X61900Y65300D02*
X62700D01*
X62300Y64900D02*
Y65700D01*
X61882Y30550D02*
X62682D01*
X62282Y30150D02*
Y30950D01*
X63900Y33700D02*
X64700D01*
X64300Y33300D02*
Y34100D01*
X61802Y27520D02*
X62602D01*
X62202Y27120D02*
Y27920D01*
X91700Y46400D02*
X92500D01*
X92100Y46000D02*
Y46800D01*
X94500Y46400D02*
X95300D01*
X94900Y46000D02*
Y46800D01*
X117500Y62600D02*
X118300D01*
X117900Y62200D02*
Y63000D01*
X108500Y42400D02*
X109300D01*
X108900Y42000D02*
Y42800D01*
X43400Y13400D02*
X44200D01*
X43800Y13000D02*
Y13800D01*
X54000Y20100D02*
X54800D01*
X54400Y19700D02*
Y20500D01*
X36600Y20600D02*
X37400D01*
X37000Y20200D02*
Y21000D01*
X42800Y20800D02*
X43600D01*
X43200Y20400D02*
Y21200D01*
X25900Y20700D02*
X26700D01*
X26300Y20300D02*
Y21100D01*
X34600Y38000D02*
X35400D01*
X35000Y37600D02*
Y38400D01*
X25200Y41700D02*
X26000D01*
X25600Y41300D02*
Y42100D01*
X25100Y27700D02*
X25900D01*
X25500Y27300D02*
Y28100D01*
X133000Y137900D02*
X133800D01*
X133400Y137500D02*
Y138300D01*
X123800Y140600D02*
X124600D01*
X124200Y140200D02*
Y141000D01*
X45190Y168000D02*
X45990D01*
X45590Y167600D02*
Y168400D01*
X47300Y158700D02*
X48100D01*
X47700Y158300D02*
Y159100D01*
X127471Y25110D02*
X128270D01*
X127871Y24710D02*
Y25510D01*
X141599Y25551D02*
X142399D01*
X141999Y25151D02*
Y25951D01*
X121300Y13100D02*
X122100D01*
X121700Y12700D02*
Y13500D01*
X27100Y-11200D02*
X27900D01*
X27500Y-11600D02*
Y-10800D01*
X31253Y-8100D02*
X32053D01*
X31653Y-8500D02*
Y-7700D01*
X31500Y5500D02*
X32300D01*
X31900Y5100D02*
Y5900D01*
X30500Y-122900D02*
X31300D01*
X30900Y-123300D02*
Y-122500D01*
X35553Y-10700D02*
X36353D01*
X35953Y-11100D02*
Y-10300D01*
X33895Y-6995D02*
X34694D01*
X34295Y-7395D02*
Y-6594D01*
X34700Y8000D02*
X35500D01*
X35100Y7600D02*
Y8400D01*
X145600Y51700D02*
X146400D01*
X146000Y51300D02*
Y52100D01*
X60600Y79200D02*
X61400D01*
X61000Y78800D02*
Y79600D01*
X109700Y97200D02*
X110500D01*
X110100Y96800D02*
Y97600D01*
X121975Y-25275D02*
X122775D01*
X122375Y-25675D02*
Y-24875D01*
X-12600Y30300D02*
X-11800D01*
X-12200Y29900D02*
Y30700D01*
X9400Y-139900D02*
X10200D01*
X9800Y-140300D02*
Y-139500D01*
X2500Y153925D02*
X3300D01*
X2900Y153525D02*
Y154325D01*
X123900Y126300D02*
X124700D01*
X124300Y125900D02*
Y126700D01*
X94800Y133900D02*
X95600D01*
X95200Y133500D02*
Y134300D01*
X91800Y131200D02*
X92600D01*
X92200Y130800D02*
Y131600D01*
X97300Y133900D02*
X98100D01*
X97700Y133500D02*
Y134300D01*
X100527Y141567D02*
X101327D01*
X100927Y141167D02*
Y141967D01*
X95427Y141567D02*
X96227D01*
X95827Y141167D02*
Y141967D01*
X84215Y139801D02*
X85015D01*
X84615Y139401D02*
Y140201D01*
X97900Y141580D02*
X98700D01*
X98300Y141180D02*
Y141980D01*
X46400Y141280D02*
X47200D01*
X46800Y140880D02*
Y141680D01*
X43927Y141267D02*
X44727D01*
X44327Y140867D02*
Y141667D01*
X46000Y128320D02*
X46800D01*
X46400Y127920D02*
Y128720D01*
X48473Y128333D02*
X49273D01*
X48873Y127933D02*
Y128733D01*
X43373Y128333D02*
X44173D01*
X43773Y127933D02*
Y128733D01*
X80100Y127275D02*
X80900D01*
X80500Y126875D02*
Y127675D01*
X92074Y135126D02*
X92874D01*
X92474Y134726D02*
Y135526D01*
X116900Y125500D02*
X117700D01*
X117300Y125100D02*
Y125900D01*
X90900Y88900D02*
X91700D01*
X91300Y88500D02*
Y89300D01*
X99921Y106578D02*
X100721D01*
X100321Y106178D02*
Y106978D01*
X17562Y79210D02*
X18362D01*
X17962Y78810D02*
Y79610D01*
X95984Y106516D02*
X96784D01*
X96384Y106116D02*
Y106916D01*
X98800Y96700D02*
X99600D01*
X99200Y96300D02*
Y97100D01*
X114500Y133800D02*
X115300D01*
X114900Y133400D02*
Y134200D01*
X118200Y107800D02*
X119000D01*
X118600Y107400D02*
Y108200D01*
X110800Y108000D02*
X112000D01*
X111400Y107400D02*
Y108600D01*
X105750Y106629D02*
X106550D01*
X106150Y106228D02*
Y107028D01*
X166200Y-155100D02*
X167000D01*
X166600Y-155500D02*
Y-154700D01*
X153300Y43200D02*
X154100D01*
X153700Y42800D02*
Y43600D01*
X154900Y-21600D02*
X156100D01*
X155500Y-22200D02*
Y-21000D01*
X86142Y106558D02*
X86942D01*
X86542Y106158D02*
Y106958D01*
X104600Y111925D02*
X105400D01*
X105000Y111525D02*
Y112325D01*
X137100Y115700D02*
X137900D01*
X137500Y115300D02*
Y116100D01*
X94900Y121800D02*
X95700D01*
X95300Y121400D02*
Y122200D01*
X100800Y121830D02*
X101600D01*
X101200Y121430D02*
Y122230D01*
X118700Y144000D02*
X119500D01*
X119100Y143600D02*
Y144400D01*
X121800Y143900D02*
X122600D01*
X122200Y143500D02*
Y144300D01*
X89000Y121800D02*
X89800D01*
X89400Y121400D02*
Y122200D01*
X84999Y124679D02*
X85799D01*
X85399Y124279D02*
Y125079D01*
X80077Y124423D02*
X80877D01*
X80477Y124023D02*
Y124823D01*
X43700Y112000D02*
X44500D01*
X44100Y111600D02*
Y112400D01*
X63625Y118425D02*
X64425D01*
X64025Y118025D02*
Y118825D01*
X50657Y112125D02*
X51457D01*
X51057Y111725D02*
Y112525D01*
X24403Y111700D02*
X25203D01*
X24803Y111300D02*
Y112100D01*
X24000Y115700D02*
X24800D01*
X24400Y115300D02*
Y116100D01*
X64200Y112200D02*
X65000D01*
X64600Y111800D02*
Y112600D01*
X76700Y108500D02*
X77500D01*
X77100Y108100D02*
Y108900D01*
X61100Y158400D02*
X61900D01*
X61500Y158000D02*
Y158800D01*
X50200Y159100D02*
X51000D01*
X50600Y158700D02*
Y159500D01*
X69300Y3500D02*
X70100D01*
X69700Y3100D02*
Y3900D01*
X-9094Y95797D02*
X-8294D01*
X-8694Y95397D02*
Y96197D01*
X-8747Y92400D02*
X-7947D01*
X-8347Y92000D02*
Y92800D01*
X36100Y135500D02*
X37300D01*
X36700Y134900D02*
Y136100D01*
X36100Y138500D02*
X37300D01*
X36700Y137900D02*
Y139100D01*
X151850Y98100D02*
X152650D01*
X152250Y97700D02*
Y98500D01*
X152800Y64900D02*
X153600D01*
X153200Y64500D02*
Y65300D01*
X156475Y77400D02*
X157275D01*
X156875Y77000D02*
Y77800D01*
X157418Y74800D02*
X158218D01*
X157818Y74400D02*
Y75200D01*
X157900Y65300D02*
X158700D01*
X158300Y64900D02*
Y65700D01*
X49800Y135300D02*
X50600D01*
X50200Y134900D02*
Y135700D01*
X64531Y132731D02*
X65332D01*
X64931Y132332D02*
Y133132D01*
X156300Y88300D02*
X157100D01*
X156700Y87900D02*
Y88700D01*
X115600Y79500D02*
X116400D01*
X116000Y79100D02*
Y79900D01*
X157000Y55100D02*
X157800D01*
X157400Y54700D02*
Y55500D01*
X156900Y49200D02*
X157700D01*
X157300Y48800D02*
Y49600D01*
X53000Y159100D02*
X54200D01*
X53600Y158500D02*
Y159700D01*
X93600Y-198074D02*
X94400D01*
X94000Y-198474D02*
Y-197674D01*
X93600Y-189300D02*
X94400D01*
X94000Y-189700D02*
Y-188900D01*
X110100Y-169019D02*
X110900D01*
X110500Y-169419D02*
Y-168619D01*
X106300Y-178800D02*
X107100D01*
X106700Y-179200D02*
Y-178400D01*
X98100Y-180233D02*
X98900D01*
X98500Y-180632D02*
Y-179832D01*
X99300Y-199000D02*
X100100D01*
X99700Y-199400D02*
Y-198600D01*
X94800Y-180200D02*
X95600D01*
X95200Y-180600D02*
Y-179800D01*
X92405Y-180200D02*
X93205D01*
X92805Y-180600D02*
Y-179800D01*
X110350Y-194150D02*
X111150D01*
X110750Y-194550D02*
Y-193750D01*
X107350Y-188650D02*
X108150D01*
X107750Y-189050D02*
Y-188250D01*
X131600Y-179100D02*
X132400D01*
X132000Y-179500D02*
Y-178700D01*
X144400Y-184700D02*
X145200D01*
X144800Y-185100D02*
Y-184300D01*
X141551Y-168150D02*
X142350D01*
X141951Y-168551D02*
Y-167751D01*
X141175Y-175775D02*
X141975D01*
X141575Y-176175D02*
Y-175375D01*
X198200Y59900D02*
X199000D01*
X198600Y59500D02*
Y60300D01*
X92600Y-58600D02*
X93400D01*
X93000Y-59000D02*
Y-58200D01*
X85400Y-42400D02*
X86200D01*
X85800Y-42800D02*
Y-42000D01*
X14700Y-47300D02*
X15500D01*
X15100Y-47700D02*
Y-46900D01*
X15870Y-92300D02*
X16670D01*
X16270Y-92700D02*
Y-91900D01*
X11304Y54650D02*
X12104D01*
X11704Y54250D02*
Y55050D01*
X30900Y91728D02*
X31700D01*
X31300Y91328D02*
Y92128D01*
X45900Y103800D02*
X46700D01*
X46300Y103400D02*
Y104200D01*
D62*
X71778Y-219968D02*
X84298D01*
Y-212488D01*
X87841D01*
Y-219968D02*
Y-212488D01*
Y-219968D02*
X95400D01*
X102959D01*
Y-212488D01*
X106502D01*
Y-219968D02*
Y-212488D01*
Y-219968D02*
X119022D01*
X161102Y304789D02*
X173622D01*
X161102Y297309D02*
Y304789D01*
X157559Y297309D02*
X161102D01*
X157559D02*
Y304789D01*
X150000D02*
X157559D01*
X142441D02*
X150000D01*
X142441Y297309D02*
Y304789D01*
X138898Y297309D02*
X142441D01*
X138898D02*
Y304789D01*
X126378D02*
X138898D01*
D63*
X128000Y303479D02*
Y304266D01*
X127606D01*
X127475Y304135D01*
Y304003D01*
X127606Y303872D01*
X128000D01*
X127606D01*
X127475Y303741D01*
Y303610D01*
X127606Y303479D01*
X128000D01*
X127082Y304266D02*
X126819D01*
X126688Y304135D01*
Y303872D01*
X126819Y303741D01*
X127082D01*
X127213Y303872D01*
Y304135D01*
X127082Y304266D01*
X126295Y303741D02*
X126032D01*
X125901Y303872D01*
Y304266D01*
X126295D01*
X126426Y304135D01*
X126295Y304003D01*
X125901D01*
X125639Y303741D02*
Y304266D01*
Y304003D01*
X125507Y303872D01*
X125376Y303741D01*
X125245D01*
X124327Y303479D02*
Y304266D01*
X124720D01*
X124851Y304135D01*
Y303872D01*
X124720Y303741D01*
X124327D01*
X122883Y304266D02*
X123146D01*
X123277Y304135D01*
Y303872D01*
X123146Y303741D01*
X122883D01*
X122752Y303872D01*
Y304003D01*
X123277D01*
X121965Y303479D02*
Y304266D01*
X122359D01*
X122490Y304135D01*
Y303872D01*
X122359Y303741D01*
X121965D01*
X121440Y304528D02*
X121309D01*
X121178Y304397D01*
Y303741D01*
X121572D01*
X121703Y303872D01*
Y304135D01*
X121572Y304266D01*
X121178D01*
X120522D02*
X120784D01*
X120916Y304135D01*
Y303872D01*
X120784Y303741D01*
X120522D01*
X120391Y303872D01*
Y304003D01*
X120916D01*
M02*
