%FSLAX25Y25*%
%MOIN*%
G70*
G01*
G75*
G04 Layer_Color=255*
%ADD10R,0.01575X0.05315*%
%ADD11R,0.07087X0.07480*%
%ADD12R,0.05906X0.07480*%
%ADD13R,0.03937X0.03937*%
%ADD14C,0.03937*%
%ADD15R,0.04724X0.02362*%
%ADD16R,0.03937X0.00787*%
%ADD17R,0.00787X0.03937*%
%ADD18R,0.03937X0.07087*%
%ADD19R,0.02362X0.04331*%
%ADD20R,0.01600X0.03000*%
%ADD21R,0.06496X0.01181*%
%ADD22R,0.01181X0.06496*%
G04:AMPARAMS|DCode=23|XSize=39.37mil|YSize=98.43mil|CornerRadius=0mil|HoleSize=0mil|Usage=FLASHONLY|Rotation=135.000|XOffset=0mil|YOffset=0mil|HoleType=Round|Shape=Rectangle|*
%AMROTATEDRECTD23*
4,1,4,0.04872,0.02088,-0.02088,-0.04872,-0.04872,-0.02088,0.02088,0.04872,0.04872,0.02088,0.0*
%
%ADD23ROTATEDRECTD23*%

G04:AMPARAMS|DCode=24|XSize=39.37mil|YSize=98.43mil|CornerRadius=0mil|HoleSize=0mil|Usage=FLASHONLY|Rotation=225.000|XOffset=0mil|YOffset=0mil|HoleType=Round|Shape=Rectangle|*
%AMROTATEDRECTD24*
4,1,4,-0.02088,0.04872,0.04872,-0.02088,0.02088,-0.04872,-0.04872,0.02088,-0.02088,0.04872,0.0*
%
%ADD24ROTATEDRECTD24*%

%ADD25R,0.08661X0.02362*%
%ADD26R,0.01772X0.01969*%
%ADD27R,0.07874X0.04724*%
%ADD28R,0.08000X0.04000*%
%ADD29R,0.09000X0.12000*%
%ADD30R,0.04331X0.05906*%
%ADD31R,0.01575X0.05315*%
%ADD32R,0.06000X0.05000*%
%ADD33R,0.11024X0.05906*%
%ADD34R,0.10630X0.05906*%
%ADD35R,0.09055X0.07087*%
%ADD36R,0.03150X0.03543*%
%ADD37R,0.07874X0.02362*%
%ADD38R,0.03937X0.03543*%
%ADD39R,0.04000X0.03200*%
%ADD40C,0.00906*%
%ADD41R,0.01969X0.00984*%
%ADD42R,0.00984X0.01969*%
%ADD43R,0.03543X0.03937*%
%ADD44R,0.05315X0.01575*%
%ADD45R,0.03937X0.03937*%
%ADD46R,0.05906X0.10630*%
%ADD47R,0.05000X0.06000*%
%ADD48C,0.01000*%
%ADD49C,0.03000*%
%ADD50C,0.02000*%
%ADD51C,0.00500*%
%ADD52C,0.00800*%
%ADD53C,0.00900*%
%ADD54C,0.00600*%
%ADD55C,0.04000*%
%ADD56C,0.00610*%
%ADD57C,0.01600*%
%ADD58R,0.09000X0.05500*%
%ADD59R,0.11400X0.05400*%
%ADD60R,0.24300X0.08400*%
%ADD61R,0.23700X0.05006*%
%ADD62C,0.00394*%
%ADD63C,0.00197*%
%ADD64O,0.06299X0.07874*%
%ADD65R,0.09449X0.07480*%
%ADD66C,0.05709*%
%ADD67O,0.07087X0.05906*%
%ADD68R,0.07087X0.05906*%
%ADD69C,0.05906*%
%ADD70R,0.05906X0.05906*%
%ADD71R,0.05906X0.05906*%
%ADD72C,0.12598*%
%ADD73C,0.01500*%
%ADD74C,0.01600*%
%ADD75C,0.02000*%
%ADD76R,0.01181X0.01772*%
%ADD77R,0.03000X0.03000*%
%ADD78R,0.01181X0.03150*%
%ADD79C,0.01260*%
%ADD80R,0.03200X0.04000*%
D11*
X162598Y299130D02*
D03*
X137402D02*
D03*
D32*
X118800Y8950D02*
D03*
Y-2050D02*
D03*
X140400Y9200D02*
D03*
Y-1800D02*
D03*
D38*
X31700Y136850D02*
D03*
Y130550D02*
D03*
X74600Y130550D02*
D03*
Y136850D02*
D03*
X31700Y154950D02*
D03*
Y148650D02*
D03*
X126200Y9000D02*
D03*
Y2700D02*
D03*
X101347Y125956D02*
D03*
Y132255D02*
D03*
X73200Y14550D02*
D03*
Y8250D02*
D03*
X132100Y9030D02*
D03*
Y2730D02*
D03*
X92400Y6650D02*
D03*
Y350D02*
D03*
X46800Y92250D02*
D03*
Y85950D02*
D03*
X89400Y112125D02*
D03*
Y118425D02*
D03*
X111400Y112125D02*
D03*
Y118425D02*
D03*
X117300D02*
D03*
Y112125D02*
D03*
X83500D02*
D03*
Y118425D02*
D03*
X60500Y112125D02*
D03*
Y118425D02*
D03*
X54600Y112125D02*
D03*
Y118425D02*
D03*
D39*
X25800Y137075D02*
D03*
Y130325D02*
D03*
X140700Y-25275D02*
D03*
Y-18525D02*
D03*
X148300Y-25275D02*
D03*
Y-18525D02*
D03*
X53560Y155208D02*
D03*
Y148458D02*
D03*
X65400Y155200D02*
D03*
Y148450D02*
D03*
X52500Y7900D02*
D03*
Y14650D02*
D03*
X58600Y8000D02*
D03*
Y14750D02*
D03*
X59460Y148458D02*
D03*
Y155208D02*
D03*
X25800Y155175D02*
D03*
Y148425D02*
D03*
X41630Y155175D02*
D03*
Y148425D02*
D03*
X47700Y148425D02*
D03*
Y155175D02*
D03*
X80500Y130325D02*
D03*
Y137075D02*
D03*
X107247Y132481D02*
D03*
Y125731D02*
D03*
X89979Y155175D02*
D03*
Y148425D02*
D03*
X96000Y155175D02*
D03*
Y148425D02*
D03*
X121000Y217600D02*
D03*
Y224350D02*
D03*
X132000Y-169025D02*
D03*
Y-175775D02*
D03*
X118800Y-25275D02*
D03*
Y-18525D02*
D03*
X40900Y70325D02*
D03*
Y77075D02*
D03*
X127200Y224350D02*
D03*
Y217600D02*
D03*
X35000Y92575D02*
D03*
Y85825D02*
D03*
X72800Y85850D02*
D03*
X66857D02*
D03*
X107270Y33875D02*
D03*
Y27125D02*
D03*
X79000Y14750D02*
D03*
Y8000D02*
D03*
X78000Y33875D02*
D03*
Y27125D02*
D03*
X101370Y33875D02*
D03*
Y27125D02*
D03*
X102400Y225D02*
D03*
Y6975D02*
D03*
X83900Y33875D02*
D03*
Y27125D02*
D03*
X148200Y8850D02*
D03*
Y2100D02*
D03*
X77670Y118650D02*
D03*
Y111900D02*
D03*
X126100Y118650D02*
D03*
Y111900D02*
D03*
X71770Y118650D02*
D03*
Y111900D02*
D03*
X40900Y92575D02*
D03*
Y85825D02*
D03*
X137900Y-175775D02*
D03*
Y-169025D02*
D03*
X120000Y-175775D02*
D03*
Y-169025D02*
D03*
X114100Y-169019D02*
D03*
Y-175769D02*
D03*
X80500Y142100D02*
D03*
Y148850D02*
D03*
X29100Y48450D02*
D03*
Y41700D02*
D03*
X35000Y48450D02*
D03*
Y41700D02*
D03*
X40900Y48450D02*
D03*
Y41700D02*
D03*
X58530Y48450D02*
D03*
Y41700D02*
D03*
X52653Y48450D02*
D03*
Y41700D02*
D03*
X46800Y48450D02*
D03*
Y41700D02*
D03*
Y30550D02*
D03*
Y23800D02*
D03*
X52700Y30550D02*
D03*
Y23800D02*
D03*
X58600Y30550D02*
D03*
Y23800D02*
D03*
X29100Y30550D02*
D03*
Y23800D02*
D03*
X35000Y30550D02*
D03*
Y23800D02*
D03*
X40900Y30550D02*
D03*
Y23800D02*
D03*
X72800Y79100D02*
D03*
X66857D02*
D03*
X40853Y58498D02*
D03*
Y65248D02*
D03*
X46753Y58525D02*
D03*
Y65275D02*
D03*
X52653Y58525D02*
D03*
Y65275D02*
D03*
X58553Y58525D02*
D03*
Y65275D02*
D03*
X29053Y58500D02*
D03*
Y65250D02*
D03*
X34953Y58500D02*
D03*
Y65250D02*
D03*
X95300Y118675D02*
D03*
Y111925D02*
D03*
X101200Y118675D02*
D03*
Y111925D02*
D03*
D43*
X146750Y78700D02*
D03*
X153050D02*
D03*
X98450Y227200D02*
D03*
X104750D02*
D03*
X156475Y150600D02*
D03*
X150175D02*
D03*
X104750Y215100D02*
D03*
X98450D02*
D03*
D51*
X232796Y297086D02*
G03*
X224921Y304960I-7874J0D01*
G01*
X-34921D02*
G03*
X-42795Y297086I0J-7874D01*
G01*
X106811Y204566D02*
G03*
X106811Y208503I0J1969D01*
G01*
X32008D02*
G03*
X32008Y204566I0J-1969D01*
G01*
X18229D02*
G03*
X18229Y208503I0J1969D01*
G01*
X153858Y204566D02*
G03*
X153858Y208503I0J1969D01*
G01*
X125000Y208503D02*
G03*
X125000Y204566I-0J-1969D01*
G01*
X169803Y208503D02*
G03*
X169803Y204566I0J-1969D01*
G01*
X224921Y-219980D02*
G03*
X232796Y-212106I0J7874D01*
G01*
X-42780Y-212122D02*
G03*
X-34906Y-219996I7874J0D01*
G01*
X-42795Y-212126D02*
Y204567D01*
X232796Y297086D02*
X232796Y297086D01*
Y208503D02*
Y297086D01*
Y-212126D02*
Y204566D01*
X-42795Y208503D02*
Y297086D01*
Y204566D02*
X18229D01*
X-42795Y208503D02*
X18229D01*
X169803D02*
X232796D01*
X169803Y204566D02*
X232796D01*
X32008Y208503D02*
X106811Y208503D01*
X32008Y204566D02*
X106811Y204566D01*
X-34921Y304960D02*
X224921D01*
X125000Y208503D02*
X153858D01*
X125000Y204566D02*
X153858D01*
X-34921Y-220000D02*
X224921D01*
D62*
X71778Y-219968D02*
X84298D01*
Y-212488D01*
X87841D01*
Y-219968D02*
Y-212488D01*
Y-219968D02*
X95400D01*
X102959D01*
Y-212488D01*
X106502D01*
Y-219968D02*
Y-212488D01*
Y-219968D02*
X119022D01*
X161102Y304789D02*
X173622D01*
X161102Y297309D02*
Y304789D01*
X157559Y297309D02*
X161102D01*
X157559D02*
Y304789D01*
X150000D02*
X157559D01*
X142441D02*
X150000D01*
X142441Y297309D02*
Y304789D01*
X138898Y297309D02*
X142441D01*
X138898D02*
Y304789D01*
X126378D02*
X138898D01*
D63*
X128000Y303479D02*
Y304266D01*
X127606D01*
X127475Y304135D01*
Y304003D01*
X127606Y303872D01*
X128000D01*
X127606D01*
X127475Y303741D01*
Y303610D01*
X127606Y303479D01*
X128000D01*
X127082Y304266D02*
X126819D01*
X126688Y304135D01*
Y303872D01*
X126819Y303741D01*
X127082D01*
X127213Y303872D01*
Y304135D01*
X127082Y304266D01*
X126295Y303741D02*
X126032D01*
X125901Y303872D01*
Y304266D01*
X126295D01*
X126426Y304135D01*
X126295Y304003D01*
X125901D01*
X125639Y303741D02*
Y304266D01*
Y304003D01*
X125507Y303872D01*
X125376Y303741D01*
X125245D01*
X124327Y303479D02*
Y304266D01*
X124720D01*
X124851Y304135D01*
Y303872D01*
X124720Y303741D01*
X124327D01*
X122883Y304266D02*
X123146D01*
X123277Y304135D01*
Y303872D01*
X123146Y303741D01*
X122883D01*
X122752Y303872D01*
Y304003D01*
X123277D01*
X121965Y303479D02*
Y304266D01*
X122359D01*
X122490Y304135D01*
Y303872D01*
X122359Y303741D01*
X121965D01*
X121440Y304528D02*
X121309D01*
X121178Y304397D01*
Y303741D01*
X121572D01*
X121703Y303872D01*
Y304135D01*
X121572Y304266D01*
X121178D01*
X120522D02*
X120784D01*
X120916Y304135D01*
Y303872D01*
X120784Y303741D01*
X120522D01*
X120391Y303872D01*
Y304003D01*
X120916D01*
D64*
X105282Y-202891D02*
D03*
X85482D02*
D03*
D65*
X81621Y-214309D02*
D03*
X109179D02*
D03*
D66*
X140157Y288500D02*
D03*
X159843D02*
D03*
D67*
X190000Y-70000D02*
D03*
X180000D02*
D03*
Y-30000D02*
D03*
X190000D02*
D03*
Y-50000D02*
D03*
X180000D02*
D03*
X190000Y-40000D02*
D03*
X180000D02*
D03*
Y-60000D02*
D03*
X190000D02*
D03*
Y-10000D02*
D03*
X180000D02*
D03*
Y10000D02*
D03*
X190000D02*
D03*
X180000Y0D02*
D03*
X190000D02*
D03*
Y20000D02*
D03*
X180000D02*
D03*
X190000Y30000D02*
D03*
X180000D02*
D03*
X190000Y40000D02*
D03*
X180000D02*
D03*
X190000Y50000D02*
D03*
X180000D02*
D03*
X190000Y60000D02*
D03*
X180000D02*
D03*
X190000Y70000D02*
D03*
X180000Y-20000D02*
D03*
X190000D02*
D03*
Y-80000D02*
D03*
X180000D02*
D03*
Y-90000D02*
D03*
X190000D02*
D03*
Y86000D02*
D03*
X180000D02*
D03*
X190000Y176000D02*
D03*
X180000Y166000D02*
D03*
X190000D02*
D03*
X180000Y156000D02*
D03*
X190000D02*
D03*
X180000Y146000D02*
D03*
X190000D02*
D03*
X180000Y136000D02*
D03*
X190000D02*
D03*
X180000Y126000D02*
D03*
X190000D02*
D03*
Y106000D02*
D03*
X180000D02*
D03*
X190000Y116000D02*
D03*
X180000D02*
D03*
Y96000D02*
D03*
X190000D02*
D03*
X10000Y-90000D02*
D03*
X0D02*
D03*
Y-50000D02*
D03*
X10000D02*
D03*
Y-70000D02*
D03*
X0D02*
D03*
X10000Y-60000D02*
D03*
X0D02*
D03*
Y-80000D02*
D03*
X10000D02*
D03*
Y-30000D02*
D03*
X0D02*
D03*
Y-10000D02*
D03*
X10000D02*
D03*
X0Y-20000D02*
D03*
X10000D02*
D03*
Y0D02*
D03*
X0D02*
D03*
X10000Y10000D02*
D03*
X0D02*
D03*
X10000Y20000D02*
D03*
X0D02*
D03*
X10000Y30000D02*
D03*
X0D02*
D03*
X10000Y40000D02*
D03*
X0D02*
D03*
X10000Y50000D02*
D03*
X0Y-40000D02*
D03*
X10000D02*
D03*
Y140000D02*
D03*
X0Y130000D02*
D03*
X10000D02*
D03*
X0Y120000D02*
D03*
X10000D02*
D03*
X0Y110000D02*
D03*
X10000D02*
D03*
X0Y100000D02*
D03*
X10000D02*
D03*
X0Y90000D02*
D03*
X10000D02*
D03*
Y70000D02*
D03*
X0D02*
D03*
X10000Y80000D02*
D03*
X0D02*
D03*
X-20000Y140000D02*
D03*
Y150000D02*
D03*
Y160000D02*
D03*
Y170000D02*
D03*
Y130000D02*
D03*
Y80000D02*
D03*
Y120000D02*
D03*
Y110000D02*
D03*
Y100000D02*
D03*
Y90000D02*
D03*
Y30000D02*
D03*
Y70000D02*
D03*
Y60000D02*
D03*
Y50000D02*
D03*
Y40000D02*
D03*
Y-20000D02*
D03*
Y20000D02*
D03*
Y10000D02*
D03*
Y0D02*
D03*
Y-10000D02*
D03*
Y-30000D02*
D03*
Y-40000D02*
D03*
Y-50000D02*
D03*
Y-60000D02*
D03*
Y-160000D02*
D03*
Y-150000D02*
D03*
Y-140000D02*
D03*
Y-130000D02*
D03*
Y-110000D02*
D03*
Y-100000D02*
D03*
Y-90000D02*
D03*
Y-80000D02*
D03*
Y-120000D02*
D03*
Y-70000D02*
D03*
X-30000D02*
D03*
Y-120000D02*
D03*
Y-80000D02*
D03*
Y-90000D02*
D03*
Y-100000D02*
D03*
Y-110000D02*
D03*
Y-130000D02*
D03*
Y-140000D02*
D03*
Y-150000D02*
D03*
Y-160000D02*
D03*
Y-60000D02*
D03*
Y-50000D02*
D03*
Y-40000D02*
D03*
Y-30000D02*
D03*
Y-10000D02*
D03*
Y0D02*
D03*
Y10000D02*
D03*
Y20000D02*
D03*
Y-20000D02*
D03*
Y40000D02*
D03*
Y50000D02*
D03*
Y60000D02*
D03*
Y70000D02*
D03*
Y30000D02*
D03*
Y90000D02*
D03*
Y100000D02*
D03*
Y110000D02*
D03*
Y120000D02*
D03*
Y80000D02*
D03*
Y130000D02*
D03*
Y170000D02*
D03*
Y160000D02*
D03*
Y150000D02*
D03*
Y140000D02*
D03*
X-20000Y180000D02*
D03*
X-30000Y-170000D02*
D03*
X-20000D02*
D03*
X220000Y139900D02*
D03*
Y149900D02*
D03*
Y159900D02*
D03*
Y169900D02*
D03*
Y129900D02*
D03*
Y79900D02*
D03*
Y119900D02*
D03*
Y109900D02*
D03*
Y99900D02*
D03*
Y89900D02*
D03*
Y29900D02*
D03*
Y69900D02*
D03*
Y59900D02*
D03*
Y49900D02*
D03*
Y39900D02*
D03*
Y-20100D02*
D03*
Y19900D02*
D03*
Y9900D02*
D03*
Y-100D02*
D03*
Y-10100D02*
D03*
Y-30100D02*
D03*
Y-40100D02*
D03*
Y-50100D02*
D03*
Y-60100D02*
D03*
Y-160100D02*
D03*
Y-150100D02*
D03*
Y-140100D02*
D03*
Y-130100D02*
D03*
Y-110100D02*
D03*
Y-100100D02*
D03*
Y-90100D02*
D03*
Y-80100D02*
D03*
Y-120100D02*
D03*
Y-70100D02*
D03*
X210000D02*
D03*
Y-120100D02*
D03*
Y-80100D02*
D03*
Y-90100D02*
D03*
Y-100100D02*
D03*
Y-110100D02*
D03*
Y-130100D02*
D03*
Y-140100D02*
D03*
Y-150100D02*
D03*
Y-160100D02*
D03*
Y-60100D02*
D03*
Y-50100D02*
D03*
Y-40100D02*
D03*
Y-30100D02*
D03*
Y-10100D02*
D03*
Y-100D02*
D03*
Y9900D02*
D03*
Y19900D02*
D03*
Y-20100D02*
D03*
Y39900D02*
D03*
Y49900D02*
D03*
Y59900D02*
D03*
Y69900D02*
D03*
Y29900D02*
D03*
Y89900D02*
D03*
Y99900D02*
D03*
Y109900D02*
D03*
Y119900D02*
D03*
Y79900D02*
D03*
Y129900D02*
D03*
Y169900D02*
D03*
Y159900D02*
D03*
Y149900D02*
D03*
Y139900D02*
D03*
X220000Y179900D02*
D03*
X210000Y-170100D02*
D03*
X220000D02*
D03*
D68*
X180000Y70000D02*
D03*
Y176000D02*
D03*
X0Y50000D02*
D03*
Y140000D02*
D03*
X-30000Y180000D02*
D03*
X210000Y179900D02*
D03*
D69*
X95399Y28503D02*
D03*
X95400Y91496D02*
D03*
X220000Y280000D02*
D03*
X30000D02*
D03*
Y270000D02*
D03*
Y260000D02*
D03*
X-10000Y220000D02*
D03*
Y260000D02*
D03*
Y250000D02*
D03*
Y240000D02*
D03*
Y230000D02*
D03*
X60000Y-210000D02*
D03*
Y-200000D02*
D03*
X50000D02*
D03*
Y-210000D02*
D03*
X40000Y-200000D02*
D03*
Y-210000D02*
D03*
X30000Y-200000D02*
D03*
X-30000Y230000D02*
D03*
X100000Y292000D02*
D03*
X90000Y165000D02*
D03*
X30000Y230000D02*
D03*
X10000Y220000D02*
D03*
X70000Y165000D02*
D03*
X-30000Y280000D02*
D03*
X160000Y165000D02*
D03*
Y175000D02*
D03*
X150000D02*
D03*
Y165000D02*
D03*
X140000Y175000D02*
D03*
Y165000D02*
D03*
X130000Y175000D02*
D03*
D70*
X220000Y290000D02*
D03*
X30000D02*
D03*
X-10000Y270000D02*
D03*
X-30000Y220000D02*
D03*
X30000D02*
D03*
X10000Y230000D02*
D03*
X-30000Y290000D02*
D03*
D71*
X30000Y-210000D02*
D03*
X90000Y292000D02*
D03*
X100000Y165000D02*
D03*
X60000D02*
D03*
X130000D02*
D03*
D72*
X185000Y-105000D02*
D03*
X5000D02*
D03*
X0Y195000D02*
D03*
X190000Y190000D02*
D03*
X130000Y-10000D02*
D03*
D76*
X99700Y-194780D02*
D03*
Y-192220D02*
D03*
D77*
X148353Y-7750D02*
D03*
Y-13250D02*
D03*
D78*
X115653Y215098D02*
D03*
X113684D02*
D03*
X111716D02*
D03*
X109747D02*
D03*
X115653Y227302D02*
D03*
X113684D02*
D03*
X111716D02*
D03*
X109747D02*
D03*
D79*
X60769Y136669D02*
D03*
X58800D02*
D03*
X56832D02*
D03*
X60769Y134700D02*
D03*
X58800D02*
D03*
X56832D02*
D03*
X60769Y132731D02*
D03*
X58800D02*
D03*
X56832D02*
D03*
X90737Y137094D02*
D03*
X88769D02*
D03*
X86800D02*
D03*
X90737Y135126D02*
D03*
X88769D02*
D03*
X86800D02*
D03*
X90737Y133157D02*
D03*
X88769D02*
D03*
X86800D02*
D03*
D80*
X150475Y43300D02*
D03*
X143725D02*
D03*
X132475Y14800D02*
D03*
X125725D02*
D03*
X146525Y84600D02*
D03*
X153275D02*
D03*
X146525Y90500D02*
D03*
X153275D02*
D03*
X-500Y-159900D02*
D03*
X6250D02*
D03*
X-500Y-149900D02*
D03*
X6250D02*
D03*
X-500Y-139900D02*
D03*
X6250D02*
D03*
X6250Y-133900D02*
D03*
X-500D02*
D03*
X162825Y86000D02*
D03*
X169575D02*
D03*
X162825Y96000D02*
D03*
X169575D02*
D03*
X162825Y124000D02*
D03*
X169575D02*
D03*
X162825Y129900D02*
D03*
X169575D02*
D03*
X162850Y150600D02*
D03*
X169600D02*
D03*
X3000Y157700D02*
D03*
X-3750D02*
D03*
X156875Y-74200D02*
D03*
X150125D02*
D03*
X45775Y290000D02*
D03*
X39025D02*
D03*
X45775Y280000D02*
D03*
X39025D02*
D03*
X45775Y270000D02*
D03*
X39025D02*
D03*
X45775Y260000D02*
D03*
X39025D02*
D03*
X191450Y-150100D02*
D03*
X184700D02*
D03*
X-575Y-174100D02*
D03*
X6175D02*
D03*
X184700Y-144200D02*
D03*
X191450D02*
D03*
X3000Y169500D02*
D03*
X-3750D02*
D03*
X162825Y138700D02*
D03*
X169575D02*
D03*
X169600Y144600D02*
D03*
X162850D02*
D03*
X169775Y-74100D02*
D03*
X163025D02*
D03*
X3000Y163600D02*
D03*
X-3750D02*
D03*
X169775Y-85900D02*
D03*
X163025D02*
D03*
X163025Y-80000D02*
D03*
X169775D02*
D03*
X169800Y-67700D02*
D03*
X163050D02*
D03*
X169775Y-57700D02*
D03*
X163025D02*
D03*
X163025Y-51800D02*
D03*
X169775D02*
D03*
X169775Y-45900D02*
D03*
X163025D02*
D03*
X163025Y-40000D02*
D03*
X169775D02*
D03*
X163025Y-30000D02*
D03*
X169775D02*
D03*
X163025Y-20000D02*
D03*
X169775D02*
D03*
X162825Y-100D02*
D03*
X169575D02*
D03*
X162825Y10000D02*
D03*
X169575D02*
D03*
X20975Y260000D02*
D03*
X14225D02*
D03*
X20975Y270000D02*
D03*
X14225D02*
D03*
X20975Y280000D02*
D03*
X14225D02*
D03*
X20975Y290000D02*
D03*
X14225D02*
D03*
X28575Y5500D02*
D03*
X21825D02*
D03*
X28575Y-4600D02*
D03*
X21825D02*
D03*
M02*
