M48
;Layer_Color=9474304
;FILE_FORMAT=2:5
INCH,LZ
;TYPE=PLATED
T1F00S00C0.00800
T2F00S00C0.01200
T4F00S00C0.03346
T5F00S00C0.04016
;TYPE=NON_PLATED
T8F00S00C0.05906
T9F00S00C0.12598
%
T01
X-003765Y-0215
Y-02029
X-0014225Y-0215
X-0002575Y-0201004
X00043Y-0195505
X0073906Y-02008
X00741Y-02149
X0094Y-0198074
X00997Y-0199
X011075Y-019415
X0115Y-0194555
X01184Y-02149
X0136921
X0136836Y-02024
X01347Y-0198
X01507Y-01981
X01555Y-02149
X0163103Y-02161
X0189
X0178887Y-0204158
X01743Y-01984
X0212942Y-0204158
X0214897Y-02161
X01884Y-01741
X01753Y-01578
X01666Y-01551
X0161094Y-0161579
X0137Y-01621
X0141951Y-016815
X0141575Y-0175775
X01448Y-01847
X01404Y-01882
X013844Y-01914
X013096Y-0187953
X0132Y-01791
X01452Y-01502
X0145Y-01442
X02041Y-01374
X0204Y-01286
X02041Y-01233
X02042Y-01069
X02043Y-00902
Y-00778
X02304Y-00813
X02302Y-00886
X02235Y-01153
X02304Y-0129286
Y-0051595
X0221801Y-005525
X0215Y-00426
X02049Y-00481
X01737Y-00617
X01598Y-00677
X0156875Y-0070725
X0158379Y-0080021
X015999Y-00859
X01568Y-00861
X01666Y-00921
X0135406Y-0075
X01254Y-0079584
X01175Y-00686
X01094
X01213Y-00606
X01206Y-00445
X008811Y-00489
X00858Y-00424
X00849Y-00398
X008731Y-006009
X0093Y-00586
X00704Y-00551
X00629Y-0057621
X00627Y-005
Y-0038524
X00151Y-00421
Y-00473
X00152Y-00579
X00148Y-00731
X0027325Y-00749
X00268Y-00828
X001627Y-00923
X00264Y-01042
X00309Y-01229
X00284Y-01339
X00241Y-01454
X0022Y-01499
X00172Y-01519
X0014Y-01599
X00195Y-01644
X001115Y-017735
X-00041Y-01674
X-001
X-00153Y-01751
X-0022058Y-0186442
X-00141Y-01475
X-00148Y-01425
X-0014874Y-012797
X-0014Y-012065
X-00282Y-0125
Y-0135
X-00283Y-00951
X-00051Y-00721
X-00054Y-00579
X-00059Y-00379
X00475Y-01005
X00549Y-00982
X00616Y-00984
X00638Y-0109317
X00551Y-0108
X005853Y-011693
X005745Y-01228
X00618Y-01399
X00423Y-01464
X004Y-01788
X006Y-01787
X0071905Y-0182025
X00741Y-01925
X0094Y-01893
X0092805Y-01802
X00952
X00985Y-0180233
X0089Y-01802
X01067Y-01788
X010775Y-018865
X01105Y-0169019
X01074Y-01605
X01121Y-0153868
X01219Y-01791
X008385Y-01641
X00685Y-01639
X00776Y-00986
X010537Y-011533
X01242Y-01144
X01251Y-01034
X00453Y-0111247
X00098Y-01399
X-00404Y-01814
X-003765Y-01859
X-00135Y-00297
X-001305Y-001815
X-00149Y-00123
X-00059Y-0020817
X-00052Y-00036
X00229Y-00117
X00275Y-00112
X0031653Y-00081
X0034295Y-0006995
X0035953Y-00107
X0045157Y-001825
X00453Y-0024775
X00475Y-00288
X00701Y-003095
X00709Y-00236
X00807
X0081Y-00346
X01016Y-00281
X01091Y-00282
X01148Y-0036963
X0122375Y-0025275
X01054Y-00161
X00978Y-00162
X0083Y00004
X00831Y0004
X00697Y00035
X00757Y-00046
X007743Y0023194
X0074Y00233
X0070794Y0023194
X0062202Y002752
X0062282Y003055
X00643Y00337
X0062798Y00396
X0063168Y0043268
X00598Y00538
X00623Y00571
Y00653
X006456Y00712
X0058395Y0072795
X0061Y00792
X00629Y00822
X00649Y00913
X0068628Y009
X00713
X00726Y00973
X00746Y00955
X00843Y00963
X0090479Y0096681
X0094416Y0096616
X00992Y00967
X0100321Y0106578
X0096384Y0106516
X0092447Y0106629
X0086542Y0106558
X0080636Y0107142
X00771Y01085
X0062798Y01072
X00646Y01122
X0064025Y0118425
X0051057Y0112125
X00441Y0112
X00404Y011
X00463Y01038
X00313Y0091728
X0022906Y01001
X00222Y01111
X0024803Y01117
X00244Y01157
X00157Y0109936
X00049Y01179
X-00085Y01033
X-0008694Y0095797
X-0008347Y00924
X-00075Y00795
X-00058Y00697
X0011704Y005465
X00291Y00546
Y00516
X00327Y00545
X003705Y0054602
X00433Y00546
X00469Y00535
X00475Y00708
X00341
X0017962Y007921
X00151Y00378
X00256Y00417
X00291Y00336
X00255Y00277
X00263Y00207
X0037Y00206
X00432Y00208
X00438Y00134
X00351Y0008
X00319Y00055
X0035Y0038
X004345Y003801
X00468Y00337
X00544Y00201
X00727Y00354
X007283Y0048
X00742Y00514
X007415Y0056679
X00799Y0054
X0081318Y00599
X008309Y00621
X009Y00566
X008928Y004891
X00921Y00464
X00949
X01089Y00424
X01045Y0037758
X01046Y00232
X00966Y00235
X00934
X008851Y0022939
X00883Y00129
X0092447Y00109
X01022Y00135
X0106Y00114
X01082Y00131
X01217
X01141Y00236
X0110494Y00615
X01179Y00626
X0118Y00663
X01141Y00691
X011079Y00711
X01052Y00703
X01075Y00762
X01124Y00787
X0116Y00795
X01141Y00842
X01121Y00865
X01097Y00886
X0109895Y00946
X01101Y00972
X0122Y00967
X01186Y01078
X0125912Y0107919
X010615Y0106629
X0105Y0111925
X00913Y00889
X00974Y008
X00996Y00781
X00956Y0076
X00818Y00781
X00813Y00827
X00732Y00652
X-00122Y00303
X-00125Y00257
X-00276Y0025
X00156Y-00285
X00253Y-00344
X0136552Y-0018525
X01598Y-00199
X01537Y-00299
X01714Y-00351
X01624Y-00046
Y00144
X01662Y00252
X01558Y00295
X0141988Y0029488
X0141999Y0025551
X01314Y002855
X0127871Y002511
X01282Y00393
X0130602Y0041378
X01287Y00444
X0132331Y0047205
X01319Y0055079
X0129928Y00615
X01293Y00687
X01282Y0071
X0129053Y00741
X01298Y00767
X0132226Y0074764
X01318Y00895
X01302Y00964
X0127013Y0095913
X014595Y00981
X015225
X01591Y0096
X01567Y00883
X0156475Y00846
X0156875Y00774
X0157818Y00748
X01583Y00653
X01532Y00649
X01574Y00551
X01573Y00492
X01537Y00432
X0146Y00517
X01662Y00558
X01752Y00528
X01732Y00448
X0185Y00544
X01986Y00599
Y0074
X01963Y00886
X0195Y01085
X02008Y0113214
X02235Y01059
X0221Y0065
X02267Y00421
X02229Y0035
X0223Y00248
X02215Y0004925
X02218Y-00051
X02304Y-00028
Y-0025697
X02217Y-0025
X01393Y00049
X0142788Y0090512
X01375Y01157
X01726Y0116
X016835Y010865
X01569Y013345
X013595Y013345
X01334Y01379
X01357Y01424
X01353Y0155
X0152209Y01595
X01559
X01628Y0154
X0174Y01446
X01993Y01443
X020345Y01404
X01969Y01241
X02218Y01246
X022885Y0165682
Y01891
Y02014
X02289Y02134
X02232Y02134
X02233Y02193
X02232Y02235
X02289
Y02363
Y02463
X02186
X02074
X02029Y02533
X0195734Y02463
X018157Y02533
X017567Y02533
X016977Y02533
X01639
Y02667
X0173993Y0269163
X01513Y02711
X01352Y0263
X012715Y025185
Y023195
X01462Y0237
X01531Y02153
X01596
X01652Y021495
X01735Y021275
X01695Y02014
X01711Y01868
X01648Y01892
X01561Y01868
X0156322Y01932
X0149804Y0199277
X01379Y01868
X0137Y02168
X01681Y022985
X017945Y023455
X01903Y02184
Y02134
X01953
X0186459Y02014
X0204618
X0205Y01889
X02132Y02235
X02131Y02397
X01383Y01217
X01243Y01263
X01173Y01255
X01149Y01338
X01191Y0144
X01222Y01439
X01242Y01406
X0100927Y0141567
X00983Y014158
X0095827Y0141567
X00952Y01339
X00977
X0092474Y0135126
X00922Y01312
X00842Y01332
X0084615Y0139801
X0090031Y01453
X00765Y01435
X00654Y01451
X00631Y01439
X0062361Y01415
X0064931Y0132731
X00746Y0127147
X00771Y0127075
X00805Y0127275
X0080477Y0124423
X0085399Y0124679
X00894Y01218
X00953
X01012Y012183
X0099925Y0154975
X0083983Y0158413
X00782Y01586
X00654Y0158413
X00615Y01584
X00506Y01591
X00477Y01587
X004163Y01585
X004559Y0168
X0019783Y0169392
X00139Y0169175
X0008Y01692
Y01561
X00029Y0153925
X-0002866Y0148
X00207Y01437
X0023375Y0143875
X00194Y0134875
X00317Y01273
X0043773Y0128333
X00464Y012832
X0048873Y0128333
X00502Y01353
X0049427Y0141267
X00468Y014128
X0044327Y0141267
X00399Y0134875
X0019777Y0156123
X-00146Y0169335
X-001995Y02014
X-002Y02114
X-00054Y02113
X-00069Y02014
X00125
X00129Y02114
X00212Y02231
X00209Y023137
X00121Y02423
Y02541
X0012Y02645
X00071Y02642
X-0004507Y02726
X-00053Y0237794
Y02334
Y0223294
X0034Y02015
X0053Y02013
X006353Y02015
X0079975Y0199343
X0092676Y0199297
X01053Y0199344
X01056Y02022
X01058Y0211
X01117Y02196
X0111732Y0231097
X0107Y0233
X01039Y02331
X0108035Y023811
X0116416Y0245984
Y02528
X01164Y02558
X011159Y02629
X0118637Y0269151
X0126Y0269
X0123975Y02651
X01146Y02738
X00976Y02518
X00899Y02555
X0086142Y0257776
X00812Y0258342
X00825Y02539
X00812Y02643
X00784Y0261726
X00683Y02559
X00731Y0242
X0082218Y0242041
X00847Y02326
X0084173Y0224227
X00819Y02258
X007825Y022585
X00754Y02318
X00755Y02197
X00713Y022367
X00654
X00605Y0223294
X006176Y023362
X00449Y02432
Y02508
X00496Y027
X008535Y022155
Y021525
X0094898Y02151
X0094Y02224
X01021
X012085Y0231876
X01211Y02129
X012625Y01868
X01053Y01933
X01057Y01773
X00832Y0179247
X0078847
X00837Y01903
X0071031
X-00338Y01748
X-00323Y01452
Y01348
X-003915Y02014
X-00393Y02114
X-00392Y0232394
Y0252394
Y0272394
X-003
X-00392Y02924
X-00328Y03018
X00072
X0014225Y02851
X0011984Y02752
X-00015Y02759
X00496Y02799
X0049725Y0289994
X00472Y03018
X00725Y0287794
Y02784
X00784
X00842Y02784
X00901Y02784
X0096
X01019Y02784
X01078Y02784
X0118637Y02786
X01259Y02897
X01077Y02894
X01172Y03018
X00872
X00666Y02784
X01411Y02766
X01513Y02795
X01736Y0280687
X0201894Y0290005
T02
X-00248Y-00428
X01176Y-0030603
X01114Y0108
X01555Y-00216
X01419Y02221
X013855
X01352
X01351Y023
X013845
X01418
X01419Y02378
X013855
X01352
X01795Y02396
Y02423
X01832
Y02396
X01906Y02284
X01933
Y02257
Y0223
X01906
Y02257
X02006Y02346
X02033
X0206
Y02373
X02033
X02006
X01141Y01452
X00744Y01421
X0053637Y01419
X00536Y01591
X00367Y01385
Y01355
X003755Y019485
X01627Y02931
X01663
X01696
T04
X0140157Y02885
X0159843
T05
X003Y-021
X004
X005
X006
Y-02
X005
X004
X003
X021Y-01701
Y-01601
X022
Y-01501
Y-01401
Y-01301
Y-01201
Y-01101
Y-01001
Y-00901
Y-00801
Y-00701
Y-00601
Y-00501
Y-00401
X021
Y-00501
Y-00601
Y-00701
Y-00801
Y-00901
Y-01001
Y-01101
Y-01201
Y-01301
Y-01401
Y-01501
X022Y-01701
X019Y-009
Y-008
Y-007
X018
Y-006
Y-005
X019
Y-004
X018
X019Y-006
X018Y-008
Y-009
X001
X0
Y-008
Y-007
X001
Y-006
Y-005
X0
Y-006
Y-004
X001
X-002
Y-005
Y-006
Y-007
Y-008
Y-009
Y-01
Y-011
Y-012
Y-013
Y-014
Y-015
Y-016
Y-017
X001Y-008
X-003
Y-007
Y-006
Y-005
Y-004
Y-009
Y-01
Y-011
Y-012
Y-013
Y-014
Y-015
Y-016
Y-017
Y-003
Y-002
Y-001
Y0
Y001
Y002
Y003
Y004
Y005
Y006
Y007
Y008
Y009
Y01
Y011
X-002
Y01
Y009
Y008
Y007
Y006
Y005
Y004
Y003
Y002
Y001
Y0
Y-001
Y-002
Y-003
X0
X001
Y-002
Y-001
X0
Y-002
Y0
X001
Y001
X0
Y002
X001
Y003
X0
Y004
Y005
X001
Y004
Y007
X0
Y008
Y009
Y01
Y011
X001
Y01
Y009
Y008
X018Y0086
X019
Y0096
Y0106
X018
Y0116
X019
X021Y01099
X022
Y00999
Y00899
Y00799
Y00699
Y00599
Y00499
Y00399
Y00299
Y00199
Y00099
Y-00001
Y-00101
Y-00201
Y-00301
X021
Y-00201
Y-00101
Y-00001
Y00099
Y00199
Y00299
Y00399
Y00499
Y00599
Y00699
Y00799
Y00899
Y00999
X018Y0096
Y007
Y006
Y005
Y004
Y003
Y002
Y001
X019
Y0
Y-001
X018
Y0
Y-002
Y-003
X019
Y-002
Y002
Y003
Y004
Y005
Y006
Y007
Y0126
Y0136
Y0146
Y0156
Y0166
Y0176
X018
Y0166
Y0156
Y0146
Y0136
Y0126
X021Y01299
X022
Y01399
Y01499
Y01599
Y01699
X021
Y01599
Y01499
Y01399
Y01199
X022
Y01799
X021
X016Y0175
Y0165
X015
Y0175
X014
Y0165
X013
Y0175
X01Y0165
X009
X007
X006
X001Y014
Y013
X0
Y012
X001
X0Y014
X-002
Y015
Y016
Y017
Y018
X-001Y022
Y023
Y024
Y025
Y026
Y027
X003
Y026
Y023
Y022
X001
Y023
X-002Y013
Y012
X-003
Y013
Y014
Y015
Y016
Y017
Y018
Y022
Y023
Y028
Y029
X003
Y028
X009Y0292
X01
X022Y029
Y028
T08
X0095399Y0028503
X00954Y0091496
T09
X0185Y-0105
X0005
X013Y-001
X019Y019
X0Y0195
M30
