G04*
G04 #@! TF.GenerationSoftware,Altium Limited,Altium Designer,19.1.8 (144)*
G04*
G04 Layer_Color=32768*
%FSLAX42Y42*%
%MOMM*%
G71*
G01*
G75*
%ADD11C,0.10*%
%ADD13C,0.25*%
%ADD49C,0.05*%
D11*
X6685Y2162D02*
X6785D01*
X6735Y2112D02*
Y2212D01*
X6745Y1082D02*
X6835D01*
X6790Y1038D02*
Y1127D01*
X6330Y2370D02*
Y2460D01*
X6285Y2415D02*
X6375D01*
X7235Y2115D02*
Y2205D01*
X7190Y2160D02*
X7280D01*
X3350Y2500D02*
Y2600D01*
X3300Y2550D02*
X3400D01*
X4375Y2500D02*
Y2600D01*
X4325Y2550D02*
X4425D01*
X4850Y2775D02*
X4950D01*
X4900Y2725D02*
Y2825D01*
X5300Y2000D02*
Y2100D01*
X5250Y2050D02*
X5350D01*
X4888Y1415D02*
Y1505D01*
X4843Y1460D02*
X4933D01*
X4350Y1605D02*
Y1695D01*
X4305Y1650D02*
X4395D01*
X4680Y1135D02*
X4770D01*
X4725Y1090D02*
Y1180D01*
X4888Y1718D02*
Y1808D01*
X4843Y1763D02*
X4933D01*
X4563Y1613D02*
X4663D01*
X4613Y1563D02*
Y1663D01*
X4200Y1605D02*
Y1695D01*
X4155Y1650D02*
X4245D01*
X4050Y1605D02*
Y1695D01*
X4005Y1650D02*
X4095D01*
X3900Y1605D02*
Y1695D01*
X3855Y1650D02*
X3945D01*
X350Y655D02*
Y745D01*
X305Y700D02*
X395D01*
X2265Y2515D02*
X2365D01*
X2315Y2465D02*
Y2565D01*
X600Y655D02*
Y745D01*
X555Y700D02*
X645D01*
X1370Y2192D02*
X1470D01*
X1420Y2142D02*
Y2242D01*
X927Y1765D02*
X1027D01*
X977Y1715D02*
Y1815D01*
X995Y2662D02*
X1085D01*
X1040Y2617D02*
Y2708D01*
X993Y2502D02*
X1082D01*
X1038Y2458D02*
Y2548D01*
X998Y2295D02*
X1088D01*
X1043Y2250D02*
Y2340D01*
X1425Y1735D02*
X1515D01*
X1470Y1690D02*
Y1780D01*
X1420Y1912D02*
X1510D01*
X1465Y1867D02*
Y1958D01*
X973Y1370D02*
Y1470D01*
X923Y1420D02*
X1023D01*
X690Y2302D02*
Y2402D01*
X640Y2352D02*
X740D01*
X532Y1725D02*
Y1825D01*
X482Y1775D02*
X582D01*
D13*
X0Y3375D02*
X7600D01*
X7600Y375D01*
X0D02*
X7600D01*
X0D02*
Y3375D01*
D49*
X7075Y1770D02*
Y2555D01*
X6395Y1770D02*
Y2555D01*
X7075D01*
X6395Y1770D02*
X7075D01*
X6645Y1012D02*
Y1152D01*
X6935Y1012D02*
Y1152D01*
X6645D02*
X6935D01*
X6645Y1012D02*
X6935D01*
X6260Y2560D02*
X6400D01*
X6260Y2270D02*
X6400D01*
Y2560D01*
X6260Y2270D02*
Y2560D01*
X7165Y2305D02*
X7305D01*
X7165Y2015D02*
X7305D01*
Y2305D01*
X7165Y2015D02*
Y2305D01*
X2752Y2010D02*
X3947D01*
X2752Y3090D02*
X3947D01*
Y2010D02*
Y3090D01*
X2752Y2010D02*
Y3090D01*
X4070Y2375D02*
X4680D01*
X4070Y2725D02*
X4680D01*
Y2375D02*
Y2725D01*
X4070Y2375D02*
Y2725D01*
X4805Y2605D02*
Y2945D01*
X4995Y2605D02*
Y2945D01*
X4805Y2605D02*
X4995D01*
X4805Y2945D02*
X4995D01*
X5055Y2480D02*
X5545D01*
X5055Y1620D02*
X5545D01*
Y2480D01*
X5055Y1620D02*
Y2480D01*
X4818Y1315D02*
X4958D01*
X4818Y1605D02*
X4958D01*
X4818Y1315D02*
Y1605D01*
X4958Y1315D02*
Y1605D01*
X4280Y1795D02*
X4420D01*
X4280Y1505D02*
X4420D01*
Y1795D01*
X4280Y1505D02*
Y1795D01*
X4580Y1065D02*
Y1205D01*
X4870Y1065D02*
Y1205D01*
X4580D02*
X4870D01*
X4580Y1065D02*
X4870D01*
X4818Y1908D02*
X4958D01*
X4818Y1618D02*
X4958D01*
Y1908D01*
X4818Y1618D02*
Y1908D01*
X4793Y1298D02*
Y1928D01*
X4433Y1298D02*
Y1928D01*
X4793D01*
X4433Y1298D02*
X4793D01*
X4130Y1795D02*
X4270D01*
X4130Y1505D02*
X4270D01*
Y1795D01*
X4130Y1505D02*
Y1795D01*
X3980Y1505D02*
X4120D01*
X3980Y1795D02*
X4120D01*
X3980Y1505D02*
Y1795D01*
X4120Y1505D02*
Y1795D01*
X3830Y1505D02*
X3970D01*
X3830Y1795D02*
X3970D01*
X3830Y1505D02*
Y1795D01*
X3970Y1505D02*
Y1795D01*
X280Y555D02*
X420D01*
X280Y845D02*
X420D01*
X280Y555D02*
Y845D01*
X420Y555D02*
Y845D01*
X2570Y2060D02*
Y2970D01*
X2060Y2060D02*
Y2970D01*
X2570D01*
X2060Y2060D02*
X2570D01*
X530Y555D02*
X670D01*
X530Y845D02*
X670D01*
X530Y555D02*
Y845D01*
X670Y555D02*
Y845D01*
X1227Y2017D02*
Y2367D01*
X1612Y2017D02*
Y2367D01*
X1227D02*
X1612D01*
X1227Y2017D02*
X1612D01*
X785Y1590D02*
Y1940D01*
X1170Y1590D02*
Y1940D01*
X785D02*
X1170D01*
X785Y1590D02*
X1170D01*
X1185Y2592D02*
Y2733D01*
X895Y2592D02*
Y2733D01*
Y2592D02*
X1185D01*
X895Y2733D02*
X1185D01*
X893Y2433D02*
Y2573D01*
X1182Y2433D02*
Y2573D01*
X893D02*
X1182D01*
X893Y2433D02*
X1182D01*
X1188Y2225D02*
Y2365D01*
X898Y2225D02*
Y2365D01*
Y2225D02*
X1188D01*
X898Y2365D02*
X1188D01*
X1615Y1665D02*
Y1805D01*
X1325Y1665D02*
Y1805D01*
Y1665D02*
X1615D01*
X1325Y1805D02*
X1615D01*
X1320Y1842D02*
Y1983D01*
X1610Y1842D02*
Y1983D01*
X1320D02*
X1610D01*
X1320Y1842D02*
X1610D01*
X780Y1245D02*
X1165D01*
X780Y1595D02*
X1165D01*
Y1245D02*
Y1595D01*
X780Y1245D02*
Y1595D01*
X497Y2177D02*
X882D01*
X497Y2527D02*
X882D01*
Y2177D02*
Y2527D01*
X497Y2177D02*
Y2527D01*
X340Y1950D02*
X725D01*
X340Y1600D02*
X725D01*
X340D02*
Y1950D01*
X725Y1600D02*
Y1950D01*
M02*
