G04*
G04 #@! TF.GenerationSoftware,Altium Limited,Altium Designer,19.1.8 (144)*
G04*
G04 Layer_Color=2752767*
%FSLAX42Y42*%
%MOMM*%
G71*
G01*
G75*
%ADD44C,0.05*%
D44*
X351Y1162D02*
X359Y1171D01*
X376D01*
X385Y1162D01*
Y1128D01*
X376Y1120D01*
X359D01*
X351Y1128D01*
Y1162D01*
X402Y1120D02*
Y1128D01*
X410D01*
Y1120D01*
X402D01*
X444Y1128D02*
X453Y1120D01*
X469D01*
X478Y1128D01*
Y1162D01*
X469Y1171D01*
X453D01*
X444Y1162D01*
Y1154D01*
X453Y1145D01*
X478D01*
X605Y1162D02*
X613Y1171D01*
X630D01*
X639Y1162D01*
Y1128D01*
X630Y1120D01*
X613D01*
X605Y1128D01*
Y1162D01*
X656Y1120D02*
Y1128D01*
X664D01*
Y1120D01*
X656D01*
X698Y1128D02*
X707Y1120D01*
X723D01*
X732Y1128D01*
Y1162D01*
X723Y1171D01*
X707D01*
X698Y1162D01*
Y1154D01*
X707Y1145D01*
X732D01*
X1528Y2555D02*
X1537Y2563D01*
X1554D01*
X1562Y2555D01*
Y2521D01*
X1554Y2512D01*
X1537D01*
X1528Y2521D01*
Y2555D01*
X1579Y2512D02*
Y2521D01*
X1588D01*
Y2512D01*
X1579D01*
X1622Y2521D02*
X1630Y2512D01*
X1647D01*
X1655Y2521D01*
Y2555D01*
X1647Y2563D01*
X1630D01*
X1622Y2555D01*
Y2546D01*
X1630Y2538D01*
X1655D01*
X1783Y2555D02*
X1791Y2563D01*
X1808D01*
X1816Y2555D01*
Y2521D01*
X1808Y2512D01*
X1791D01*
X1783Y2521D01*
Y2555D01*
X1833Y2512D02*
Y2521D01*
X1842D01*
Y2512D01*
X1833D01*
X1876Y2521D02*
X1884Y2512D01*
X1901D01*
X1909Y2521D01*
Y2555D01*
X1901Y2563D01*
X1884D01*
X1876Y2555D01*
Y2546D01*
X1884Y2538D01*
X1909D01*
X290Y2136D02*
X298Y2144D01*
X315D01*
X324Y2136D01*
Y2102D01*
X315Y2093D01*
X298D01*
X290Y2102D01*
Y2136D01*
X341Y2093D02*
Y2102D01*
X349D01*
Y2093D01*
X341D01*
X383Y2102D02*
X392Y2093D01*
X408D01*
X417Y2102D01*
Y2136D01*
X408Y2144D01*
X392D01*
X383Y2136D01*
Y2127D01*
X392Y2119D01*
X417D01*
X290Y2390D02*
X298Y2398D01*
X315D01*
X324Y2390D01*
Y2356D01*
X315Y2348D01*
X298D01*
X290Y2356D01*
Y2390D01*
X341Y2348D02*
Y2356D01*
X349D01*
Y2348D01*
X341D01*
X383Y2356D02*
X392Y2348D01*
X408D01*
X417Y2356D01*
Y2390D01*
X408Y2398D01*
X392D01*
X383Y2390D01*
Y2381D01*
X392Y2373D01*
X417D01*
X5669Y1394D02*
X5677Y1402D01*
X5694D01*
X5703Y1394D01*
Y1360D01*
X5694Y1351D01*
X5677D01*
X5669Y1360D01*
Y1394D01*
X5720Y1351D02*
Y1360D01*
X5728D01*
Y1351D01*
X5720D01*
X5762Y1360D02*
X5770Y1351D01*
X5787D01*
X5796Y1360D01*
Y1394D01*
X5787Y1402D01*
X5770D01*
X5762Y1394D01*
Y1385D01*
X5770Y1377D01*
X5796D01*
X5669Y1648D02*
X5677Y1656D01*
X5694D01*
X5703Y1648D01*
Y1614D01*
X5694Y1605D01*
X5677D01*
X5669Y1614D01*
Y1648D01*
X5720Y1605D02*
Y1614D01*
X5728D01*
Y1605D01*
X5720D01*
X5762Y1614D02*
X5770Y1605D01*
X5787D01*
X5796Y1614D01*
Y1648D01*
X5787Y1656D01*
X5770D01*
X5762Y1648D01*
Y1639D01*
X5770Y1631D01*
X5796D01*
X3062Y965D02*
X3071Y973D01*
X3088D01*
X3096Y965D01*
Y931D01*
X3088Y923D01*
X3071D01*
X3062Y931D01*
Y965D01*
X3113Y923D02*
Y931D01*
X3122D01*
Y923D01*
X3113D01*
X3156Y973D02*
X3189D01*
Y965D01*
X3156Y931D01*
Y923D01*
X3206D02*
X3223D01*
X3215D01*
Y973D01*
X3206Y965D01*
X3249Y923D02*
X3266D01*
X3257D01*
Y973D01*
X3249Y965D01*
X3325Y923D02*
X3291D01*
X3325Y956D01*
Y965D01*
X3316Y973D01*
X3299D01*
X3291Y965D01*
M02*
