G04*
G04 #@! TF.GenerationSoftware,Altium Limited,Altium Designer,19.1.8 (144)*
G04*
G04 Layer_Color=16711935*
%FSLAX25Y25*%
%MOIN*%
G70*
G01*
G75*
%ADD12C,0.01000*%
%ADD29C,0.00394*%
D12*
X209500Y99740D02*
Y182000D01*
X113000Y99740D02*
X209500D01*
X113000Y182000D02*
X209500D01*
X113000Y99740D02*
Y182000D01*
D29*
X188094Y121244D02*
Y126756D01*
X199906Y121244D02*
Y126756D01*
X188094Y121244D02*
X199906D01*
X188094Y126756D02*
X199906D01*
X155095Y121244D02*
Y126756D01*
X166905Y121244D02*
Y126756D01*
X155095Y121244D02*
X166905D01*
X155095Y126756D02*
X166905D01*
X171595Y121244D02*
Y126756D01*
X183405Y121244D02*
Y126756D01*
X171595Y121244D02*
X183405D01*
X171595Y126756D02*
X183405D01*
X189268Y136744D02*
Y142256D01*
X197732Y136744D02*
Y142256D01*
X189268D02*
X197732D01*
X189268Y136744D02*
X197732D01*
X146732Y140744D02*
Y146256D01*
X138268Y140744D02*
Y146256D01*
Y140744D02*
X146732D01*
X138268Y146256D02*
X146732D01*
X148906Y121244D02*
Y126756D01*
X137094Y121244D02*
Y126756D01*
X148906D01*
X137094Y121244D02*
X148906D01*
X155768Y135744D02*
Y141256D01*
X164232Y135744D02*
Y141256D01*
X155768D02*
X164232D01*
X155768Y135744D02*
X164232D01*
X164669Y145244D02*
Y150756D01*
X156205Y145244D02*
Y150756D01*
Y145244D02*
X164669D01*
X156205Y150756D02*
X164669D01*
X148906Y160744D02*
Y166256D01*
X137094Y160744D02*
Y166256D01*
X148906D01*
X137094Y160744D02*
X148906D01*
X163732Y162244D02*
Y167756D01*
X155268Y162244D02*
Y167756D01*
Y162244D02*
X163732D01*
X155268Y167756D02*
X163732D01*
M02*
