G04*
G04 #@! TF.GenerationSoftware,Altium Limited,Altium Designer,19.1.8 (144)*
G04*
G04 Layer_Color=32768*
%FSLAX25Y25*%
%MOIN*%
G70*
G01*
G75*
%ADD29C,0.00394*%
D29*
X192032Y124000D02*
X195968D01*
X194000Y122031D02*
Y125969D01*
X186126Y114551D02*
Y133449D01*
X201874Y114551D02*
Y133449D01*
X186126Y114551D02*
X201874D01*
X186126Y133449D02*
X201874D01*
X159031Y124000D02*
X162969D01*
X161000Y122031D02*
Y125969D01*
X153126Y114551D02*
Y133449D01*
X168874Y114551D02*
Y133449D01*
X153126Y114551D02*
X168874D01*
X153126Y133449D02*
X168874D01*
X175531Y124000D02*
X179469D01*
X177500Y122031D02*
Y125969D01*
X169626Y114551D02*
Y133449D01*
X185374Y114551D02*
Y133449D01*
X169626Y114551D02*
X185374D01*
X169626Y133449D02*
X185374D01*
X184839Y134579D02*
Y144421D01*
X202161Y134579D02*
Y144421D01*
X184839D02*
X202161D01*
X184839Y134579D02*
X202161D01*
X191532Y139500D02*
X195468D01*
X193500Y137531D02*
Y141469D01*
X151161Y138579D02*
Y148421D01*
X133839Y138579D02*
Y148421D01*
Y138579D02*
X151161D01*
X133839Y148421D02*
X151161D01*
X140532Y143500D02*
X144468D01*
X142500Y141532D02*
Y145468D01*
X141032Y124000D02*
X144968D01*
X143000Y122031D02*
Y125969D01*
X150874Y114551D02*
Y133449D01*
X135126Y114551D02*
Y133449D01*
X150874D01*
X135126Y114551D02*
X150874D01*
X153110Y134760D02*
Y142240D01*
X166890Y134760D02*
Y142240D01*
X153110D02*
X166890D01*
X153110Y134760D02*
X166890D01*
X158031Y138500D02*
X161969D01*
X160000Y136531D02*
Y140469D01*
X169098Y143079D02*
Y152921D01*
X151776Y143079D02*
Y152921D01*
Y143079D02*
X169098D01*
X151776Y152921D02*
X169098D01*
X158468Y148000D02*
X162406D01*
X160437Y146031D02*
Y149969D01*
X141032Y163500D02*
X144968D01*
X143000Y161531D02*
Y165469D01*
X149299Y157201D02*
Y169799D01*
X136701Y157201D02*
Y169799D01*
X149299D01*
X136701Y157201D02*
X149299D01*
X168161Y160079D02*
Y169921D01*
X150839Y160079D02*
Y169921D01*
Y160079D02*
X168161D01*
X150839Y169921D02*
X168161D01*
X157531Y165000D02*
X161469D01*
X159500Y163031D02*
Y166969D01*
M02*
