G04*
G04 #@! TF.GenerationSoftware,Altium Limited,Altium Designer,19.1.8 (144)*
G04*
G04 Layer_Color=8388736*
%FSLAX42Y42*%
%MOMM*%
G71*
G01*
G75*
%ADD22R,1.20X0.80*%
%ADD23R,1.05X1.10*%
%ADD24R,3.80X5.30*%
%ADD25O,1.55X0.70*%
%ADD26R,1.10X1.05*%
%ADD27R,3.00X1.70*%
%ADD28R,2.60X2.75*%
%ADD29R,2.90X1.50*%
%ADD30R,1.70X1.70*%
%ADD31C,1.70*%
%ADD32R,1.70X1.70*%
%ADD33C,1.47*%
D22*
X1540Y2192D02*
D03*
X1300Y2098D02*
D03*
Y2288D02*
D03*
X1093Y1805D02*
D03*
X852Y1710D02*
D03*
Y1900D02*
D03*
Y1538D02*
D03*
Y1348D02*
D03*
X1093Y1443D02*
D03*
X650Y1710D02*
D03*
Y1900D02*
D03*
X410Y1805D02*
D03*
X570Y2448D02*
D03*
Y2258D02*
D03*
X810Y2352D02*
D03*
D23*
X1393Y1735D02*
D03*
X1548D02*
D03*
X1543Y1912D02*
D03*
X1388D02*
D03*
X965Y2295D02*
D03*
X1120D02*
D03*
X1115Y2502D02*
D03*
X960D02*
D03*
X962Y2662D02*
D03*
X1118D02*
D03*
X3073Y725D02*
D03*
X2917D02*
D03*
X3077Y1043D02*
D03*
X2923D02*
D03*
D24*
X3280Y2200D02*
D03*
X2270D02*
D03*
D25*
X2888Y1407D02*
D03*
Y1343D02*
D03*
Y1277D02*
D03*
Y1212D02*
D03*
X3333Y1407D02*
D03*
Y1343D02*
D03*
Y1277D02*
D03*
Y1212D02*
D03*
D26*
X2662Y1232D02*
D03*
Y1388D02*
D03*
X2785Y890D02*
D03*
Y1045D02*
D03*
D27*
X2248Y1075D02*
D03*
Y1385D02*
D03*
X1485Y1075D02*
D03*
Y1385D02*
D03*
X1867Y1075D02*
D03*
Y1385D02*
D03*
X3700Y945D02*
D03*
Y1255D02*
D03*
X3345Y703D02*
D03*
Y392D02*
D03*
D28*
X3700Y1805D02*
D03*
Y1495D02*
D03*
D29*
X5200Y1240D02*
D03*
Y960D02*
D03*
X4850Y1240D02*
D03*
Y960D02*
D03*
X4500Y1240D02*
D03*
Y960D02*
D03*
X4150Y1240D02*
D03*
Y960D02*
D03*
X5200Y1430D02*
D03*
Y1710D02*
D03*
X4850Y1430D02*
D03*
Y1710D02*
D03*
X4500Y1430D02*
D03*
Y1710D02*
D03*
X4150Y1430D02*
D03*
Y1710D02*
D03*
D30*
X351Y1120D02*
D03*
X1528Y2512D02*
D03*
D31*
X605Y1120D02*
D03*
X1783Y2512D02*
D03*
X290Y2348D02*
D03*
X5669Y1605D02*
D03*
D32*
X290Y2093D02*
D03*
X5669Y1351D02*
D03*
D33*
X3062Y923D02*
D03*
M02*
