G04*
G04 #@! TF.GenerationSoftware,Altium Limited,Altium Designer,19.1.8 (144)*
G04*
G04 Layer_Physical_Order=1*
G04 Layer_Color=255*
%FSLAX25Y25*%
%MOIN*%
G70*
G01*
G75*
%ADD12C,0.01000*%
%ADD13R,0.02362X0.05709*%
%ADD14R,0.05512X0.05906*%
%ADD15R,0.04724X0.05512*%
%ADD16R,0.02362X0.03347*%
%ADD25R,0.05906X0.05906*%
%ADD26C,0.05906*%
%ADD27R,0.05906X0.05906*%
%ADD28C,0.05000*%
G36*
X209500Y139197D02*
X209000Y139148D01*
X208913Y139585D01*
X208581Y140081D01*
X202081Y146581D01*
X201585Y146913D01*
X201000Y147029D01*
X183500D01*
X182915Y146913D01*
X182419Y146581D01*
X178366Y142529D01*
X166043D01*
X165458Y142413D01*
X165223Y142256D01*
X160181D01*
X160181Y142256D01*
X159819D01*
Y142256D01*
X159681Y142256D01*
X158029D01*
Y144047D01*
X160118D01*
X160256Y144047D01*
X160618D01*
X160756Y144047D01*
X163874D01*
Y148000D01*
Y151953D01*
X160756D01*
X160618Y151953D01*
X160256D01*
X160118Y151953D01*
X158029D01*
Y153867D01*
X162263Y158100D01*
X162594Y158596D01*
X162710Y159181D01*
Y161047D01*
X167193D01*
Y168953D01*
X167685Y168971D01*
X172366D01*
X180419Y160919D01*
X180915Y160587D01*
X181500Y160471D01*
X192047D01*
Y158047D01*
X199953D01*
Y165953D01*
X192047D01*
Y163529D01*
X182133D01*
X174081Y171581D01*
X173585Y171913D01*
X173000Y172029D01*
X160866D01*
X160281Y171913D01*
X159785Y171581D01*
X157156Y168953D01*
X151807D01*
Y168785D01*
X145181D01*
Y170405D01*
X140819D01*
Y165059D01*
X145181D01*
Y165726D01*
X151807D01*
Y161047D01*
X159319D01*
X159652Y160685D01*
Y159815D01*
X155419Y155581D01*
X155087Y155085D01*
X154971Y154500D01*
Y151953D01*
X152744D01*
Y144047D01*
X154971D01*
Y142256D01*
X153094D01*
Y136907D01*
X150919Y134731D01*
X150587Y134235D01*
X150471Y133650D01*
Y123134D01*
X149383Y122046D01*
X148921Y122237D01*
Y123228D01*
X144559D01*
Y115520D01*
X148921D01*
Y117971D01*
X149000D01*
X149585Y118087D01*
X150081Y118419D01*
X153081Y121419D01*
X153413Y121915D01*
X153529Y122500D01*
Y133016D01*
X155257Y134744D01*
X157656D01*
X159420Y132980D01*
X159348Y132480D01*
X158971Y132480D01*
X155079D01*
Y124772D01*
X155350D01*
Y112302D01*
X154507Y111953D01*
X153681Y111319D01*
X153047Y110493D01*
X152649Y109532D01*
X152513Y108500D01*
X152649Y107468D01*
X153047Y106507D01*
X153681Y105681D01*
X154507Y105047D01*
X155468Y104649D01*
X156500Y104513D01*
X157532Y104649D01*
X158493Y105047D01*
X159319Y105681D01*
X159953Y106507D01*
X160351Y107468D01*
X160487Y108500D01*
X160351Y109532D01*
X159953Y110493D01*
X159319Y111319D01*
X158493Y111953D01*
X158409Y111988D01*
Y115301D01*
X158819Y115520D01*
X158909Y115520D01*
X163181D01*
Y123228D01*
X162529D01*
Y124284D01*
X162559Y124772D01*
X163029Y124772D01*
X164240D01*
Y128626D01*
Y132480D01*
X162559Y132480D01*
X162529Y132968D01*
Y133563D01*
X162413Y134148D01*
X162349Y134244D01*
X162616Y134744D01*
X166905D01*
Y139471D01*
X170993D01*
X171122Y138971D01*
X170504Y138496D01*
X169943Y137765D01*
X169590Y136914D01*
X169536Y136500D01*
X176464D01*
X176410Y136914D01*
X176057Y137765D01*
X175496Y138496D01*
X174878Y138971D01*
X175007Y139471D01*
X179000D01*
X179585Y139587D01*
X180081Y139919D01*
X184134Y143971D01*
X199904D01*
X199916Y143953D01*
X199649Y143453D01*
X193819D01*
X193681Y143453D01*
X193319D01*
X193181Y143453D01*
X185807D01*
Y135547D01*
X188731D01*
Y132480D01*
X188079D01*
Y127801D01*
X187079D01*
X186494Y127685D01*
X185997Y127353D01*
X183883Y125239D01*
X183421Y125430D01*
Y128126D01*
X181740D01*
Y124772D01*
X182763D01*
X182954Y124310D01*
X180143Y121499D01*
X179681Y121690D01*
Y123228D01*
X175476D01*
X175167Y123665D01*
X175173Y123675D01*
X175289Y124260D01*
Y124772D01*
X175941D01*
Y132480D01*
X174955D01*
X174817Y132816D01*
X174814Y132980D01*
X175496Y133504D01*
X176057Y134235D01*
X176410Y135086D01*
X176464Y135500D01*
X169536D01*
X169590Y135086D01*
X169943Y134235D01*
X170504Y133504D01*
X171235Y132943D01*
X171361Y132890D01*
X171579Y132480D01*
Y124772D01*
X171579D01*
X171734Y124397D01*
X165419Y118081D01*
X165087Y117585D01*
X164971Y117000D01*
Y112453D01*
X162547D01*
Y104547D01*
X170453D01*
Y112453D01*
X168029D01*
Y116367D01*
X174819Y123156D01*
X174915Y123150D01*
X175319Y122993D01*
Y115520D01*
X179681D01*
Y117845D01*
X180181D01*
X180766Y117961D01*
X181263Y118293D01*
X187712Y124742D01*
X189579D01*
X189726Y124772D01*
X192441D01*
Y132480D01*
X191789D01*
Y135547D01*
X193181D01*
X193319Y135547D01*
X193681D01*
X193819Y135547D01*
X196211D01*
Y132480D01*
X195559D01*
Y124772D01*
X197226D01*
X197418Y124310D01*
X196366Y123258D01*
X194681D01*
X194533Y123228D01*
X191819D01*
Y117167D01*
X191789Y117020D01*
X191819Y116872D01*
Y115520D01*
X193171D01*
X193319Y115490D01*
X193467Y115520D01*
X196181D01*
Y120199D01*
X196999D01*
X197584Y120315D01*
X198081Y120647D01*
X208581Y131148D01*
X208913Y131644D01*
X209000Y132081D01*
X209500Y132032D01*
Y99740D01*
X113000D01*
Y182000D01*
X209500D01*
Y139197D01*
D02*
G37*
%LPC*%
G36*
X196500Y155921D02*
Y152500D01*
X199921D01*
X199851Y153032D01*
X199453Y153993D01*
X198819Y154819D01*
X197993Y155453D01*
X197032Y155851D01*
X196500Y155921D01*
D02*
G37*
G36*
X195500D02*
X194968Y155851D01*
X194007Y155453D01*
X193181Y154819D01*
X192547Y153993D01*
X192149Y153032D01*
X192079Y152500D01*
X195500D01*
Y155921D01*
D02*
G37*
G36*
X164874Y151953D02*
Y148500D01*
X168130D01*
Y151953D01*
X164874D01*
D02*
G37*
G36*
X174000Y151464D02*
Y148500D01*
X176964D01*
X176910Y148914D01*
X176557Y149765D01*
X175996Y150496D01*
X175265Y151057D01*
X174414Y151410D01*
X174000Y151464D01*
D02*
G37*
G36*
X173000D02*
X172586Y151410D01*
X171735Y151057D01*
X171004Y150496D01*
X170443Y149765D01*
X170090Y148914D01*
X170036Y148500D01*
X173000D01*
Y151464D01*
D02*
G37*
G36*
X199921Y151500D02*
X196500D01*
Y148079D01*
X197032Y148149D01*
X197993Y148547D01*
X198819Y149181D01*
X199453Y150007D01*
X199851Y150968D01*
X199921Y151500D01*
D02*
G37*
G36*
X195500D02*
X192079D01*
X192149Y150968D01*
X192547Y150007D01*
X193181Y149181D01*
X194007Y148547D01*
X194968Y148149D01*
X195500Y148079D01*
Y151500D01*
D02*
G37*
G36*
X148921Y161941D02*
X144559D01*
Y156595D01*
X145211D01*
Y147453D01*
X142819D01*
X142681Y147453D01*
X142319D01*
X142181Y147453D01*
X140789D01*
Y156595D01*
X141441D01*
Y161941D01*
X137079D01*
Y156595D01*
X137730D01*
Y147453D01*
X134807D01*
Y147285D01*
X127453D01*
Y150453D01*
X119547D01*
Y142547D01*
X127453D01*
Y144227D01*
X134807D01*
Y139547D01*
X136111D01*
X136227Y139090D01*
X136222Y139047D01*
X135504Y138496D01*
X134943Y137765D01*
X134590Y136914D01*
X134470Y136000D01*
X134590Y135086D01*
X134943Y134235D01*
X135504Y133504D01*
X136235Y132943D01*
X137086Y132590D01*
X138000Y132470D01*
X138914Y132590D01*
X139765Y132943D01*
X140496Y133504D01*
X141057Y134235D01*
X141410Y135086D01*
X141530Y136000D01*
X141410Y136914D01*
X141057Y137765D01*
X140496Y138496D01*
X139778Y139047D01*
X139773Y139090D01*
X139889Y139547D01*
X142181D01*
X142319Y139547D01*
X142681D01*
X142819Y139547D01*
X144908D01*
Y137571D01*
X141919Y134581D01*
X141587Y134085D01*
X141471Y133500D01*
Y132480D01*
X140819D01*
Y124772D01*
X145181D01*
Y132480D01*
X144804D01*
X144643Y132980D01*
X147519Y135856D01*
X147850Y136352D01*
X147966Y136937D01*
Y139547D01*
X150193D01*
Y147453D01*
X148269D01*
Y156595D01*
X148921D01*
Y161941D01*
D02*
G37*
G36*
X176964Y147500D02*
X174000D01*
Y144536D01*
X174414Y144590D01*
X175265Y144943D01*
X175996Y145504D01*
X176557Y146235D01*
X176910Y147086D01*
X176964Y147500D01*
D02*
G37*
G36*
X173000D02*
X170036D01*
X170090Y147086D01*
X170443Y146235D01*
X171004Y145504D01*
X171735Y144943D01*
X172586Y144590D01*
X173000Y144536D01*
Y147500D01*
D02*
G37*
G36*
X168130D02*
X164874D01*
Y144047D01*
X168130D01*
Y147500D01*
D02*
G37*
G36*
X124000Y140421D02*
Y137000D01*
X127421D01*
X127351Y137532D01*
X126953Y138493D01*
X126319Y139319D01*
X125493Y139953D01*
X124532Y140351D01*
X124000Y140421D01*
D02*
G37*
G36*
X123000D02*
X122468Y140351D01*
X121507Y139953D01*
X120681Y139319D01*
X120047Y138493D01*
X119649Y137532D01*
X119579Y137000D01*
X123000D01*
Y140421D01*
D02*
G37*
G36*
X127421Y136000D02*
X124000D01*
Y132579D01*
X124532Y132649D01*
X125493Y133047D01*
X126319Y133681D01*
X126953Y134507D01*
X127351Y135468D01*
X127421Y136000D01*
D02*
G37*
G36*
X123000D02*
X119579D01*
X119649Y135468D01*
X120047Y134507D01*
X120681Y133681D01*
X121507Y133047D01*
X122468Y132649D01*
X123000Y132579D01*
Y136000D01*
D02*
G37*
G36*
X183421Y132480D02*
X181740D01*
Y129126D01*
X183421D01*
Y132480D01*
D02*
G37*
G36*
X180740D02*
X179059D01*
Y129126D01*
X180740D01*
Y132480D01*
D02*
G37*
G36*
X165240D02*
Y129126D01*
X166921D01*
Y132480D01*
X165240D01*
D02*
G37*
G36*
X180740Y128126D02*
X179059D01*
Y124772D01*
X180740D01*
Y128126D01*
D02*
G37*
G36*
X166921D02*
X165240D01*
Y124772D01*
X166921D01*
Y128126D01*
D02*
G37*
G36*
X141441Y123228D02*
X139760D01*
Y119874D01*
X141441D01*
Y123228D01*
D02*
G37*
G36*
X138760D02*
X137079D01*
Y119874D01*
X138760D01*
Y123228D01*
D02*
G37*
G36*
Y118874D02*
X137079D01*
Y117397D01*
X136579Y117134D01*
X135914Y117410D01*
X135500Y117464D01*
Y114500D01*
X138464D01*
X138410Y114914D01*
X138331Y115104D01*
X138609Y115520D01*
X138760D01*
Y118874D01*
D02*
G37*
G36*
X141441D02*
X139760D01*
Y115520D01*
X141441D01*
Y118874D01*
D02*
G37*
G36*
X134500Y117464D02*
X134086Y117410D01*
X133235Y117057D01*
X132504Y116496D01*
X131943Y115765D01*
X131590Y114914D01*
X131536Y114500D01*
X134500D01*
Y117464D01*
D02*
G37*
G36*
X138464Y113500D02*
X135500D01*
Y110536D01*
X135914Y110590D01*
X136765Y110943D01*
X137496Y111504D01*
X138057Y112235D01*
X138410Y113086D01*
X138464Y113500D01*
D02*
G37*
G36*
X134500D02*
X131536D01*
X131590Y113086D01*
X131943Y112235D01*
X132504Y111504D01*
X133235Y110943D01*
X134086Y110590D01*
X134500Y110536D01*
Y113500D01*
D02*
G37*
%LPD*%
D12*
X164374Y148000D02*
X173500D01*
X123500Y125500D02*
Y136500D01*
Y125500D02*
X135000Y114000D01*
X138020Y117020D01*
X138579D01*
X139260Y117701D01*
Y119374D01*
X173000Y136000D02*
X173765Y135235D01*
X176305D01*
X181240Y130299D01*
Y128626D02*
Y130299D01*
X165421Y130980D02*
X167980D01*
X164740Y130299D02*
X165421Y130980D01*
X164740Y128626D02*
Y130299D01*
X167980Y130980D02*
X173000Y136000D01*
X179000Y141000D02*
X183500Y145500D01*
X166043Y141000D02*
X179000D01*
X163543Y138500D02*
X166043Y141000D01*
X197740Y139000D02*
X200975Y135765D01*
X197437Y139303D02*
X197740Y139000D01*
Y128626D02*
Y139000D01*
X202735Y135765D02*
X203500Y135000D01*
X200975Y135765D02*
X202735D01*
X197437Y139303D02*
Y139500D01*
X138000Y142937D02*
X138563Y143500D01*
X138000Y136000D02*
Y142937D01*
X196999Y121728D02*
X207500Y132229D01*
X201000Y145500D02*
X207500Y139000D01*
Y132229D02*
Y139000D01*
X143000Y133500D02*
X146437Y136937D01*
X143000Y128626D02*
Y133500D01*
X146437Y136937D02*
Y143500D01*
X136307Y145756D02*
X138563Y143500D01*
X194681Y121728D02*
X196999D01*
X194000Y121047D02*
X194681Y121728D01*
X194000Y119374D02*
Y121047D01*
X183500Y145500D02*
X201000D01*
X166500Y117000D02*
X173760Y124260D01*
Y128626D01*
X166500Y108500D02*
Y117000D01*
X161000Y119374D02*
Y133563D01*
X156457Y138106D02*
X161000Y133563D01*
X156457Y138106D02*
Y138500D01*
X156880Y128246D02*
X157260Y128626D01*
X156880Y108880D02*
Y128246D01*
X156500Y108500D02*
X156880Y108880D01*
X193319Y117020D02*
X194000Y117701D01*
Y119374D01*
X163543Y138106D02*
Y138500D01*
X190260Y128626D02*
Y138803D01*
X189563Y139500D02*
X190260Y138803D01*
X180181Y119374D02*
X187079Y126272D01*
X189579D01*
X190260Y126953D01*
Y128626D01*
X177500Y119374D02*
X180181D01*
X160866Y170500D02*
X173000D01*
X155563Y165197D02*
X160866Y170500D01*
X155563Y165000D02*
Y165197D01*
X173000Y170500D02*
X181500Y162000D01*
X196000D01*
X153307Y167256D02*
X155563Y165000D01*
X143476Y167256D02*
X153307D01*
X143000Y167732D02*
X143476Y167256D01*
X146866Y119500D02*
X149000D01*
X146740Y119374D02*
X146866Y119500D01*
X149000D02*
X152000Y122500D01*
Y133650D01*
X156457Y138106D01*
X156500Y138543D02*
Y148000D01*
X156457Y138500D02*
X156500Y138543D01*
Y148000D02*
Y154500D01*
X161181Y159181D01*
Y162744D01*
X163437Y165000D01*
X146740Y143803D02*
Y159268D01*
X146437Y143500D02*
X146740Y143803D01*
X139260Y144197D02*
Y159268D01*
X138563Y143500D02*
X139260Y144197D01*
X124244Y145756D02*
X136307D01*
X123500Y146500D02*
X124244Y145756D01*
D13*
X194000Y119374D02*
D03*
X190260Y128626D02*
D03*
X197740D02*
D03*
X161000Y119374D02*
D03*
X157260Y128626D02*
D03*
X164740D02*
D03*
X177500Y119374D02*
D03*
X173760Y128626D02*
D03*
X181240D02*
D03*
X143000Y128626D02*
D03*
X146740Y119374D02*
D03*
X139260D02*
D03*
D14*
X189563Y139500D02*
D03*
X197437D02*
D03*
X146437Y143500D02*
D03*
X138563D02*
D03*
X164374Y148000D02*
D03*
X156500D02*
D03*
X163437Y165000D02*
D03*
X155563D02*
D03*
D15*
X156457Y138500D02*
D03*
X163543D02*
D03*
D16*
X143000Y167732D02*
D03*
X146740Y159268D02*
D03*
X139260D02*
D03*
D25*
X166500Y108500D02*
D03*
D26*
X156500D02*
D03*
X196000Y152000D02*
D03*
X123500Y136500D02*
D03*
D27*
X196000Y162000D02*
D03*
X123500Y146500D02*
D03*
D28*
X173500Y148000D02*
D03*
X173000Y136000D02*
D03*
X135000Y114000D02*
D03*
X203500Y135000D02*
D03*
X138000Y136000D02*
D03*
M02*
