G04*
G04 #@! TF.GenerationSoftware,Altium Limited,Altium Designer,19.1.8 (144)*
G04*
G04 Layer_Physical_Order=2*
G04 Layer_Color=16711680*
%FSLAX25Y25*%
%MOIN*%
G70*
G01*
G75*
%ADD12C,0.01000*%
%ADD25R,0.05906X0.05906*%
%ADD26C,0.05906*%
%ADD27R,0.05906X0.05906*%
%ADD28C,0.05000*%
G36*
X209500Y99500D02*
X113000D01*
Y182000D01*
X209500D01*
Y99500D01*
D02*
G37*
%LPC*%
G36*
X199953Y165953D02*
X192047D01*
Y158047D01*
X199953D01*
Y165953D01*
D02*
G37*
G36*
X196500Y155921D02*
Y152500D01*
X199921D01*
X199851Y153032D01*
X199453Y153993D01*
X198819Y154819D01*
X197993Y155453D01*
X197032Y155851D01*
X196500Y155921D01*
D02*
G37*
G36*
X195500D02*
X194968Y155851D01*
X194007Y155453D01*
X193181Y154819D01*
X192547Y153993D01*
X192149Y153032D01*
X192079Y152500D01*
X195500D01*
Y155921D01*
D02*
G37*
G36*
X174000Y151464D02*
Y148500D01*
X176964D01*
X176910Y148914D01*
X176557Y149765D01*
X175996Y150496D01*
X175265Y151057D01*
X174414Y151410D01*
X174000Y151464D01*
D02*
G37*
G36*
X173000D02*
X172586Y151410D01*
X171735Y151057D01*
X171004Y150496D01*
X170443Y149765D01*
X170090Y148914D01*
X170036Y148500D01*
X173000D01*
Y151464D01*
D02*
G37*
G36*
X199921Y151500D02*
X196500D01*
Y148079D01*
X197032Y148149D01*
X197993Y148547D01*
X198819Y149181D01*
X199453Y150007D01*
X199851Y150968D01*
X199921Y151500D01*
D02*
G37*
G36*
X195500D02*
X192079D01*
X192149Y150968D01*
X192547Y150007D01*
X193181Y149181D01*
X194007Y148547D01*
X194968Y148149D01*
X195500Y148079D01*
Y151500D01*
D02*
G37*
G36*
X176964Y147500D02*
X174000D01*
Y144536D01*
X174414Y144590D01*
X175265Y144943D01*
X175996Y145504D01*
X176557Y146235D01*
X176910Y147086D01*
X176964Y147500D01*
D02*
G37*
G36*
X173000D02*
X170036D01*
X170090Y147086D01*
X170443Y146235D01*
X171004Y145504D01*
X171735Y144943D01*
X172586Y144590D01*
X173000Y144536D01*
Y147500D01*
D02*
G37*
G36*
X127453Y150453D02*
X119547D01*
Y142547D01*
X127453D01*
Y150453D01*
D02*
G37*
G36*
X124000Y140421D02*
Y137000D01*
X127421D01*
X127351Y137532D01*
X126953Y138493D01*
X126319Y139319D01*
X125493Y139953D01*
X124532Y140351D01*
X124000Y140421D01*
D02*
G37*
G36*
X123000D02*
X122468Y140351D01*
X121507Y139953D01*
X120681Y139319D01*
X120047Y138493D01*
X119649Y137532D01*
X119579Y137000D01*
X123000D01*
Y140421D01*
D02*
G37*
G36*
X173500Y139464D02*
Y136500D01*
X176464D01*
X176410Y136914D01*
X176057Y137765D01*
X175496Y138496D01*
X174765Y139057D01*
X173914Y139410D01*
X173500Y139464D01*
D02*
G37*
G36*
X172500D02*
X172086Y139410D01*
X171235Y139057D01*
X170504Y138496D01*
X169943Y137765D01*
X169590Y136914D01*
X169536Y136500D01*
X172500D01*
Y139464D01*
D02*
G37*
G36*
X127421Y136000D02*
X124000D01*
Y132579D01*
X124532Y132649D01*
X125493Y133047D01*
X126319Y133681D01*
X126953Y134507D01*
X127351Y135468D01*
X127421Y136000D01*
D02*
G37*
G36*
X123000D02*
X119579D01*
X119649Y135468D01*
X120047Y134507D01*
X120681Y133681D01*
X121507Y133047D01*
X122468Y132649D01*
X123000Y132579D01*
Y136000D01*
D02*
G37*
G36*
X176464Y135500D02*
X173500D01*
Y132536D01*
X173914Y132590D01*
X174765Y132943D01*
X175496Y133504D01*
X176057Y134235D01*
X176410Y135086D01*
X176464Y135500D01*
D02*
G37*
G36*
X172500D02*
X169536D01*
X169590Y135086D01*
X169943Y134235D01*
X170504Y133504D01*
X171235Y132943D01*
X172086Y132590D01*
X172500Y132536D01*
Y135500D01*
D02*
G37*
G36*
X196500Y143529D02*
X144000D01*
X143415Y143413D01*
X142919Y143081D01*
X139149Y139312D01*
X138914Y139410D01*
X138000Y139530D01*
X137086Y139410D01*
X136235Y139057D01*
X135504Y138496D01*
X134943Y137765D01*
X134590Y136914D01*
X134470Y136000D01*
X134590Y135086D01*
X134943Y134235D01*
X135504Y133504D01*
X136235Y132943D01*
X137086Y132590D01*
X138000Y132470D01*
X138914Y132590D01*
X139765Y132943D01*
X140496Y133504D01*
X141057Y134235D01*
X141410Y135086D01*
X141530Y136000D01*
X141410Y136914D01*
X141312Y137149D01*
X144633Y140471D01*
X195867D01*
X200188Y136149D01*
X200090Y135914D01*
X199970Y135000D01*
X200090Y134086D01*
X200443Y133235D01*
X201004Y132504D01*
X201735Y131943D01*
X202586Y131590D01*
X203500Y131470D01*
X204414Y131590D01*
X205265Y131943D01*
X205996Y132504D01*
X206557Y133235D01*
X206910Y134086D01*
X207030Y135000D01*
X206910Y135914D01*
X206557Y136765D01*
X205996Y137496D01*
X205265Y138057D01*
X204414Y138410D01*
X203500Y138530D01*
X202586Y138410D01*
X202351Y138312D01*
X197581Y143081D01*
X197085Y143413D01*
X196500Y143529D01*
D02*
G37*
G36*
X135500Y117464D02*
Y114500D01*
X138464D01*
X138410Y114914D01*
X138057Y115765D01*
X137496Y116496D01*
X136765Y117057D01*
X135914Y117410D01*
X135500Y117464D01*
D02*
G37*
G36*
X134500D02*
X134086Y117410D01*
X133235Y117057D01*
X132504Y116496D01*
X131943Y115765D01*
X131590Y114914D01*
X131536Y114500D01*
X134500D01*
Y117464D01*
D02*
G37*
G36*
X138464Y113500D02*
X135500D01*
Y110536D01*
X135914Y110590D01*
X136765Y110943D01*
X137496Y111504D01*
X138057Y112235D01*
X138410Y113086D01*
X138464Y113500D01*
D02*
G37*
G36*
X134500D02*
X131536D01*
X131590Y113086D01*
X131943Y112235D01*
X132504Y111504D01*
X133235Y110943D01*
X134086Y110590D01*
X134500Y110536D01*
Y113500D01*
D02*
G37*
G36*
X170453Y112453D02*
X162547D01*
Y104547D01*
X170453D01*
Y112453D01*
D02*
G37*
G36*
X156500Y112487D02*
X155468Y112351D01*
X154507Y111953D01*
X153681Y111319D01*
X153047Y110493D01*
X152649Y109532D01*
X152513Y108500D01*
X152649Y107468D01*
X153047Y106507D01*
X153681Y105681D01*
X154507Y105047D01*
X155468Y104649D01*
X156500Y104513D01*
X157532Y104649D01*
X158493Y105047D01*
X159319Y105681D01*
X159953Y106507D01*
X160351Y107468D01*
X160487Y108500D01*
X160351Y109532D01*
X159953Y110493D01*
X159319Y111319D01*
X158493Y111953D01*
X157532Y112351D01*
X156500Y112487D01*
D02*
G37*
%LPD*%
D12*
X196500Y142000D02*
X203500Y135000D01*
X144000Y142000D02*
X196500D01*
X138000Y136000D02*
X144000Y142000D01*
D25*
X166500Y108500D02*
D03*
D26*
X156500D02*
D03*
X196000Y152000D02*
D03*
X123500Y136500D02*
D03*
D27*
X196000Y162000D02*
D03*
X123500Y146500D02*
D03*
D28*
X173500Y148000D02*
D03*
X173000Y136000D02*
D03*
X135000Y114000D02*
D03*
X203500Y135000D02*
D03*
X138000Y136000D02*
D03*
M02*
