G04*
G04 #@! TF.GenerationSoftware,Altium Limited,Altium Designer,19.1.8 (144)*
G04*
G04 Layer_Color=8388736*
%FSLAX25Y25*%
%MOIN*%
G70*
G01*
G75*
%ADD17R,0.03162X0.06509*%
%ADD18R,0.06312X0.06706*%
%ADD19R,0.05524X0.06312*%
%ADD20R,0.03162X0.04147*%
%ADD21R,0.06706X0.06706*%
%ADD22C,0.06706*%
%ADD23R,0.06706X0.06706*%
%ADD24C,0.05800*%
D17*
X194000Y119374D02*
D03*
X190260Y128626D02*
D03*
X197740D02*
D03*
X161000Y119374D02*
D03*
X157260Y128626D02*
D03*
X164740D02*
D03*
X177500Y119374D02*
D03*
X173760Y128626D02*
D03*
X181240D02*
D03*
X143000Y128626D02*
D03*
X146740Y119374D02*
D03*
X139260D02*
D03*
D18*
X189563Y139500D02*
D03*
X197437D02*
D03*
X146437Y143500D02*
D03*
X138563D02*
D03*
X164374Y148000D02*
D03*
X156500D02*
D03*
X163437Y165000D02*
D03*
X155563D02*
D03*
D19*
X156457Y138500D02*
D03*
X163543D02*
D03*
D20*
X143000Y167732D02*
D03*
X146740Y159268D02*
D03*
X139260D02*
D03*
D21*
X166500Y108500D02*
D03*
D22*
X156500D02*
D03*
X196000Y152000D02*
D03*
X123500Y136500D02*
D03*
D23*
X196000Y162000D02*
D03*
X123500Y146500D02*
D03*
D24*
X173500Y148000D02*
D03*
X173000Y136000D02*
D03*
X135000Y114000D02*
D03*
X203500Y135000D02*
D03*
X138000Y136000D02*
D03*
M02*
