G04*
G04 #@! TF.GenerationSoftware,Altium Limited,Altium Designer,19.1.8 (144)*
G04*
G04 Layer_Color=65535*
%FSLAX25Y25*%
%MOIN*%
G70*
G01*
G75*
%ADD10C,0.00984*%
%ADD11C,0.00787*%
%ADD12C,0.01000*%
D10*
X197839Y118685D02*
G03*
X197839Y118685I-492J0D01*
G01*
X164839D02*
G03*
X164839Y118685I-492J0D01*
G01*
X181339D02*
G03*
X181339Y118685I-492J0D01*
G01*
X140146Y129315D02*
G03*
X140146Y129315I-492J0D01*
G01*
Y168815D02*
G03*
X140146Y168815I-492J0D01*
G01*
D11*
X188094Y121244D02*
X191244D01*
X188094D02*
Y124394D01*
X196756Y121244D02*
X199906D01*
Y124394D01*
X155095Y121244D02*
X158244D01*
X155095D02*
Y124394D01*
X163756Y121244D02*
X166905D01*
Y124394D01*
X171595Y121244D02*
X174744D01*
X171595D02*
Y124394D01*
X180256Y121244D02*
X183405D01*
Y124394D01*
X193500Y136941D02*
Y142059D01*
X151500Y103500D02*
Y113500D01*
X171500D01*
Y103500D02*
Y113500D01*
X151500Y103500D02*
X171500D01*
X142500Y140941D02*
Y146059D01*
X145756Y126756D02*
X148906D01*
Y123606D02*
Y126756D01*
X137094D02*
X140244D01*
X137094Y123606D02*
Y126756D01*
X160000Y136138D02*
Y140862D01*
X160437Y145441D02*
Y150559D01*
X145756Y166256D02*
X148906D01*
Y162319D02*
Y166256D01*
X137094D02*
X140244D01*
X137094Y162319D02*
Y166256D01*
X159500Y162441D02*
Y167559D01*
X191000Y147000D02*
X201000D01*
X191000D02*
Y167000D01*
X201000D01*
Y147000D02*
Y167000D01*
X118500Y131500D02*
X128500D01*
X118500D02*
Y151500D01*
X128500D01*
Y131500D02*
Y151500D01*
D12*
X193999Y107000D02*
Y110998D01*
X192999Y111998D01*
X191000D01*
X190000Y110998D01*
Y107000D01*
X191000Y106000D01*
X192999D01*
X191999Y107999D02*
X193999Y106000D01*
X192999D02*
X193999Y107000D01*
X195998Y106000D02*
X197997D01*
X196998D01*
Y111998D01*
X195998Y110998D01*
X174499Y139000D02*
Y142998D01*
X173499Y143998D01*
X171500D01*
X170500Y142998D01*
Y139000D01*
X171500Y138000D01*
X173499D01*
X172499Y139999D02*
X174499Y138000D01*
X173499D02*
X174499Y139000D01*
X180497Y143998D02*
X176498D01*
Y140999D01*
X178497Y141999D01*
X179497D01*
X180497Y140999D01*
Y139000D01*
X179497Y138000D01*
X177498D01*
X176498Y139000D01*
X178999Y107000D02*
Y110998D01*
X177999Y111998D01*
X176000D01*
X175000Y110998D01*
Y107000D01*
X176000Y106000D01*
X177999D01*
X176999Y107999D02*
X178999Y106000D01*
X177999D02*
X178999Y107000D01*
X184997Y106000D02*
X180998D01*
X184997Y109999D01*
Y110998D01*
X183997Y111998D01*
X181998D01*
X180998Y110998D01*
X182500Y145000D02*
Y150998D01*
X185499D01*
X186499Y149998D01*
Y147999D01*
X185499Y146999D01*
X182500D01*
X184499D02*
X186499Y145000D01*
X188498D02*
X190497D01*
X189498D01*
Y150998D01*
X188498Y149998D01*
X137500Y104500D02*
Y110498D01*
X140499D01*
X141499Y109498D01*
Y107499D01*
X140499Y106499D01*
X137500D01*
X143498Y109498D02*
X144498Y110498D01*
X146497D01*
X147497Y109498D01*
Y108499D01*
X146497Y107499D01*
X145497D01*
X146497D01*
X147497Y106499D01*
Y105500D01*
X146497Y104500D01*
X144498D01*
X143498Y105500D01*
X138500Y149500D02*
Y155498D01*
X141499D01*
X142499Y154498D01*
Y152499D01*
X141499Y151499D01*
X138500D01*
X140499D02*
X142499Y149500D01*
X144498Y154498D02*
X145498Y155498D01*
X147497D01*
X148497Y154498D01*
Y153499D01*
X147497Y152499D01*
X146497D01*
X147497D01*
X148497Y151499D01*
Y150500D01*
X147497Y149500D01*
X145498D01*
X144498Y150500D01*
X127499Y120500D02*
Y124498D01*
X126499Y125498D01*
X124500D01*
X123500Y124498D01*
Y120500D01*
X124500Y119500D01*
X126499D01*
X125499Y121499D02*
X127499Y119500D01*
X126499D02*
X127499Y120500D01*
X132497Y119500D02*
Y125498D01*
X129498Y122499D01*
X133497D01*
X171000Y145000D02*
Y150998D01*
X173999D01*
X174999Y149998D01*
Y147999D01*
X173999Y146999D01*
X171000D01*
X172999D02*
X174999Y145000D01*
X180997D02*
X176998D01*
X180997Y148999D01*
Y149998D01*
X179997Y150998D01*
X177998D01*
X176998Y149998D01*
X155937Y154000D02*
Y159998D01*
X158936D01*
X159936Y158998D01*
Y156999D01*
X158936Y155999D01*
X155937D01*
X157936D02*
X159936Y154000D01*
X165934Y159998D02*
X161935D01*
Y156999D01*
X163934Y157999D01*
X164934D01*
X165934Y156999D01*
Y155000D01*
X164934Y154000D01*
X162935D01*
X161935Y155000D01*
X141999Y172000D02*
Y175998D01*
X140999Y176998D01*
X139000D01*
X138000Y175998D01*
Y172000D01*
X139000Y171000D01*
X140999D01*
X139999Y172999D02*
X141999Y171000D01*
X140999D02*
X141999Y172000D01*
X143998Y175998D02*
X144998Y176998D01*
X146997D01*
X147997Y175998D01*
Y174999D01*
X146997Y173999D01*
X145997D01*
X146997D01*
X147997Y172999D01*
Y172000D01*
X146997Y171000D01*
X144998D01*
X143998Y172000D01*
X170000Y162500D02*
Y168498D01*
X172999D01*
X173999Y167498D01*
Y165499D01*
X172999Y164499D01*
X170000D01*
X171999D02*
X173999Y162500D01*
X178997D02*
Y168498D01*
X175998Y165499D01*
X179997D01*
X191600Y170400D02*
Y176398D01*
X194599D01*
X195599Y175398D01*
Y173399D01*
X194599Y172399D01*
X191600D01*
X201597Y170400D02*
X197598D01*
X201597Y174399D01*
Y175398D01*
X200597Y176398D01*
X198598D01*
X197598Y175398D01*
X119100Y154900D02*
Y160898D01*
X122099D01*
X123099Y159898D01*
Y157899D01*
X122099Y156899D01*
X119100D01*
X125098Y154900D02*
X127097D01*
X126098D01*
Y160898D01*
X125098Y159898D01*
M02*
