M48
;Layer_Color=9474304
;FILE_FORMAT=4:2
METRIC,LZ
T3F00S00C5.08
%
G90
G05
T03
G00X005925Y-000051
M15
G01X005974Y-000036
G01X006018Y-000012
G01X006057Y000021
G01X006089Y00006
G01X006112Y000106
G01X006125Y000154
G01X006129Y000197
G01X006129Y00295
G01X006124Y003
G01X006109Y003049
G01X006085Y003093
G01X006052Y003132
G01X006012Y003164
G01X005967Y003187
G01X005918Y0032
G01X005875Y003204
G01X000122Y003204
G01X000072Y003199
G01X000024Y003184
G01X-000021Y00316
G01X-00006Y003127
G01X-000091Y003087
G01X-000114Y003042
G01X-000128Y002993
G01X-000132Y00295
G01X-000132Y000197
G01X-000126Y000147
G01X-000111Y000099
G01X-000087Y000054
G01X-000054Y000015
G01X-000015Y-000016
G01X000031Y-000039
G01X000079Y-000053
G01X000122Y-000057
G01X005875Y-000057
G01X005925Y-000051
M16
M17
M30
