G04*
G04 #@! TF.GenerationSoftware,Altium Limited,Altium Designer,19.1.8 (144)*
G04*
G04 Layer_Color=255*
%FSLAX42Y42*%
%MOMM*%
G71*
G01*
G75*
%ADD14R,1.00X0.60*%
%ADD15R,0.85X0.90*%
%ADD16R,3.60X5.10*%
%ADD17O,1.35X0.50*%
%ADD18R,0.90X0.85*%
%ADD19R,2.80X1.50*%
%ADD20R,2.40X2.55*%
%ADD21R,2.70X1.30*%
%ADD35R,1.50X1.50*%
%ADD36C,1.50*%
%ADD37R,1.50X1.50*%
D14*
X1540Y2192D02*
D03*
X1300Y2098D02*
D03*
Y2288D02*
D03*
X1093Y1805D02*
D03*
X852Y1710D02*
D03*
Y1900D02*
D03*
Y1538D02*
D03*
Y1348D02*
D03*
X1093Y1443D02*
D03*
X650Y1710D02*
D03*
Y1900D02*
D03*
X410Y1805D02*
D03*
X570Y2448D02*
D03*
Y2258D02*
D03*
X810Y2352D02*
D03*
D15*
X1393Y1735D02*
D03*
X1548D02*
D03*
X1543Y1912D02*
D03*
X1388D02*
D03*
X965Y2295D02*
D03*
X1120D02*
D03*
X1115Y2502D02*
D03*
X960D02*
D03*
X962Y2662D02*
D03*
X1118D02*
D03*
X3073Y725D02*
D03*
X2917D02*
D03*
X3077Y1043D02*
D03*
X2923D02*
D03*
D16*
X3280Y2200D02*
D03*
X2270D02*
D03*
D17*
X2888Y1407D02*
D03*
Y1343D02*
D03*
Y1277D02*
D03*
Y1212D02*
D03*
X3333Y1407D02*
D03*
Y1343D02*
D03*
Y1277D02*
D03*
Y1212D02*
D03*
D18*
X2662Y1232D02*
D03*
Y1388D02*
D03*
X2785Y890D02*
D03*
Y1045D02*
D03*
D19*
X2248Y1075D02*
D03*
Y1385D02*
D03*
X1485Y1075D02*
D03*
Y1385D02*
D03*
X1867Y1075D02*
D03*
Y1385D02*
D03*
X3700Y945D02*
D03*
Y1255D02*
D03*
X3345Y703D02*
D03*
Y392D02*
D03*
D20*
X3700Y1805D02*
D03*
Y1495D02*
D03*
D21*
X5200Y1240D02*
D03*
Y960D02*
D03*
X4850Y1240D02*
D03*
Y960D02*
D03*
X4500Y1240D02*
D03*
Y960D02*
D03*
X4150Y1240D02*
D03*
Y960D02*
D03*
X5200Y1430D02*
D03*
Y1710D02*
D03*
X4850Y1430D02*
D03*
Y1710D02*
D03*
X4500Y1430D02*
D03*
Y1710D02*
D03*
X4150Y1430D02*
D03*
Y1710D02*
D03*
D35*
X351Y1120D02*
D03*
X1528Y2512D02*
D03*
D36*
X605Y1120D02*
D03*
X1783Y2512D02*
D03*
X290Y2348D02*
D03*
X5669Y1605D02*
D03*
D37*
X290Y2093D02*
D03*
X5669Y1351D02*
D03*
M02*
