G04*
G04 #@! TF.GenerationSoftware,Altium Limited,Altium Designer,19.1.8 (144)*
G04*
G04 Layer_Color=8388736*
%FSLAX42Y42*%
%MOMM*%
G71*
G01*
G75*
G04:AMPARAMS|DCode=26|XSize=3.35mm|YSize=2mm|CornerRadius=0.16mm|HoleSize=0mm|Usage=FLASHONLY|Rotation=180.000|XOffset=0mm|YOffset=0mm|HoleType=Round|Shape=RoundedRectangle|*
%AMROUNDEDRECTD26*
21,1,3.35,1.69,0,0,180.0*
21,1,3.04,2.00,0,0,180.0*
1,1,0.31,-1.52,0.85*
1,1,0.31,1.52,0.85*
1,1,0.31,1.52,-0.85*
1,1,0.31,-1.52,-0.85*
%
%ADD26ROUNDEDRECTD26*%
G04:AMPARAMS|DCode=27|XSize=0.8mm|YSize=2mm|CornerRadius=0.15mm|HoleSize=0mm|Usage=FLASHONLY|Rotation=180.000|XOffset=0mm|YOffset=0mm|HoleType=Round|Shape=RoundedRectangle|*
%AMROUNDEDRECTD27*
21,1,0.80,1.70,0,0,180.0*
21,1,0.50,2.00,0,0,180.0*
1,1,0.31,-0.25,0.85*
1,1,0.31,0.25,0.85*
1,1,0.31,0.25,-0.85*
1,1,0.31,-0.25,-0.85*
%
%ADD27ROUNDEDRECTD27*%
%ADD28R,1.05X1.10*%
%ADD29R,1.10X1.05*%
%ADD30R,2.60X3.50*%
%ADD31R,2.70X1.90*%
%ADD32R,1.60X1.40*%
%ADD33R,4.55X2.35*%
%ADD34O,0.70X1.55*%
%ADD35R,2.65X2.75*%
%ADD36R,1.20X0.80*%
%ADD37R,1.73X1.73*%
%ADD38C,1.73*%
%ADD39R,1.73X1.73*%
D26*
X6735Y2455D02*
D03*
D27*
X6989Y1870D02*
D03*
X6862D02*
D03*
X6735D02*
D03*
X6608D02*
D03*
X6481D02*
D03*
D28*
X6712Y1082D02*
D03*
X6868D02*
D03*
X4647Y1135D02*
D03*
X4803D02*
D03*
X1118Y2662D02*
D03*
X962D02*
D03*
X960Y2502D02*
D03*
X1115D02*
D03*
X1120Y2295D02*
D03*
X965D02*
D03*
X1548Y1735D02*
D03*
X1393D02*
D03*
X1388Y1912D02*
D03*
X1543D02*
D03*
D29*
X6330Y2492D02*
D03*
Y2338D02*
D03*
X7235Y2238D02*
D03*
Y2083D02*
D03*
X4888Y1383D02*
D03*
Y1538D02*
D03*
X4350Y1727D02*
D03*
Y1573D02*
D03*
X4888Y1840D02*
D03*
Y1685D02*
D03*
X4200Y1727D02*
D03*
Y1573D02*
D03*
X4050D02*
D03*
Y1727D02*
D03*
X3900Y1573D02*
D03*
Y1727D02*
D03*
X350Y622D02*
D03*
Y778D02*
D03*
X600Y622D02*
D03*
Y778D02*
D03*
D30*
X3805Y2550D02*
D03*
X2895D02*
D03*
D31*
X4575D02*
D03*
X4175D02*
D03*
D32*
X4900Y2690D02*
D03*
Y2860D02*
D03*
D33*
X5300Y2348D02*
D03*
Y1752D02*
D03*
D34*
X4710Y1835D02*
D03*
X4645D02*
D03*
X4580D02*
D03*
X4515D02*
D03*
X4710Y1390D02*
D03*
X4645D02*
D03*
X4580D02*
D03*
X4515D02*
D03*
D35*
X2315Y2817D02*
D03*
Y2212D02*
D03*
D36*
X1300Y2288D02*
D03*
Y2098D02*
D03*
X1540Y2192D02*
D03*
X857Y1860D02*
D03*
Y1670D02*
D03*
X1098Y1765D02*
D03*
X1093Y1420D02*
D03*
X852Y1325D02*
D03*
Y1515D02*
D03*
X810Y2352D02*
D03*
X570Y2258D02*
D03*
Y2448D02*
D03*
X412Y1775D02*
D03*
X653Y1870D02*
D03*
Y1680D02*
D03*
D37*
X5942Y1817D02*
D03*
X1538Y2750D02*
D03*
X297Y2352D02*
D03*
D38*
X5942Y2072D02*
D03*
X6904Y1377D02*
D03*
X348Y1105D02*
D03*
X1538Y2495D02*
D03*
X297Y2099D02*
D03*
D39*
X6650Y1377D02*
D03*
X602Y1105D02*
D03*
M02*
