G04*
G04 #@! TF.GenerationSoftware,Altium Limited,Altium Designer,19.1.8 (144)*
G04*
G04 Layer_Physical_Order=1*
G04 Layer_Color=255*
%FSLAX42Y42*%
%MOMM*%
G71*
G01*
G75*
%ADD13C,0.25*%
G04:AMPARAMS|DCode=15|XSize=3.15mm|YSize=1.8mm|CornerRadius=0.05mm|HoleSize=0mm|Usage=FLASHONLY|Rotation=180.000|XOffset=0mm|YOffset=0mm|HoleType=Round|Shape=RoundedRectangle|*
%AMROUNDEDRECTD15*
21,1,3.15,1.69,0,0,180.0*
21,1,3.04,1.80,0,0,180.0*
1,1,0.11,-1.52,0.85*
1,1,0.11,1.52,0.85*
1,1,0.11,1.52,-0.85*
1,1,0.11,-1.52,-0.85*
%
%ADD15ROUNDEDRECTD15*%
G04:AMPARAMS|DCode=16|XSize=0.6mm|YSize=1.8mm|CornerRadius=0.05mm|HoleSize=0mm|Usage=FLASHONLY|Rotation=180.000|XOffset=0mm|YOffset=0mm|HoleType=Round|Shape=RoundedRectangle|*
%AMROUNDEDRECTD16*
21,1,0.60,1.70,0,0,180.0*
21,1,0.50,1.80,0,0,180.0*
1,1,0.10,-0.25,0.85*
1,1,0.10,0.25,0.85*
1,1,0.10,0.25,-0.85*
1,1,0.10,-0.25,-0.85*
%
%ADD16ROUNDEDRECTD16*%
%ADD17R,0.85X0.90*%
%ADD18R,0.90X0.85*%
%ADD19R,2.40X3.30*%
%ADD20R,2.50X1.70*%
%ADD21R,1.40X1.20*%
%ADD22R,4.35X2.15*%
%ADD23O,0.50X1.35*%
%ADD24R,2.45X2.55*%
%ADD25R,1.00X0.60*%
%ADD40C,0.50*%
%ADD41C,1.00*%
%ADD42C,1.50*%
%ADD43R,1.52X1.52*%
%ADD44C,1.52*%
%ADD45R,1.52X1.52*%
G36*
X3031Y2000D02*
X1657D01*
X1580Y2077D01*
X1567Y2086D01*
X1552Y2089D01*
X1546D01*
X1459Y2176D01*
Y2312D01*
X1456Y2327D01*
X1450Y2336D01*
Y2575D01*
X2550D01*
X2650Y2675D01*
X2875Y2900D01*
X3031D01*
Y2000D01*
D02*
G37*
G36*
X1375Y2100D02*
Y2000D01*
X175D01*
Y2200D01*
X1375D01*
Y2100D01*
D02*
G37*
G36*
X4303Y2635D02*
Y2285D01*
X4540Y2048D01*
Y1908D01*
X4533Y1897D01*
X4529Y1880D01*
X4492D01*
X4472Y1900D01*
X4345Y1900D01*
X4245Y2000D01*
X3625Y2000D01*
X3625Y2900D01*
X4038D01*
X4303Y2635D01*
D02*
G37*
G36*
X6172Y2580D02*
Y2452D01*
X6245Y2380D01*
X6375D01*
Y2217D01*
X6575Y2017D01*
X6638Y1955D01*
Y1780D01*
X6192D01*
X6008Y1965D01*
X5265D01*
X4652Y1965D01*
X4605Y1917D01*
Y1908D01*
X4598Y1897D01*
X4595Y1884D01*
X4583Y1874D01*
X4580Y1874D01*
X4578Y1874D01*
X4565Y1884D01*
X4563Y1897D01*
X4564Y1898D01*
X4564Y1901D01*
X4565Y1903D01*
Y1906D01*
X4566Y1908D01*
Y2048D01*
X4564Y2057D01*
X4558Y2066D01*
X4450Y2174D01*
Y2750D01*
X5821D01*
X6172Y2580D01*
D02*
G37*
G36*
X7600Y375D02*
X3875Y375D01*
X3875Y1479D01*
X3900Y1479D01*
X4190D01*
X4248Y1421D01*
X4269Y1407D01*
X4294Y1402D01*
X4403D01*
X4427Y1407D01*
X4448Y1421D01*
X4473Y1446D01*
X4501Y1440D01*
X4504Y1435D01*
X4504Y1433D01*
Y1348D01*
X4506Y1328D01*
X4514Y1309D01*
X4515Y1308D01*
Y1205D01*
X4520Y1180D01*
X4534Y1159D01*
X4554Y1139D01*
Y1039D01*
X4896D01*
Y1070D01*
X4935D01*
X4960Y1075D01*
X4981Y1089D01*
X5071Y1179D01*
X5085Y1200D01*
X5090Y1225D01*
Y1403D01*
X5085Y1428D01*
X5071Y1449D01*
X4983Y1536D01*
Y1592D01*
Y1778D01*
X4792D01*
Y1770D01*
X4744D01*
X4722Y1793D01*
Y1878D01*
X4720Y1888D01*
X4737Y1913D01*
X5265Y1913D01*
X5986D01*
X6156Y1743D01*
X6173Y1732D01*
X6192Y1728D01*
X6456D01*
X6456Y1728D01*
X6506D01*
X6506Y1728D01*
X6583D01*
X6583Y1728D01*
X6633D01*
X6633Y1728D01*
X6638D01*
X6657Y1732D01*
X6674Y1743D01*
X6685Y1760D01*
X6689Y1780D01*
Y1782D01*
X6690Y1785D01*
Y1955D01*
X6686Y1977D01*
X6673Y1995D01*
X6665Y2001D01*
X6612Y2054D01*
X6612Y2054D01*
X6427Y2239D01*
Y2380D01*
X6426Y2385D01*
Y2431D01*
X6380D01*
X6375Y2432D01*
X6266D01*
X6224Y2474D01*
Y2580D01*
X6223Y2588D01*
X6221Y2597D01*
X6221Y2598D01*
X6220Y2600D01*
X6216Y2607D01*
X6211Y2614D01*
X6210Y2615D01*
X6209Y2617D01*
X6202Y2621D01*
X6195Y2627D01*
X5844Y2797D01*
X5843Y2797D01*
X5841Y2798D01*
X5833Y2800D01*
X5824Y2802D01*
X5823Y2801D01*
X5821Y2802D01*
X4450D01*
X4430Y2798D01*
X4413Y2787D01*
X4402Y2770D01*
X4398Y2750D01*
Y2296D01*
X4375Y2286D01*
X4354Y2306D01*
Y2635D01*
X4351Y2653D01*
Y2686D01*
X4325D01*
X4074Y2937D01*
X4057Y2948D01*
X4038Y2952D01*
X3875D01*
Y3075D01*
X2835Y3075D01*
Y2933D01*
X2613Y2712D01*
X2529Y2627D01*
X1548D01*
X1540Y2628D01*
X1532Y2627D01*
X1450D01*
X1430Y2623D01*
X1413Y2612D01*
X1408Y2604D01*
X1175D01*
X1149Y2601D01*
X1143Y2598D01*
X1056D01*
Y2758D01*
X869D01*
Y2598D01*
X867D01*
Y2521D01*
X671D01*
Y2528D01*
X469D01*
Y2367D01*
X671D01*
Y2391D01*
X709D01*
Y2272D01*
X696Y2252D01*
X175D01*
X155Y2248D01*
X138Y2237D01*
X127Y2220D01*
X123Y2200D01*
Y2000D01*
X127Y1980D01*
X138Y1963D01*
X155Y1952D01*
X175Y1948D01*
X428D01*
X438Y1925D01*
X369Y1856D01*
X312D01*
Y1694D01*
X487D01*
X497Y1669D01*
X305Y1477D01*
X291Y1456D01*
X286Y1431D01*
Y1217D01*
X284Y1216D01*
X257Y1196D01*
X237Y1169D01*
X224Y1138D01*
X220Y1105D01*
X224Y1072D01*
X237Y1041D01*
X257Y1014D01*
X283Y995D01*
Y871D01*
X254D01*
Y684D01*
X446D01*
Y871D01*
X413D01*
Y995D01*
X439Y1014D01*
X450Y1029D01*
X475Y1020D01*
Y978D01*
X535D01*
Y871D01*
X504D01*
Y684D01*
X696D01*
Y871D01*
X665D01*
Y978D01*
X729D01*
Y1232D01*
X670D01*
Y1431D01*
X687Y1448D01*
X752D01*
Y1434D01*
X953D01*
Y1589D01*
X958D01*
Y1721D01*
X972Y1732D01*
X997Y1722D01*
Y1684D01*
X1198D01*
Y1703D01*
X1299D01*
Y1639D01*
X1329D01*
X1339Y1616D01*
X1219Y1495D01*
X1193Y1501D01*
Y1501D01*
X992D01*
Y1339D01*
X1193D01*
Y1358D01*
X1238D01*
X1262Y1363D01*
X1283Y1377D01*
X1546Y1639D01*
X1641D01*
Y1739D01*
X1693Y1792D01*
X1707Y1813D01*
X1712Y1838D01*
Y1948D01*
X3031D01*
X3040Y1950D01*
X3616Y1950D01*
X3625Y1948D01*
X3875Y1948D01*
X3875Y1666D01*
X3804D01*
Y1479D01*
X3850D01*
X3875Y1479D01*
X3875Y375D01*
X3850Y375D01*
X12Y375D01*
X0Y3357D01*
X18Y3375D01*
X7600D01*
Y375D01*
D02*
G37*
G36*
X757Y1839D02*
Y1785D01*
X756Y1778D01*
X740Y1761D01*
X552D01*
Y1730D01*
X538Y1720D01*
X513Y1731D01*
Y1817D01*
X575Y1878D01*
X718D01*
X757Y1839D01*
D02*
G37*
G36*
X4224Y1948D02*
X4308Y1863D01*
X4314Y1860D01*
X4325Y1852D01*
X4345Y1848D01*
X4345D01*
D01*
D01*
X4439Y1848D01*
Y1821D01*
X3954D01*
Y1666D01*
X3875D01*
Y1948D01*
X4224Y1948D01*
D02*
G37*
%LPC*%
G36*
X7331Y2176D02*
X7139D01*
Y2081D01*
X7065Y2007D01*
X7037D01*
X7036Y2008D01*
X7014Y2012D01*
X6964D01*
X6942Y2008D01*
X6925Y1996D01*
X6909Y2008D01*
X6887Y2012D01*
X6837D01*
X6815Y2008D01*
X6797Y1995D01*
X6784Y1977D01*
X6780Y1955D01*
Y1808D01*
X6776Y1804D01*
X6773Y1800D01*
X6770Y1796D01*
X6768Y1792D01*
X6765Y1787D01*
X6764Y1786D01*
X6762Y1783D01*
X6756Y1779D01*
X6753Y1775D01*
X6748Y1772D01*
X6746Y1768D01*
X6742Y1764D01*
X6740Y1760D01*
X6737Y1755D01*
X6736Y1750D01*
X6734Y1746D01*
Y1741D01*
X6733Y1736D01*
Y1177D01*
X6737Y1158D01*
X6748Y1141D01*
X6755Y1136D01*
X6757Y1128D01*
X6768Y1111D01*
X6774Y1105D01*
Y987D01*
X6961D01*
Y1105D01*
X7024Y1168D01*
X7035Y1185D01*
X7039Y1205D01*
X7039Y1692D01*
X7035Y1712D01*
X7036Y1732D01*
X7054Y1745D01*
X7067Y1763D01*
X7071Y1785D01*
Y1877D01*
X7092D01*
X7117Y1882D01*
X7138Y1896D01*
X7231Y1989D01*
X7331D01*
Y2176D01*
D02*
G37*
%LPD*%
G36*
X6911Y1769D02*
X6912Y1764D01*
X6924Y1745D01*
X6943Y1733D01*
X6948Y1732D01*
X6988Y1692D01*
X6988Y1205D01*
X6890Y1107D01*
X6845D01*
X6805Y1148D01*
Y1177D01*
X6785D01*
Y1736D01*
X6800Y1745D01*
X6812Y1764D01*
X6813Y1768D01*
X6832Y1788D01*
X6893D01*
X6911Y1769D01*
D02*
G37*
D13*
X351Y1431D02*
X613Y1693D01*
X351Y1120D02*
Y1431D01*
X613Y1693D02*
Y1693D01*
X551Y1758D02*
Y1788D01*
X632Y1870D01*
X653D01*
X7232Y2083D02*
X7235D01*
X7092Y1942D02*
X7232Y2083D01*
X7006Y1942D02*
X7092D01*
X6989Y1925D02*
X7006Y1942D01*
X6989Y1870D02*
Y1925D01*
X600Y1103D02*
X602Y1105D01*
X600Y778D02*
Y1103D01*
X348Y780D02*
Y1105D01*
Y780D02*
X350Y778D01*
X1528Y2512D02*
X1540Y2501D01*
X1519Y2502D02*
X1528Y2512D01*
X4350Y1727D02*
X4378Y1700D01*
X4200Y1727D02*
X4350D01*
X4050D02*
X4200D01*
X4378Y1700D02*
X4550D01*
X4580Y1730D01*
X4095Y1575D02*
X4185D01*
X3895D02*
X4095D01*
X4185D02*
X4294Y1467D01*
X4403D01*
X4785Y1540D02*
X4888D01*
X5025Y1403D01*
X4330Y1577D02*
X4353Y1600D01*
X4725D02*
X4785Y1540D01*
X4353Y1600D02*
X4725D01*
X4888Y1540D02*
Y1685D01*
X4675Y1525D02*
X4713Y1487D01*
X4461Y1525D02*
X4675D01*
X4403Y1467D02*
X4461Y1525D01*
X4713Y1393D02*
Y1487D01*
X4803Y1135D02*
X4935D01*
X5025Y1225D01*
Y1403D01*
X4758Y1255D02*
X4885Y1383D01*
X4670Y1255D02*
X4758D01*
X4580Y1205D02*
Y1390D01*
Y1205D02*
X4647Y1138D01*
Y1135D02*
Y1138D01*
X4645Y1280D02*
Y1390D01*
Y1280D02*
X4670Y1255D01*
X4645Y1730D02*
Y1835D01*
Y1730D02*
X4670Y1705D01*
X4868D01*
X4888Y1685D01*
X4885Y1383D02*
X4888D01*
X4580Y1730D02*
Y1835D01*
X4580Y1835D01*
X4710Y1390D02*
X4713Y1393D01*
X965Y2135D02*
X975Y2125D01*
X965Y2135D02*
Y2295D01*
X830Y1858D02*
X868D01*
X927Y1917D02*
X1385D01*
X868Y1858D02*
X927Y1917D01*
X745Y1943D02*
X830Y1858D01*
X548Y1943D02*
X745D01*
X1002Y1860D02*
X1299D01*
X1339Y1820D01*
X857Y1670D02*
Y1715D01*
X1093Y1767D02*
X1363D01*
X960Y2500D02*
X976D01*
X1238Y1423D02*
X1548Y1733D01*
X1112Y1423D02*
X1238D01*
X660Y1512D02*
X827D01*
X605Y1457D02*
X660Y1512D01*
X613Y1693D02*
X633D01*
X410Y1805D02*
X548Y1943D01*
X1552Y2050D02*
X1648Y1955D01*
X1530Y2050D02*
X1552D01*
X1420Y2160D02*
X1530Y2050D01*
X1648Y1838D02*
Y1955D01*
X1548Y1738D02*
X1648Y1838D01*
X1420Y2160D02*
Y2312D01*
X605Y1120D02*
Y1457D01*
X1343Y2390D02*
X1420Y2312D01*
X1086Y2390D02*
X1343D01*
X1548Y1735D02*
Y1738D01*
X976Y2500D02*
X1086Y2390D01*
X960Y2500D02*
Y2502D01*
X1120Y2295D02*
Y2298D01*
X1090Y2327D02*
X1120Y2298D01*
X1074Y2327D02*
X1090D01*
X1023Y2378D02*
X1074Y2327D01*
X907Y2378D02*
X1023D01*
X898Y2369D02*
X907Y2378D01*
X1480Y1820D02*
X1513Y1853D01*
Y1883D01*
X1543Y1912D01*
X1339Y1820D02*
X1480D01*
X857Y1715D02*
X1002Y1860D01*
X1513Y1942D02*
Y1990D01*
Y1942D02*
X1543Y1912D01*
X1405Y2098D02*
X1513Y1990D01*
X1300Y2098D02*
X1405D01*
X1363Y1767D02*
X1393Y1738D01*
Y1735D02*
Y1738D01*
X1548Y1733D02*
Y1735D01*
X1385Y1915D02*
Y1917D01*
Y1915D02*
X1388Y1912D01*
X962Y2505D02*
Y2660D01*
X960Y2502D02*
X962Y2505D01*
X916Y2456D02*
X960Y2500D01*
X578Y2456D02*
X916D01*
X570Y2448D02*
X578Y2456D01*
X827Y2369D02*
X898D01*
X810Y2352D02*
X827Y2369D01*
X1127Y2288D02*
X1300D01*
X1120Y2295D02*
X1127Y2288D01*
X290Y2093D02*
X294Y2098D01*
D15*
X6735Y2455D02*
D03*
D16*
X6989Y1870D02*
D03*
X6862D02*
D03*
X6735D02*
D03*
X6608D02*
D03*
X6481D02*
D03*
D17*
X6712Y1082D02*
D03*
X6868D02*
D03*
X4647Y1135D02*
D03*
X4803D02*
D03*
X1118Y2662D02*
D03*
X962D02*
D03*
X960Y2502D02*
D03*
X1115D02*
D03*
X1120Y2295D02*
D03*
X965D02*
D03*
X1548Y1735D02*
D03*
X1393D02*
D03*
X1388Y1912D02*
D03*
X1543D02*
D03*
D18*
X6330Y2492D02*
D03*
Y2338D02*
D03*
X7235Y2238D02*
D03*
Y2083D02*
D03*
X4888Y1383D02*
D03*
Y1538D02*
D03*
X4350Y1727D02*
D03*
Y1573D02*
D03*
X4888Y1840D02*
D03*
Y1685D02*
D03*
X4200Y1727D02*
D03*
Y1573D02*
D03*
X4050D02*
D03*
Y1727D02*
D03*
X3900Y1573D02*
D03*
Y1727D02*
D03*
X350Y622D02*
D03*
Y778D02*
D03*
X600Y622D02*
D03*
Y778D02*
D03*
D19*
X3805Y2550D02*
D03*
X2895D02*
D03*
D20*
X4575D02*
D03*
X4175D02*
D03*
D21*
X4900Y2690D02*
D03*
Y2860D02*
D03*
D22*
X5300Y2348D02*
D03*
Y1752D02*
D03*
D23*
X4710Y1835D02*
D03*
X4645D02*
D03*
X4580D02*
D03*
X4515D02*
D03*
X4710Y1390D02*
D03*
X4645D02*
D03*
X4580D02*
D03*
X4515D02*
D03*
D24*
X2315Y2817D02*
D03*
Y2212D02*
D03*
D25*
X1300Y2288D02*
D03*
Y2098D02*
D03*
X1540Y2192D02*
D03*
X857Y1860D02*
D03*
Y1670D02*
D03*
X1098Y1765D02*
D03*
X1093Y1420D02*
D03*
X852Y1325D02*
D03*
Y1515D02*
D03*
X810Y2352D02*
D03*
X570Y2258D02*
D03*
Y2448D02*
D03*
X412Y1775D02*
D03*
X653Y1870D02*
D03*
Y1680D02*
D03*
D40*
X460Y1667D02*
X600Y1800D01*
D41*
X1402Y2502D02*
X1519D01*
X1175D02*
X1402D01*
D42*
X1540Y2495D02*
Y2501D01*
D43*
X5942Y1817D02*
D03*
X1538Y2750D02*
D03*
X297Y2352D02*
D03*
D44*
X5942Y2072D02*
D03*
X6904Y1377D02*
D03*
X348Y1105D02*
D03*
X1538Y2495D02*
D03*
X297Y2099D02*
D03*
D45*
X6650Y1377D02*
D03*
X602Y1105D02*
D03*
M02*
