G04*
G04 #@! TF.GenerationSoftware,Altium Limited,Altium Designer,19.1.8 (144)*
G04*
G04 Layer_Color=2752767*
%FSLAX42Y42*%
%MOMM*%
G71*
G01*
G75*
%ADD51C,0.05*%
D51*
X5942Y1860D02*
X5951Y1868D01*
X5968D01*
X5976Y1860D01*
Y1826D01*
X5968Y1817D01*
X5951D01*
X5942Y1826D01*
Y1860D01*
X5993Y1817D02*
Y1826D01*
X6002D01*
Y1817D01*
X5993D01*
X6036Y1868D02*
X6069D01*
Y1860D01*
X6036Y1826D01*
Y1817D01*
X6120Y1868D02*
X6103Y1860D01*
X6086Y1843D01*
Y1826D01*
X6095Y1817D01*
X6112D01*
X6120Y1826D01*
Y1834D01*
X6112Y1843D01*
X6086D01*
X6171Y1817D02*
X6137D01*
X6171Y1851D01*
Y1860D01*
X6163Y1868D01*
X6146D01*
X6137Y1860D01*
X5942Y2114D02*
X5951Y2122D01*
X5968D01*
X5976Y2114D01*
Y2080D01*
X5968Y2072D01*
X5951D01*
X5942Y2080D01*
Y2114D01*
X5993Y2072D02*
Y2080D01*
X6002D01*
Y2072D01*
X5993D01*
X6036Y2122D02*
X6069D01*
Y2114D01*
X6036Y2080D01*
Y2072D01*
X6120Y2122D02*
X6103Y2114D01*
X6086Y2097D01*
Y2080D01*
X6095Y2072D01*
X6112D01*
X6120Y2080D01*
Y2088D01*
X6112Y2097D01*
X6086D01*
X6171Y2072D02*
X6137D01*
X6171Y2105D01*
Y2114D01*
X6163Y2122D01*
X6146D01*
X6137Y2114D01*
X6650Y1420D02*
X6659Y1428D01*
X6676D01*
X6684Y1420D01*
Y1386D01*
X6676Y1377D01*
X6659D01*
X6650Y1386D01*
Y1420D01*
X6701Y1377D02*
Y1386D01*
X6710D01*
Y1377D01*
X6701D01*
X6744Y1428D02*
X6777D01*
Y1420D01*
X6744Y1386D01*
Y1377D01*
X6828Y1428D02*
X6811Y1420D01*
X6794Y1403D01*
Y1386D01*
X6803Y1377D01*
X6820D01*
X6828Y1386D01*
Y1394D01*
X6820Y1403D01*
X6794D01*
X6879Y1377D02*
X6845D01*
X6879Y1411D01*
Y1420D01*
X6871Y1428D01*
X6854D01*
X6845Y1420D01*
X6904D02*
X6913Y1428D01*
X6930D01*
X6938Y1420D01*
Y1386D01*
X6930Y1377D01*
X6913D01*
X6904Y1386D01*
Y1420D01*
X6955Y1377D02*
Y1386D01*
X6964D01*
Y1377D01*
X6955D01*
X6998Y1428D02*
X7031D01*
Y1420D01*
X6998Y1386D01*
Y1377D01*
X7082Y1428D02*
X7065Y1420D01*
X7048Y1403D01*
Y1386D01*
X7057Y1377D01*
X7074D01*
X7082Y1386D01*
Y1394D01*
X7074Y1403D01*
X7048D01*
X7133Y1377D02*
X7099D01*
X7133Y1411D01*
Y1420D01*
X7125Y1428D01*
X7108D01*
X7099Y1420D01*
X602Y1147D02*
X610Y1156D01*
X627D01*
X636Y1147D01*
Y1113D01*
X627Y1105D01*
X610D01*
X602Y1113D01*
Y1147D01*
X653Y1105D02*
Y1113D01*
X661D01*
Y1105D01*
X653D01*
X695Y1156D02*
X729D01*
Y1147D01*
X695Y1113D01*
Y1105D01*
X780Y1156D02*
X763Y1147D01*
X746Y1130D01*
Y1113D01*
X754Y1105D01*
X771D01*
X780Y1113D01*
Y1122D01*
X771Y1130D01*
X746D01*
X831Y1105D02*
X797D01*
X831Y1139D01*
Y1147D01*
X822Y1156D01*
X805D01*
X797Y1147D01*
X348D02*
X356Y1156D01*
X373D01*
X382Y1147D01*
Y1113D01*
X373Y1105D01*
X356D01*
X348Y1113D01*
Y1147D01*
X399Y1105D02*
Y1113D01*
X407D01*
Y1105D01*
X399D01*
X441Y1156D02*
X475D01*
Y1147D01*
X441Y1113D01*
Y1105D01*
X526Y1156D02*
X509Y1147D01*
X492Y1130D01*
Y1113D01*
X500Y1105D01*
X517D01*
X526Y1113D01*
Y1122D01*
X517Y1130D01*
X492D01*
X577Y1105D02*
X543D01*
X577Y1139D01*
Y1147D01*
X568Y1156D01*
X551D01*
X543Y1147D01*
X1538Y2792D02*
X1546Y2800D01*
X1563D01*
X1571Y2792D01*
Y2758D01*
X1563Y2750D01*
X1546D01*
X1538Y2758D01*
Y2792D01*
X1588Y2750D02*
Y2758D01*
X1597D01*
Y2750D01*
X1588D01*
X1631Y2800D02*
X1664D01*
Y2792D01*
X1631Y2758D01*
Y2750D01*
X1715Y2800D02*
X1698Y2792D01*
X1681Y2775D01*
Y2758D01*
X1690Y2750D01*
X1707D01*
X1715Y2758D01*
Y2766D01*
X1707Y2775D01*
X1681D01*
X1766Y2750D02*
X1732D01*
X1766Y2783D01*
Y2792D01*
X1758Y2800D01*
X1741D01*
X1732Y2792D01*
X1538Y2538D02*
X1546Y2546D01*
X1563D01*
X1571Y2538D01*
Y2504D01*
X1563Y2495D01*
X1546D01*
X1538Y2504D01*
Y2538D01*
X1588Y2495D02*
Y2504D01*
X1597D01*
Y2495D01*
X1588D01*
X1631Y2546D02*
X1664D01*
Y2538D01*
X1631Y2504D01*
Y2495D01*
X1715Y2546D02*
X1698Y2538D01*
X1681Y2521D01*
Y2504D01*
X1690Y2495D01*
X1707D01*
X1715Y2504D01*
Y2512D01*
X1707Y2521D01*
X1681D01*
X1766Y2495D02*
X1732D01*
X1766Y2529D01*
Y2538D01*
X1758Y2546D01*
X1741D01*
X1732Y2538D01*
X297Y2395D02*
X306Y2403D01*
X323D01*
X331Y2395D01*
Y2361D01*
X323Y2352D01*
X306D01*
X297Y2361D01*
Y2395D01*
X348Y2352D02*
Y2361D01*
X357D01*
Y2352D01*
X348D01*
X391Y2403D02*
X424D01*
Y2395D01*
X391Y2361D01*
Y2352D01*
X475Y2403D02*
X458Y2395D01*
X441Y2378D01*
Y2361D01*
X450Y2352D01*
X467D01*
X475Y2361D01*
Y2369D01*
X467Y2378D01*
X441D01*
X526Y2352D02*
X492D01*
X526Y2386D01*
Y2395D01*
X518Y2403D01*
X501D01*
X492Y2395D01*
X297Y2141D02*
X306Y2149D01*
X323D01*
X331Y2141D01*
Y2107D01*
X323Y2099D01*
X306D01*
X297Y2107D01*
Y2141D01*
X348Y2099D02*
Y2107D01*
X357D01*
Y2099D01*
X348D01*
X391Y2149D02*
X424D01*
Y2141D01*
X391Y2107D01*
Y2099D01*
X475Y2149D02*
X458Y2141D01*
X441Y2124D01*
Y2107D01*
X450Y2099D01*
X467D01*
X475Y2107D01*
Y2115D01*
X467Y2124D01*
X441D01*
X526Y2099D02*
X492D01*
X526Y2132D01*
Y2141D01*
X518Y2149D01*
X501D01*
X492Y2141D01*
M02*
