M48
;Layer_Color=9474304
;FILE_FORMAT=4:2
METRIC,LZ
T2F00S00C5.08
%
G90
G05
T02
G00X00765Y000126
M15
G01X007699Y000141
G01X007743Y000165
G01X007782Y000198
G01X007814Y000238
G01X007837Y000283
G01X00785Y000332
G01X007854Y000375
G01X007854Y003375
G01X007849Y003425
G01X007834Y003474
G01X00781Y003518
G01X007777Y003557
G01X007737Y003589
G01X007692Y003612
G01X007643Y003625
G01X0076Y003629
G01X0Y003629
G01X-00005Y003624
G01X-000099Y003609
G01X-000143Y003585
G01X-000182Y003552
G01X-000214Y003512
G01X-000237Y003467
G01X-00025Y003418
G01X-000254Y003375
G01X-000254Y000375
G01X-000249Y000325
G01X-000234Y000276
G01X-00021Y000232
G01X-000177Y000193
G01X-000137Y000161
G01X-000092Y000138
G01X-000043Y000125
G01X0Y000121
G01X0076Y000121
G01X00765Y000126
M16
M17
M30
